<svg width="8" height="8" viewBox="0 0 8 8" fill="none" xmlns="http://www.w3.org/2000/svg">
<g clip-path="url(#clip0_1320_20275)">
<path d="M7.48 3.5H4.46V0.48C4.46 0.22 4.25 0 3.98 0C3.71 0 3.5 0.21 3.5 0.48V3.5H0.48C0.22 3.5 0 3.71 0 3.98C0 4.25 0.21 4.46 0.48 4.46H3.5V7.48C3.5 7.74 3.71 7.96 3.98 7.96C4.25 7.96 4.46 7.75 4.46 7.48V4.46H7.48C7.74 4.46 7.96 4.25 7.96 3.98C7.96 3.71 7.75 3.5 7.48 3.5Z" fill="white"/>
</g>
<defs>
<clipPath id="clip0_1320_20275">
<rect width="7.95" height="7.95" fill="white"/>
</clipPath>
</defs>
</svg>
