<svg width="1360" height="160" viewBox="0 0 1360 160" fill="none" xmlns="http://www.w3.org/2000/svg">
<g clip-path="url(#clip0_1569_33093)">
<path d="M30.4976 6.42087C37.8924 6.6526 43.9663 6.76846 48.7193 6.76846C53.4724 6.76846 59.5656 6.6526 67.0182 6.42087C74.4708 6.18914 80.2458 6.07327 84.3432 6.07327C87.0428 6.07327 90.7642 5.43601 95.5173 4.1615L98.5928 28.9759C97.8408 29.787 96.5393 30.1925 94.7074 30.1925C93.7337 30.1925 93.1938 29.9029 93.0877 29.3235C91.5741 22.8447 89.7134 18.6543 87.5055 16.7425C85.2881 14.8307 81.1135 13.8749 74.9528 13.8749C63.5088 13.8749 57.5699 14.7438 57.136 16.4818C56.1623 20.1895 55.6802 25.9731 55.6802 33.8326V96.4866C55.6802 103.197 56.1623 108.575 57.136 112.621C57.3481 113.432 58.8618 114.214 61.6674 114.967C64.4729 115.72 66.4204 116.097 67.5002 116.097C67.9341 116.097 68.1462 116.966 68.1462 118.704C68.1462 119.631 68.0401 120.442 67.8184 121.137C57.0203 120.558 50.7633 120.268 49.0375 120.268C48.4976 120.268 42.0188 120.558 29.601 121.137C29.1672 120.673 28.9551 119.804 28.9551 118.53C28.9551 116.908 29.1672 116.097 29.601 116.097C30.999 116.097 33.0815 115.749 35.8388 115.054C38.5962 114.359 40.1291 113.548 40.4569 112.621C41.2089 109.502 41.5946 104.356 41.5946 97.1722V34.3637C41.5946 24.3027 41.1125 18.3453 40.1388 16.4915C39.2711 14.7535 33.4478 13.8845 22.6498 13.8845C16.4987 13.8845 12.3145 14.8404 10.097 16.7522C7.87959 18.6639 6.01885 22.8544 4.51484 29.3332C4.40879 29.9125 3.86889 30.2022 2.89513 30.2022C1.05368 30.2022 -0.238228 29.7966 -0.990234 28.9856L2.07564 4.1615C6.82871 5.43601 10.5502 6.07327 13.2497 6.07327C17.3472 6.07327 23.1029 6.18914 30.4976 6.42087Z" fill="#4F1705"/>
<path d="M157.809 44.5984C165.04 44.5984 170.226 47.3792 173.35 52.931C176.484 58.4829 178.045 67.0472 178.045 78.6144V97.3556C178.045 103.95 178.479 109.039 179.337 112.63C179.549 113.442 180.957 114.224 183.551 114.977C186.144 115.73 187.976 116.106 189.056 116.106C189.383 116.106 189.595 116.802 189.702 118.192C189.808 119.582 189.759 120.567 189.538 121.147C178.74 120.567 172.965 120.278 172.213 120.278C171.885 120.278 166.225 120.567 155.206 121.147C154.772 120.683 154.56 119.727 154.56 118.279C154.56 116.831 154.772 116.106 155.206 116.106C156.498 116.106 158.31 115.73 160.634 114.977C162.957 114.224 164.22 113.442 164.442 112.63C165.194 109.28 165.579 105.225 165.579 100.484V82.0904C165.579 71.4501 164.201 64.3051 161.453 60.6554C158.705 57.0056 154.463 55.1904 148.736 55.1904C145.497 55.1904 142.287 56.5518 139.105 59.265C135.923 61.9878 134.323 64.3823 134.323 66.4679V97.1818C134.323 103.892 134.757 109.039 135.615 112.63C135.827 113.442 137.235 114.224 139.828 114.977C142.422 115.73 144.253 116.106 145.333 116.106C145.661 116.106 145.873 116.802 145.979 118.192C146.085 119.582 146.037 120.567 145.815 121.147C135.017 120.567 129.242 120.278 128.49 120.278C127.844 120.278 121.953 120.567 110.837 121.147C110.403 120.683 110.191 119.727 110.191 118.279C110.191 116.831 110.403 116.106 110.837 116.106C112.129 116.106 114.048 115.73 116.583 114.977C119.119 114.224 120.498 113.442 120.71 112.63C121.462 109.28 121.847 105.283 121.847 100.658V25.3358C121.847 21.4061 121.52 17.6984 120.874 14.2321C120.334 12.3782 117.576 11.4513 112.611 11.4513H111.155C110.509 11.4513 110.182 10.8141 110.182 9.53955C110.182 7.68571 110.509 6.75879 111.155 6.75879C114.395 6.41119 117.393 5.94773 120.141 5.36841C122.898 4.78908 125.048 4.20976 126.62 3.63043C128.182 3.05111 129.502 2.50075 130.592 1.97935C131.672 1.45796 132.424 1.02347 132.858 0.675873L133.667 0.15448H133.995C134.429 0.15448 134.863 0.473109 135.287 1.11037C135.721 1.74762 135.991 2.35592 136.097 2.93524C134.911 6.64292 134.313 11.6734 134.313 18.0363V56.0497C134.313 56.5132 134.419 56.7449 134.641 56.7449C134.747 56.7449 134.911 56.629 135.123 56.3973C137.495 53.6166 140.869 50.9613 145.246 48.4123C149.623 45.8729 153.798 44.5984 157.799 44.5984H157.809Z" fill="#4F1705"/>
<path d="M235.738 44.7722C245.456 44.7722 253.766 48.5378 260.679 56.0497C267.592 63.5713 271.043 72.5991 271.043 83.1235C271.043 93.6479 267.669 102.879 260.92 110.458C254.171 118.038 245.89 121.822 236.065 121.822C226.241 121.822 217.873 118.038 210.96 110.458C204.047 102.879 200.596 93.7734 200.596 83.1235C200.596 72.4736 203.941 63.2816 210.632 55.8759C217.323 48.4702 225.692 44.7722 235.738 44.7722ZM233.954 51.5406C228.227 51.5406 223.561 54.3504 219.945 59.9602C216.33 65.57 214.517 72.4253 214.517 80.5262C214.517 90.0175 216.812 98.1377 221.401 104.906C225.99 111.675 231.36 115.054 237.512 115.054C243.229 115.054 247.934 112.167 251.597 106.374C255.27 100.59 257.102 93.6479 257.102 85.547C257.102 76.1716 254.779 68.1673 250.141 61.5147C245.494 54.8621 240.105 51.5406 233.944 51.5406H233.954Z" fill="#4F1705"/>
<path d="M348.297 61.4278V96.139C348.297 101.112 348.673 105.514 349.435 109.328C349.647 110.139 350.245 110.777 351.219 111.24C352.192 111.704 353.214 111.993 354.294 112.109C355.374 112.225 356.454 112.283 357.534 112.283L358.989 112.457C359.317 112.573 359.471 113.21 359.471 114.368C359.471 114.716 359.336 115.266 359.066 116.02C358.796 116.773 358.498 117.149 358.179 117.149C356.56 117.265 354.747 117.497 352.752 117.844C350.756 118.192 348.895 118.598 347.169 119.061C345.444 119.524 343.824 119.988 342.31 120.451C340.797 120.915 339.611 121.32 338.743 121.668L337.287 122.016C336.419 122.016 335.995 121.089 335.995 119.235V110.381L335.667 109.512C328.543 117.729 321.466 121.832 314.457 121.832C310.466 121.832 307.033 120.76 304.17 118.617C301.307 116.473 299.205 113.644 297.855 110.11C296.505 106.586 295.56 103.168 295.021 99.8757C294.481 96.5832 294.211 93.1362 294.211 89.554V67.6845C294.211 63.1754 293.459 60.0471 291.945 58.3091C290.865 56.9187 289.544 55.9628 287.973 55.4414C286.411 54.92 285.109 54.6593 284.088 54.6593C283.066 54.6593 282.545 54.5435 282.545 54.3117C282.545 51.531 282.873 50.0923 283.519 49.9765C294.963 48.1226 302.406 46.626 305.867 45.4674C305.973 45.4674 306.243 45.4094 306.677 45.2936C307.11 45.2936 307.38 45.786 307.486 46.7709C307.593 47.7557 307.593 48.4799 307.486 48.9433C306.841 54.4952 306.513 58.7822 306.513 61.785V85.2091C306.513 94.121 307.756 100.687 310.234 104.906C312.712 109.135 316.761 111.24 322.382 111.24C325.621 111.24 328.697 109.879 331.609 107.166C334.52 104.452 335.986 102.106 335.986 100.136V67.6845C335.986 63.1754 335.234 60.0471 333.72 58.3091C332.64 56.9187 331.319 55.9628 329.748 55.4414C328.186 54.92 326.884 54.6593 325.862 54.6593C324.84 54.6593 324.32 54.5435 324.32 54.3117C324.32 51.531 324.648 50.0923 325.294 49.9765C336.738 48.1226 344.181 46.626 347.642 45.4674C347.748 45.4674 348.018 45.4094 348.452 45.2936C348.885 45.2936 349.155 45.786 349.261 46.7709C349.367 47.7557 349.367 48.4799 349.261 48.9433C348.615 54.4952 348.288 58.6567 348.288 61.4374L348.297 61.4278Z" fill="#4F1705"/>
<path d="M403.049 45.6412C407.04 45.6412 411.63 46.3943 416.817 47.9005C422.003 49.4068 426.265 50.1599 429.61 50.1599H439.001C439.647 50.3916 439.975 51.8399 439.975 54.4952C439.975 56.1173 439.647 56.9284 439.001 56.9284H427.499C427.065 56.9284 426.853 57.1022 426.853 57.4497L428.473 61.6112C429.659 64.392 430.256 67.1631 430.256 69.9439C430.256 76.1909 427.663 81.8007 422.486 86.7733C417.299 91.7458 410.935 94.2369 403.377 94.2369C399.925 94.2369 396.898 94.0052 394.305 93.5417C392.897 94.3528 391.412 95.8011 389.85 97.877C388.288 99.9626 387.498 101.807 387.498 103.429C387.498 105.051 387.932 106.354 388.79 107.33C389.658 108.315 390.892 109.01 392.511 109.415C394.131 109.821 395.693 110.11 397.207 110.284C398.72 110.458 400.494 110.545 402.548 110.545H403.685C417.067 110.777 426.467 112.254 431.866 114.967C437.265 117.69 439.965 121.765 439.965 127.201C439.965 136.112 436.455 143.769 429.437 150.19C422.418 156.611 413.404 159.874 402.393 159.99C394.729 160.106 387.845 158.542 381.742 155.307C375.639 152.063 372.593 147.207 372.593 140.728C372.593 133.554 377.886 127.423 388.462 122.334C385.55 121.871 382.851 120.422 380.364 117.999C377.876 115.566 376.642 112.621 376.642 109.145C376.642 106.142 377.857 103.014 380.286 99.7695C382.716 96.5349 385.444 93.87 388.462 91.7844C385.223 90.5099 382.224 87.7678 379.477 83.5387C376.719 79.3193 375.35 74.7716 375.35 69.9149C375.35 63.0885 378.021 57.3339 383.362 52.651C388.703 47.9681 395.269 45.6219 403.039 45.6219L403.049 45.6412ZM429.283 135.359C429.283 130.503 427.065 127.229 422.64 125.559C418.215 123.879 409.412 123.039 396.242 123.039C396.021 123.039 395.703 123.155 395.269 123.387C395.163 123.502 394.671 123.763 393.813 124.169C392.945 124.574 392.405 124.835 392.193 124.951C391.971 125.067 391.489 125.385 390.737 125.907C389.985 126.428 389.465 126.776 389.195 126.949C388.925 127.123 388.462 127.471 387.816 127.992C387.17 128.514 386.736 128.977 386.524 129.383C386.302 129.788 385.984 130.281 385.55 130.86C385.117 131.439 384.818 132.019 384.663 132.598C384.5 133.177 384.336 133.843 384.181 134.597C384.017 135.35 383.94 136.132 383.94 136.943C383.94 141.915 386.341 145.932 391.142 149.002C395.944 152.063 401.265 153.598 407.089 153.598C413.568 153.598 418.88 151.745 423.035 148.047C427.19 144.339 429.273 140.119 429.273 135.379L429.283 135.359ZM387.826 69.239C387.826 74.5592 389.368 79.0779 392.444 82.7759C395.519 86.4836 399.106 88.3278 403.213 88.3278C407.32 88.3278 410.907 86.5898 413.654 83.1235C416.412 79.6572 417.781 75.4861 417.781 70.6294C417.781 65.3093 416.238 60.8002 413.163 57.0925C410.087 53.3945 406.491 51.5406 402.393 51.5406C398.296 51.5406 394.7 53.2786 391.952 56.7449C389.195 60.2112 387.826 64.3823 387.826 69.239Z" fill="#4F1705"/>
<path d="M501.331 44.5984C508.562 44.5984 513.749 47.3792 516.873 52.931C520.006 58.4829 521.568 67.0472 521.568 78.6144V97.3556C521.568 103.95 522.002 109.039 522.86 112.63C523.072 113.442 524.479 114.224 527.073 114.977C529.666 115.73 531.498 116.106 532.578 116.106C532.906 116.106 533.118 116.802 533.224 118.192C533.33 119.582 533.272 120.567 533.06 121.147C522.262 120.567 516.487 120.278 515.735 120.278C515.407 120.278 509.748 120.567 498.728 121.147C498.294 120.683 498.082 119.727 498.082 118.279C498.082 116.831 498.294 116.106 498.728 116.106C500.02 116.106 501.833 115.73 504.156 114.977C506.48 114.224 507.743 113.442 507.964 112.63C508.716 109.28 509.102 105.225 509.102 100.484V82.0904C509.102 71.4501 507.723 64.3051 504.976 60.6554C502.228 57.0056 497.986 55.1904 492.259 55.1904C489.019 55.1904 485.809 56.5518 482.627 59.265C479.446 61.9878 477.845 64.3823 477.845 66.4679V97.1818C477.845 103.892 478.279 109.039 479.137 112.63C479.349 113.442 480.757 114.224 483.351 114.977C485.944 115.73 487.776 116.106 488.856 116.106C489.183 116.106 489.396 116.802 489.502 118.192C489.608 119.582 489.559 120.567 489.338 121.147C478.54 120.567 472.765 120.278 472.013 120.278C471.367 120.278 465.476 120.567 454.36 121.147C453.926 120.683 453.714 119.727 453.714 118.279C453.714 116.831 453.926 116.106 454.36 116.106C455.652 116.106 457.57 115.73 460.106 114.977C462.641 114.224 464.02 113.442 464.232 112.63C464.984 109.28 465.37 105.283 465.37 100.658V25.3358C465.37 21.4061 465.042 17.6984 464.396 14.2321C463.856 12.3782 461.099 11.4513 456.134 11.4513H454.678C454.032 11.4513 453.704 10.8141 453.704 9.53955C453.704 7.68571 454.032 6.75879 454.678 6.75879C457.917 6.41119 460.916 5.94773 463.663 5.36841C466.421 4.78908 468.571 4.20976 470.142 3.63043C471.704 3.05111 473.035 2.50075 474.114 1.97935C475.194 1.45796 475.946 1.02347 476.38 0.675873L477.19 0.15448H477.518C477.951 0.15448 478.385 0.473109 478.81 1.11037C479.243 1.74762 479.513 2.35592 479.619 2.93524C478.434 6.64292 477.836 11.6734 477.836 18.0363V56.0497C477.836 56.5132 477.942 56.7449 478.164 56.7449C478.27 56.7449 478.434 56.629 478.646 56.3973C481.017 53.6166 484.392 50.9613 488.769 48.4123C493.146 45.8729 497.321 44.5984 501.322 44.5984H501.331Z" fill="#4F1705"/>
<path d="M551.812 55.7021H542.421C541.881 55.7021 541.611 54.4855 541.611 52.062C541.611 51.3668 541.66 50.9613 541.775 50.8454C544.909 49.3392 548.302 46.2784 551.976 41.6438C553.161 40.1376 554.328 38.4382 555.456 36.5265C556.584 34.6147 557.529 32.9733 558.29 31.5829C559.042 30.1925 559.428 29.4394 559.428 29.3235C562.668 29.3235 564.287 29.6132 564.287 30.1925V47.3695C567.093 47.3695 571.354 47.3985 577.081 47.4564C582.798 47.5143 585.825 47.5433 586.153 47.5433C587.011 47.5433 587.445 48.0647 587.445 49.1075C587.445 51.193 586.905 53.3848 585.825 55.7021H564.287V98.215C564.287 102.84 565.396 106.548 567.604 109.319C569.812 112.099 572.704 113.48 576.271 113.48C579.511 113.48 582.856 112.379 586.308 110.178C586.635 109.946 587.117 110.439 587.763 111.655C588.409 112.872 588.679 113.538 588.573 113.654C586.954 115.508 584.466 117.333 581.121 119.119C577.775 120.915 574.324 121.813 570.756 121.813C565.357 121.813 560.845 119.901 557.23 116.087C553.615 112.273 551.802 106.837 551.802 99.7791V55.7021H551.812Z" fill="#4F1705"/>
<path d="M684.512 44.7722C694.23 44.7722 702.541 48.5378 709.454 56.0497C716.366 63.5713 719.818 72.5991 719.818 83.1235C719.818 93.6479 716.443 102.879 709.695 110.458C702.946 118.038 694.664 121.822 684.84 121.822C675.015 121.822 666.647 118.038 659.734 110.458C652.822 102.879 649.37 93.7734 649.37 83.1235C649.37 72.4736 652.716 63.2816 659.406 55.8759C666.097 48.4702 674.466 44.7722 684.512 44.7722ZM682.728 51.5406C677.002 51.5406 672.335 54.3504 668.72 59.9602C665.104 65.57 663.292 72.4253 663.292 80.5262C663.292 90.0175 665.586 98.1377 670.176 104.906C674.765 111.675 680.135 115.054 686.286 115.054C692.003 115.054 696.698 112.167 700.372 106.374C704.045 100.59 705.877 93.6479 705.877 85.547C705.877 76.1716 703.553 68.1673 698.916 61.5147C694.269 54.8621 688.879 51.5406 682.719 51.5406H682.728Z" fill="#4F1705"/>
<path d="M775.553 1.18669e-05C783.324 1.18669e-05 788.453 2.25938 790.94 6.76846C790.94 14.0583 788.993 17.6984 785.107 17.6984C783.7 17.6984 782.35 16.8004 781.058 15.0045C779.766 13.2086 778.281 11.3934 776.604 9.53957C774.926 7.68573 772.902 6.75881 770.53 6.75881C765.777 6.75881 762.113 9.88716 759.52 16.1342C756.926 22.3813 755.634 29.7291 755.634 38.1776V47.0316C755.634 47.6109 755.904 47.9006 756.444 47.9006H774.415C774.955 47.9006 775.225 48.3061 775.225 49.1171C775.225 50.971 774.579 53.2786 773.278 56.0594H756.598C755.952 56.0594 755.625 56.407 755.625 57.1022V97.1915C755.625 103.439 756.107 108.585 757.08 112.64C757.293 113.451 758.623 114.233 761.053 114.986C763.482 115.74 765.179 116.116 766.153 116.116C766.481 116.116 766.693 116.811 766.799 118.202C766.905 119.592 766.847 120.577 766.635 121.156C755.837 120.577 750.062 120.287 749.31 120.287C748.982 120.287 743.323 120.577 732.303 121.156C732.081 120.925 731.927 120.374 731.821 119.505C731.715 118.636 731.715 117.854 731.821 117.159C731.927 116.464 732.091 116.116 732.303 116.116C733.595 116.116 735.436 115.74 737.808 114.986C740.18 114.233 741.481 113.451 741.693 112.64C742.773 108.131 743.313 102.985 743.313 97.1915V57.2663C743.313 56.4553 743.043 56.0497 742.503 56.0497H733.923C733.595 56.0497 733.441 55.7021 733.441 55.007C733.441 53.9642 734.299 52.5159 736.034 50.6717C737.76 48.8178 739.601 47.8909 741.539 47.8909H742.513C743.053 47.8909 743.323 47.5433 743.323 46.8481V44.5887C743.323 32.4422 746.697 21.9758 753.446 13.1797C760.195 4.39323 767.56 -0.00964355 775.553 -0.00964355V1.18669e-05Z" fill="#4F1705"/>
<path d="M859.585 6.76846C864.444 6.76846 872.86 6.53673 884.844 6.07327C896.828 5.60981 905.843 5.37808 911.888 5.37808C912.321 8.73817 913.151 13.1604 914.394 18.6543C915.638 24.1482 916.361 27.5952 916.583 28.9759C916.043 29.5553 915.069 29.8449 913.671 29.8449C912.273 29.8449 911.512 29.4394 911.406 28.6283C909.786 22.2654 907.52 18.1908 904.609 16.3949C901.697 14.599 897.696 13.7011 892.625 13.7011H881.778C872.494 13.7011 867.741 14.4542 867.529 15.9604C866.989 18.7412 866.719 23.5979 866.719 30.5401V58.8305C866.719 59.5257 868.985 59.8733 873.516 59.8733H882.097C889.327 59.8733 893.753 59.3229 895.372 58.2222C896.992 57.1215 898.39 53.9738 899.585 48.7695C899.692 48.0744 899.798 47.553 899.913 47.2054C900.019 46.3943 900.829 45.9888 902.343 45.9888C903.635 45.9888 904.551 46.2785 905.1 46.8578V80.5262C904.666 80.9897 903.808 81.2214 902.507 81.2214C901.099 81.2214 900.241 80.758 899.913 79.831C899.152 76.7123 898.506 74.3661 897.966 72.8019C897.426 71.2377 897.021 70.3108 896.751 70.0211C896.481 69.7315 896.018 69.3549 895.372 68.8914C893.965 67.9645 888.248 67.5011 878.211 67.5011C870.546 67.5011 866.709 68.0225 866.709 69.0652V96.4866C866.709 103.197 867.191 108.575 868.165 112.621C868.377 113.432 869.891 114.214 872.696 114.967C875.502 115.72 877.45 116.097 878.529 116.097C878.963 116.097 879.175 116.966 879.175 118.704C879.175 119.631 879.069 120.442 878.847 121.137C868.049 120.558 861.792 120.268 860.067 120.268C859.527 120.268 853.048 120.558 840.63 121.137C840.196 120.673 839.984 119.804 839.984 118.53C839.984 116.908 840.196 116.097 840.63 116.097C842.028 116.097 844.111 115.749 846.868 115.054C849.625 114.359 851.158 113.548 851.486 112.621C852.238 109.502 852.624 104.288 852.624 96.9984V30.1925C852.624 23.3661 852.248 18.3936 851.486 15.2652C851.158 14.3383 849.567 13.4693 846.704 12.6583C843.841 11.8472 841.71 11.4417 840.312 11.4417C839.878 11.4417 839.666 10.7465 839.666 9.35612C839.666 7.84987 839.878 6.87467 840.312 6.40156C845.923 6.63329 852.344 6.74915 859.585 6.74915V6.76846Z" fill="#4F1705"/>
<path d="M953.094 6.59466C954.82 6.59466 961.087 6.305 971.875 5.72567C972.087 6.42086 972.203 7.23192 972.203 8.15884C972.203 9.89681 971.981 10.7658 971.557 10.7658C970.477 10.7658 968.53 11.1713 965.724 11.9824C962.918 12.7934 961.405 13.6045 961.193 14.4156C960.219 18.4708 959.737 23.8489 959.737 30.5498V69.2487C959.737 82.3221 962.33 92.7307 967.508 100.484C972.695 108.237 980.031 112.109 989.528 112.109C1007.99 112.109 1017.22 99.0936 1017.22 73.0626V29.6711C1017.22 22.613 1016.84 17.5246 1016.08 14.3962C1015.75 13.4693 1013.89 12.5714 1010.5 11.7024C1007.09 10.8334 1004.69 10.3989 1003.3 10.3989C1002.86 10.3989 1002.65 9.73267 1002.65 8.40022C1002.65 7.06777 1002.86 6.16982 1003.3 5.70636C1004.69 5.82222 1007.51 6.02499 1011.71 6.31465C1015.93 6.60431 1019.48 6.74915 1022.4 6.74915C1025.33 6.74915 1028.75 6.57535 1033.01 6.22775C1037.27 5.88016 1039.79 5.70636 1040.54 5.70636C1040.75 6.40155 1040.87 7.27054 1040.87 8.31332C1040.87 9.7037 1040.65 10.3989 1040.22 10.3989C1039.14 10.3989 1036.79 10.8624 1033.17 11.7893C1029.56 12.7162 1027.64 13.5852 1027.43 14.3962C1026.56 17.9881 1026.14 23.3661 1026.14 30.5305V72.6957C1026.14 90.6258 1022.63 103.091 1015.61 110.091C1008.59 117.091 998.6 120.587 985.652 120.587C972.704 120.587 962.928 116.541 956.015 108.44C949.103 100.339 945.651 87.2657 945.651 69.2197V29.8449C945.651 22.6709 945.275 17.5246 944.514 14.3962C944.186 13.4693 942.653 12.6293 939.895 11.8762C937.138 11.1231 935.065 10.7465 933.658 10.7465C933.224 10.7465 933.012 9.99337 933.012 8.48712C933.012 7.09674 933.224 6.16982 933.658 5.70636C946.075 6.28569 952.545 6.57535 953.094 6.57535V6.59466Z" fill="#4F1705"/>
<path d="M1076.25 6.76846C1078.41 6.76846 1080.51 6.71052 1082.56 6.59466C1084.62 6.47879 1086.83 6.33396 1089.21 6.16016C1091.58 5.98637 1093.53 5.84154 1095.04 5.72567C1095.25 6.42086 1095.37 7.28985 1095.37 8.33263C1095.37 9.95475 1095.15 10.7658 1094.72 10.7658C1093.64 10.7658 1091.69 11.1713 1088.89 11.9824C1086.08 12.7934 1084.57 13.6045 1084.36 14.4156C1083.38 18.4708 1082.9 23.8489 1082.9 30.5498V105.852C1082.9 120.432 1079.09 133.1 1071.49 143.856C1063.88 154.612 1054.18 159.99 1042.42 159.99C1041.23 159.99 1039.94 159.759 1038.53 159.295C1037.14 158.832 1036 158.368 1035.13 157.905L1033.99 157.21C1032.7 155.587 1032.04 153.444 1032.04 150.789C1032.04 148.133 1033.05 146.164 1035.04 144.542C1037.04 142.92 1039.39 142.108 1042.09 142.108C1044.04 142.108 1046.22 143.354 1048.65 145.835C1051.08 148.327 1053 149.562 1054.39 149.562C1055.91 149.562 1057.44 148.751 1059.01 147.129C1060.57 145.507 1062.12 143.142 1063.63 140.013C1065.14 136.895 1066.39 132.463 1067.35 126.737C1068.32 121.011 1068.81 114.504 1068.81 107.214V29.8449C1068.81 22.6709 1068.43 17.5246 1067.67 14.3962C1067.34 13.4693 1065.81 12.6293 1063.05 11.8762C1060.29 11.1231 1058.22 10.7465 1056.81 10.7465C1056.38 10.7465 1056.17 9.99337 1056.17 8.48712C1056.17 7.09674 1056.38 6.16982 1056.81 5.70636C1058.21 5.82222 1061.07 6.02499 1065.39 6.31465C1069.71 6.60431 1073.33 6.74915 1076.24 6.74915L1076.25 6.76846Z" fill="#4F1705"/>
<path d="M1125.95 29.8449C1125.95 22.6709 1125.57 17.5246 1124.81 14.3962C1124.48 13.4693 1122.95 12.6293 1120.19 11.8762C1117.44 11.1231 1115.36 10.7465 1113.96 10.7465C1113.52 10.7465 1113.31 9.99337 1113.31 8.48712C1113.31 7.09674 1113.52 6.16982 1113.96 5.70636C1126.37 6.28569 1132.84 6.57535 1133.39 6.57535C1135.12 6.57535 1141.39 6.28569 1152.17 5.70636C1152.39 6.40155 1152.5 7.27054 1152.5 8.31332C1152.5 9.93543 1152.28 10.7465 1151.86 10.7465C1150.78 10.7465 1148.83 11.152 1146.02 11.9631C1143.22 12.7741 1141.7 13.5852 1141.49 14.3962C1140.52 18.4515 1140.04 23.8296 1140.04 30.5305V96.4866C1140.04 103.197 1140.52 108.575 1141.49 112.621C1141.7 113.432 1143.22 114.214 1146.02 114.967C1148.83 115.72 1150.78 116.097 1151.86 116.097C1152.29 116.097 1152.5 116.966 1152.5 118.704C1152.5 119.631 1152.4 120.442 1152.17 121.137C1141.38 120.558 1135.12 120.268 1133.39 120.268C1132.85 120.268 1126.37 120.558 1113.96 121.137C1113.52 120.673 1113.31 119.804 1113.31 118.53C1113.31 116.908 1113.52 116.097 1113.96 116.097C1115.35 116.097 1117.44 115.749 1120.19 115.054C1122.95 114.359 1124.48 113.548 1124.81 112.621C1125.56 109.502 1125.95 104.356 1125.95 97.1722V29.8449Z" fill="#4F1705"/>
<path d="M1188.3 6.76844C1189.59 6.76844 1196.72 6.42085 1209.67 5.72566C1209.89 6.18912 1209.97 7.08707 1209.91 8.41952C1209.86 9.75197 1209.67 10.4182 1209.35 10.4182C1207.5 10.4182 1205.43 10.9106 1203.11 11.8955C1200.78 12.8803 1199.63 14.3576 1199.63 16.3177C1199.63 17.5922 1200.22 19.3301 1201.41 21.5219L1219.55 58.3091C1220.09 58.8884 1220.63 58.7725 1221.17 57.9615C1235.85 34.1319 1243.19 20.1895 1243.19 16.1439C1243.19 14.8693 1242.11 13.6045 1239.95 12.33C1237.79 11.0555 1235.15 10.4182 1232.01 10.4182C1231.58 10.4182 1231.37 9.75197 1231.37 8.41952C1231.37 7.08707 1231.58 6.18912 1232.01 5.72566C1244 6.42085 1250.37 6.76844 1251.12 6.76844C1254.47 6.76844 1257.92 6.59465 1261.48 6.24705C1265.05 5.89946 1267.32 5.72566 1268.28 5.72566C1268.49 6.42085 1268.61 7.28984 1268.61 8.33262C1268.61 9.723 1268.39 10.4182 1267.96 10.4182C1266.67 10.4182 1264.4 10.9396 1261.17 11.9824C1257.93 13.0252 1255.77 14.2997 1254.69 15.7963C1250.58 22.6226 1244.62 32.9733 1236.79 46.8578C1228.97 60.7423 1225.05 68.4956 1225.05 70.108V96.4866C1225.05 103.661 1225.48 109.039 1226.34 112.621C1226.55 113.432 1228.01 114.272 1230.72 115.141C1233.42 116.01 1235.25 116.444 1236.23 116.444C1236.66 116.444 1236.87 117.198 1236.87 118.704C1236.87 119.631 1236.76 120.442 1236.54 121.137C1225.75 120.558 1219.7 120.268 1218.41 120.268C1218.08 120.268 1211.72 120.558 1199.3 121.137C1198.87 120.673 1198.65 119.862 1198.65 118.704C1198.65 117.198 1198.87 116.444 1199.3 116.444C1200.59 116.444 1202.57 116.039 1205.21 115.228C1207.85 114.417 1209.34 113.548 1209.66 112.621C1210.52 109.039 1210.96 103.487 1210.96 95.9652V74.2695C1210.96 72.6474 1209.79 69.4418 1207.48 64.643C1205.15 59.8443 1198.43 46.7419 1187.32 25.3358C1185.59 21.8695 1184.26 19.4653 1183.34 18.1329C1182.43 16.8004 1181.1 15.5066 1179.37 14.2321C1178.19 13.3052 1176.4 12.4362 1174.03 11.6251C1171.66 10.8141 1169.92 10.4085 1168.84 10.4085C1168.41 10.4085 1168.2 9.77128 1168.2 8.49677C1168.2 7.10638 1168.41 6.17946 1168.84 5.716C1170.57 5.83187 1173.48 6.03463 1177.59 6.3243C1181.69 6.61396 1185.25 6.75879 1188.28 6.75879L1188.3 6.76844Z" fill="#4F1705"/>
<path d="M1312.25 6.07326L1344.64 97.7032C1346.59 103.139 1348.15 107.31 1349.33 110.197C1349.98 111.935 1351.66 113.355 1354.36 114.446C1357.06 115.546 1359.05 116.097 1360.34 116.097C1360.78 116.097 1360.99 117.198 1360.99 119.389C1360.99 119.853 1360.88 120.432 1360.66 121.127C1349.86 120.548 1343.93 120.258 1342.85 120.258C1342.74 120.258 1336.47 120.548 1324.07 121.127C1323.63 120.664 1323.44 119.708 1323.5 118.26C1323.54 116.811 1323.8 116.087 1324.23 116.087C1325.52 116.087 1327.14 115.797 1329.09 115.218C1331.04 114.639 1332.16 113.886 1332.49 112.959C1332.7 112.032 1332.82 111.105 1332.82 110.178C1332.82 108.672 1332.63 106.914 1332.25 104.887C1331.87 102.859 1331.52 101.276 1331.2 100.117L1330.55 98.2053L1323.91 78.5951C1323.58 78.1317 1323.26 77.8999 1322.94 77.8999C1318.72 77.5524 1314.63 77.3785 1310.63 77.3785C1305.01 77.3785 1298.16 77.6682 1290.06 78.2475L1289.25 78.7689L1282.29 97.8577C1280.45 103.641 1279.53 107.639 1279.53 109.83C1279.53 111.453 1279.97 112.611 1280.82 113.297C1281.8 114.108 1283.36 114.774 1285.52 115.295C1287.68 115.817 1289.24 116.077 1290.22 116.077C1290.54 116.077 1290.73 116.773 1290.78 118.163C1290.83 119.553 1290.76 120.538 1290.54 121.118C1279.75 120.538 1274.19 120.249 1273.86 120.249C1271.7 120.249 1269.81 120.307 1268.19 120.422C1266.58 120.538 1264.76 120.654 1262.77 120.77C1260.77 120.886 1258.85 121.002 1257.02 121.118C1256.59 120.654 1256.38 119.785 1256.38 118.511C1256.38 116.889 1256.59 116.077 1257.02 116.077C1258.31 116.077 1259.99 115.788 1262.04 115.208C1264.1 114.629 1265.5 113.818 1266.26 112.775C1268.52 109.657 1271.06 104.211 1273.86 96.4673L1302.04 18.8957C1302.26 18.3163 1302.56 17.3894 1302.93 16.1149C1303.31 14.8404 1303.61 13.8845 1303.82 13.2472C1304.03 12.61 1304.36 11.7989 1304.79 10.8141C1305.23 9.82922 1305.6 9.10506 1305.93 8.6416C1306.26 8.17814 1306.66 7.65675 1307.15 7.07742C1307.63 6.4981 1308.17 6.09257 1308.76 5.86084C1309.35 5.62911 1310.03 5.51324 1310.79 5.51324L1312.25 6.03464L1312.25 6.07326ZM1293.47 68.7176C1299.09 68.9494 1302.92 69.0652 1304.98 69.0652C1309.73 69.0652 1314.64 68.8914 1319.72 68.5438L1320.2 67.6749L1307.08 29.3235L1293.15 68.0224C1293.15 68.4859 1293.25 68.7176 1293.47 68.7176Z" fill="#4F1705"/>
</g>
<defs>
<clipPath id="clip0_1569_33093">
<rect width="1362" height="160" fill="white" transform="translate(-1)"/>
</clipPath>
</defs>
</svg>
