<svg width="421" height="26" viewBox="0 0 421 26" fill="none" xmlns="http://www.w3.org/2000/svg">
<g clip-path="url(#clip0_1714_34899)">
<path d="M17.7099 6.21L17.6399 6.18L16.4299 7.86L16.5499 7.91C18.8899 8.85 20.2699 9.87 21.6199 11.11L21.7099 11.19L22.8599 9.42L22.7899 9.36C21.0499 7.9 19.7699 7.11 17.7299 6.21H17.7099Z" fill="#280901"/>
<path d="M15.87 11.83C13.72 11.83 11.71 12.48 9.67 13.22V9.16L10.1 9.08C12.53 8.65 13.64 8.45 14.77 8.13L14.85 8.11L14.7 5.8L14.58 5.84C12.82 6.4 11.52 6.76 9.76 7.05C9.79 5.87 9.86 4.59 10.26 2.37L10.28 2.28L7.42 1.58V1.72C7.6 3.58 7.6 3.97 7.57 7.36C5.67 7.49 4.59 7.49 2.66 7.49H2.51L3.34 9.67L3.37 9.73H3.44C4.59 9.73 6.37 9.57 7.57 9.46V14.25C6.95 14.56 5.28 15.46 3.65 16.34C2.12 17.16 0.68 17.94 0.12 18.23L0 18.29L1.86 20.21L1.92 20.27L1.99 20.23C2.85 19.68 2.95 19.63 3.08 19.63C3.21 19.63 3.62 19.92 4.88 21.27L4.94 21.33C6.79 23.32 7.48 23.66 8.32 23.66C9.74 23.66 9.74 22.34 9.74 21.46C9.74 21.01 9.73 19.69 9.71 18.35C9.7 17.01 9.68 15.62 9.68 15.06C12.06 13.99 14.15 13.61 15.24 13.61C16.42 13.61 19.48 14.33 19.48 17.63C19.48 19.6 18.14 21.09 16.36 21.09C15.56 21.09 14.92 20.78 14.17 20.37L14.09 20.33L12.8 22.08L12.88 22.14C13.69 22.7 14.62 23.33 16.24 23.33C17.57 23.33 18.88 22.88 19.82 22.1C21 21.12 21.63 19.62 21.63 17.77C21.63 15.57 20.42 11.85 15.87 11.85V11.83ZM7.57 16.26V19.63C7.57 20.42 7.55 20.51 7.33 20.51C6.92 20.51 5.69 19.33 4.73 18.29C5.31 17.79 6.24 17.12 7.57 16.25V16.26Z" fill="#280901"/>
<path d="M36.4901 5.59H38.6501V4.41H44.7201V5.67H46.9101V4.41H54.0501V2.53H46.9101V1.44C47.1801 1.33 47.5001 1.19 47.5001 0.87C47.5001 0.55 47.1701 0.48 46.8301 0.43L44.7301 0.1V2.52H38.6601V1.53L38.7301 1.49C39.1001 1.28 39.3101 1.17 39.3101 0.88C39.3101 0.75 39.2301 0.52 38.7201 0.47L36.5101 0.26V2.51H29.3401V4.39H36.5101V5.57L36.4901 5.59Z" fill="#280901"/>
<path d="M44.8899 18.05H54.2499V16.11H42.7999V14.41H50.0199V6.11H33.4999V14.4H40.6399V16.1H29.1899V18.04H38.5099C35.4999 20.55 33.1099 21.89 29.4799 23.11L29.3299 23.16L31.0899 24.92L31.1499 24.89C34.7999 23.37 37.9999 21.31 40.6399 18.79V25.4H42.7999V18.76C45.4299 21.23 48.8199 23.27 52.6099 24.67L52.6699 24.69L54.3399 23.02L54.1899 22.97C49.6699 21.37 47.1699 19.83 44.8999 18.04L44.8899 18.05ZM35.5199 9.34V7.92H40.6399V9.34H35.5199ZM35.5199 12.53V11.08H40.6399V12.53H35.5199ZM42.7999 9.34V7.92H48.0099V9.34H42.7999ZM42.7999 12.53V11.08H48.0099V12.53H42.7999Z" fill="#280901"/>
<path d="M73.5501 9.49C76.3101 7.47 78.6301 5.67 81.6901 3.02L81.7501 2.96L80.7001 1.27H63.0201V3.46H77.9301L77.2001 4.04C75.8701 5.1 74.7201 6.01 73.1501 7.2L71.2501 6.73V11.41H59.6001V13.6H71.2501V21.7C71.2501 22.36 71.2501 22.89 69.9801 22.89C69.9601 22.89 69.7501 22.89 69.4501 22.87C68.7301 22.84 67.6401 22.8 67.5401 22.8H67.4001L68.2801 25.35H68.3501C72.3401 25.35 73.5501 25.35 73.5501 22.87V13.59H85.0601V11.4H73.5501V9.48V9.49Z" fill="#280901"/>
<path d="M109.76 6.66L109.7 6.58L108.14 7.8L108.21 7.88C108.86 8.67 109.98 10.32 110.61 11.53L110.67 11.64L112.23 10.33L112.19 10.26C111.68 9.33 110.78 7.89 109.77 6.66H109.76Z" fill="#280901"/>
<path d="M99.3399 16.01C99.3399 13.23 100.85 10.53 103.7 8.19C106.05 6.25 108.46 5.05 110.88 4.63L110.97 4.61L110.79 2.22L110.67 2.25C108.64 2.8 107.18 3.15 101.02 3.96C94.9099 4.75 92.8699 4.77 90.4999 4.8H90.3799L90.8499 7.1L90.8699 7.19L90.9699 7.17C94.0899 6.65 100.48 5.74 104.68 5.33C103.21 6.24 102.26 6.94 101.1 8.09C99.2899 9.88 97.1199 12.81 97.1199 16.62C97.1199 22.5 103.18 24.02 105.77 24.66L105.88 24.69L106.76 22.23L106.65 22.21C101.25 21.13 99.3399 19.51 99.3399 16.01Z" fill="#280901"/>
<path d="M107.08 9.06L107.02 8.99L105.38 10.2L105.45 10.28C105.84 10.76 107.15 12.46 107.85 13.9L107.9 14.01L109.46 12.73L109.42 12.66C109.18 12.18 108.3 10.51 107.08 9.06Z" fill="#280901"/>
<path d="M139.5 1.74L139.53 1.72C139.8 1.57 140.17 1.37 140.17 1.06C140.17 0.7 139.73 0.66 139.44 0.63L137.34 0.48V7.94H132.64V1.46C133.17 1.2 133.31 1.07 133.31 0.84C133.31 0.55 133.05 0.52 132.61 0.46L130.4 0.19V7.93H125.64V2.2C126.12 2.02 126.23 1.81 126.23 1.65C126.23 1.27 125.79 1.22 125.53 1.19L123.34 0.98V7.93H119.2V10.09H123.34V25.38H125.64V23.67H142.78V21.57H125.64V10.09H130.4V19.11H132.64V17.32H137.34V19H139.5V10.1H144.23V7.94H139.5V1.74ZM137.34 10.1V15.16H132.64V10.1H137.34Z" fill="#280901"/>
<path d="M170.58 5.26C168.58 3.55 165.84 2.61 162.86 2.61C155.38 2.61 150.92 8.47 150.92 14.13C150.92 18.13 153.3 21.9 155.81 21.9C157.21 21.9 158.66 20.27 160.24 16.92C162.01 13.23 163.1 9.12 163.49 4.71C164.92 4.75 166.23 5.01 167.19 5.45C167.37 5.54 171.56 7.6 171.56 12.61C171.56 15.22 170.28 17.93 168.29 19.5C166.8 20.7 165.22 21.24 164.17 21.59L163.91 21.68L165.26 23.73L165.34 23.7C169.23 22.14 173.86 18.96 173.86 12.6C173.86 9.62 172.73 7.07 170.58 5.24V5.26ZM161.13 4.79C160.99 6.46 160.65 10.14 158.74 14.82C156.95 19.24 156.28 19.24 155.75 19.24C154.68 19.24 153.02 17.02 153.02 14.08C153.02 12.2 153.65 10.42 154.93 8.65C157 5.81 159.21 5.15 161.12 4.79H161.13Z" fill="#280901"/>
<path d="M193.73 1.13C193.96 1.03 194.23 0.87 194.23 0.61C194.23 0.26 193.86 0.23 193.5 0.2L191.43 -0.0100002V6.1H181.49V17.98H183.82V16.52H191.43V25.62H193.73V16.52H201.48V18.12H203.81V6.11H193.73V1.13ZM201.48 8.22V14.43H193.73V8.22H201.48ZM191.43 8.22V14.43H183.82V8.22H191.43Z" fill="#280901"/>
<path d="M229.65 9.4C228.06 10.26 227.43 10.55 224.03 12.06C223.82 11.07 223.32 9.02 220.96 9.02C219.96 9.02 219.27 9.43 218.84 9.78C219.09 9.23 219.33 8.63 219.95 6.94C222.06 6.57 223.7 6.23 227.18 5.3L227.26 5.28L227.11 3.07V2.92L226.97 2.98C225.87 3.5 224.21 4.29 220.75 4.85C220.95 4.28 221.12 3.81 221.27 3.41C221.59 2.52 221.8 1.94 222.01 1.28L222.04 1.17L219.51 0.77L219.49 0.86C219.29 1.82 219.06 2.88 218.34 5.15C218.23 5.15 218.12 5.16 218.01 5.17C217.55 5.2 217.02 5.23 216.21 5.23C214.7 5.23 213.88 5.12 213.01 5.01L212.83 4.99L213.28 7.31L213.3 7.39H213.49C214.26 7.42 215.32 7.46 217.54 7.27C216.38 10.29 215.15 12.19 212.35 15.32L212.27 15.41L214.28 16.55L214.33 16.48C216 14.09 218.28 10.81 220.77 10.81C221.88 10.81 222.11 12.15 222.23 12.92C219.2 14.53 216 16.55 216 20.09C216 24.1 220.5 24.53 222.43 24.53C222.78 24.53 225.91 24.52 228.72 24.02L228.81 24L228.56 21.59L228.44 21.64C226.29 22.49 223.5 22.58 222.4 22.58C220.84 22.58 218.22 22.21 218.22 19.77C218.22 17.73 220.28 16.22 222.27 14.97C222.27 15.23 222.26 15.47 222.25 15.72C222.24 16.34 222.23 16.93 222.19 17.7C222.19 17.93 222.17 18.22 222.15 18.49C222.13 19.02 222.1 19.52 222.1 19.69V19.79H224.29V19.22C224.26 17.43 224.25 16.6 224.12 13.98C225.85 13.22 226.64 12.94 229.81 11.82L230.27 11.66L229.78 9.32L229.66 9.38L229.65 9.4Z" fill="#280901"/>
<path d="M256.05 12.06C256.32 12.06 256.51 12.02 256.62 11.92C256.68 11.86 256.71 11.79 256.71 11.71C256.71 11.62 256.67 11.45 256.38 11.26L255.15 10.52H261.66V8.42H250.94V5.76H258.42V3.68H250.94V1.61C251.38 1.49 251.7 1.38 251.7 1.03C251.7 0.68 251.27 0.63 251.03 0.6L248.64 0.41V3.67H241.28V5.75H248.64V8.41H238V10.51H244.62L243.27 11.24L243.33 11.33C243.96 12.27 244.22 12.74 244.83 13.95H237.68V15.97H248.63V18.46H239.95V20.56H248.63V25.43H251.01V20.56H259.69V18.46H251.01V15.97H261.87V13.95H254.87C255.33 13.23 255.72 12.59 256.03 12.05L256.05 12.06ZM246.83 13.12L246.79 13.03C246.36 12.17 245.81 11.24 245.3 10.51H254.54C253.77 11.85 253.34 12.47 252.81 13.12L252.73 13.21L254.11 13.95H245.21L246.83 13.11V13.12Z" fill="#280901"/>
<path d="M289.38 7.59C288.08 7.89 286.16 8.33 285.44 8.5C285.44 5.48 285.47 4.34 285.52 2.81V2.72L282.67 2.33L282.69 2.46C283.14 5.23 283.25 5.91 283.28 8.91C281.05 9.35 278.7 9.74 276.12 10.11C276.12 9.1 276.15 6.73 276.32 4.27V4.18L273.64 3.84L273.66 3.97C273.98 6.29 274.02 8.64 274.02 10.45C273.56 10.51 272.6 10.62 271.59 10.73C270.38 10.87 269.14 11.01 268.56 11.08H268.46L268.71 13.34L268.82 13.32C269.04 13.28 269.19 13.25 269.32 13.23C269.56 13.19 269.74 13.16 270.2 13.07C270.78 12.97 271.14 12.9 271.71 12.78C272.22 12.68 272.89 12.55 274.03 12.33C274.03 13.46 274.06 18.62 274.17 19.33C274.62 22.78 276.8 22.94 280.63 22.94C282.89 22.94 284.46 22.77 287.78 22.35H287.85L288.34 19.7L288.18 19.75C285.57 20.56 282.54 20.98 279.17 20.98C276.87 20.98 276.16 20.32 276.13 18.17V11.98C276.69 11.88 278.04 11.64 279.47 11.38C281.01 11.11 282.6 10.83 283.29 10.7C283.29 10.97 283.29 11.48 283.3 12C283.3 12.63 283.31 13.27 283.31 13.49V13.54C283.28 14.43 283.25 15.43 281.62 15.43C281.36 15.43 280.3 15.38 279.59 15.29L279.44 15.27L280.01 17.32L280.05 17.39H280.12C282.77 17.45 285.07 17.5 285.27 14.41C285.27 14.34 285.4 11.19 285.44 10.38C288.12 9.95 288.73 9.85 289.2 9.78L289.4 9.75C289.77 9.68 289.99 9.64 290.22 9.61C290.36 9.59 290.51 9.56 290.68 9.53L290.77 9.51L290.52 7.32L289.38 7.58V7.59Z" fill="#280901"/>
<path d="M312.92 19.89C311.01 19.89 309.26 19.72 308.82 17.67C308.77 17.43 308.71 16.13 308.71 15.84V15.72L306.75 16.03V16.12C306.78 21.46 309.06 21.85 312.81 21.85C316.93 21.85 318.52 21.46 319.92 21.12L320 21.1V18.7L319.87 18.74C317.93 19.39 316.18 19.88 312.93 19.88L312.92 19.89Z" fill="#280901"/>
<path d="M308.15 6.31C308.57 6.37 308.86 6.4 309.56 6.4C312.41 6.4 314.47 6.4 318.76 5.67H318.85L318.76 3.22L318.63 3.26C315.95 4.18 313.16 4.43 311.94 4.43C309.76 4.43 308.63 4.26 307.95 4.15L307.82 4.13L308.07 6.3H308.15V6.31Z" fill="#280901"/>
<path d="M302.52 15.59C301.78 17.83 301.51 18.6 301.21 19.36C301.19 19.21 301.17 19.08 301.15 18.9C301.13 18.74 301.1 18.53 301.06 18.24C300.9 17.03 300.75 15.81 300.75 14.25C300.75 12.69 300.92 10.83 301.28 8.72C301.79 5.74 302.3 4.45 302.79 3.2L302.83 3.11L300.5 2.13L300.48 2.25C300.45 2.4 300.43 2.52 300.39 2.74L300.17 3.9C300.06 4.53 300 4.82 299.39 7.4C299.04 8.98 298.74 12.28 298.74 14.62C298.74 18.38 299.38 20.65 300.57 23.53L300.6 23.6L302.48 23.36V23.29C303.24 19.59 303.87 17.9 304.34 16.84L304.37 16.77L302.57 15.47L302.53 15.6L302.52 15.59Z" fill="#280901"/>
<path d="M344.3 14.26C340.85 21.51 336.95 22.3 335.43 22.3C335.07 22.3 333.24 22.21 332.44 20.37C332.29 20.04 332.03 19.48 332.03 16.02C332.03 14.69 332.06 7.77 332.67 2.37V2.28L329.85 1.73L329.87 1.87C330.04 3.12 330.04 4.55 330.04 5.81C330.04 6.38 330.02 8 330 9.71C329.98 11.49 329.96 13.33 329.96 14.01C329.96 18.66 330.02 19.55 330.41 20.82C330.93 22.48 332.55 24.42 335.43 24.42C339.31 24.42 342.93 21.66 346.19 16.22L346.28 16.07L344.36 14.15L344.3 14.28V14.26Z" fill="#280901"/>
<path d="M370 10.26C368.75 10.26 366.64 10.44 365.54 10.57H365.45L365.39 12.76L365.6 12.71C366.29 12.55 367.07 12.37 369.19 12.37C371.04 12.37 371.99 12.5 373.76 12.87L373.88 12.89L373.97 10.73L373.89 10.71C372.68 10.41 371.4 10.26 370 10.26Z" fill="#280901"/>
<path d="M368.34 21.74C365.67 21.74 364.32 21.09 364.32 19.8C364.32 19.06 364.47 18.65 364.62 18.3L364.66 18.21L362.79 17.4L362.75 17.5C362.23 18.95 362.16 19.9 362.16 20.33C362.16 23.48 366.42 23.82 368.25 23.82C370.08 23.82 371.75 23.65 373.5 23.31H373.57L373.88 20.89L373.73 20.93C371.85 21.47 370.03 21.74 368.33 21.74H368.34Z" fill="#280901"/>
<path d="M366.96 7.52V5.2L366.82 5.25C365.78 5.66 364.58 6.11 362.26 6.58L362.59 5.37C363.01 3.83 363.16 3.31 363.45 2.14L363.47 2.06L360.93 1.02V1.16C360.84 3.17 360.21 5.59 359.85 6.93C358.79 7.07 357.8 7.2 356.51 7.2C355.44 7.2 355.05 7.15 354.54 7.06L354.41 7.04L354.66 9.3H354.75C356.47 9.36 357.72 9.28 359.26 9.17C358.66 11.01 357.91 13.3 356.54 16.41C355.09 19.69 354.09 21.14 353.12 22.54L352.97 22.76L355.45 23.37L355.49 23.31C356.42 21.84 357.13 20.62 358.58 17.11C359.99 13.63 360.88 10.87 361.53 8.85C362.65 8.67 364.89 8.29 366.89 7.54L366.95 7.52H366.96Z" fill="#280901"/>
<path d="M399.75 5.64L399.71 5.59L397.61 6.3L397.69 6.41C399.41 8.7 401.33 11.65 402.35 17.59L402.37 17.7L404.75 16.91L404.73 16.82C404.36 15.03 403.23 9.58 399.75 5.63V5.64Z" fill="#280901"/>
<path d="M390.45 15.51C389.53 18.81 388.75 20.48 388.11 20.48C387.14 20.48 384.71 17.7 384.71 11.14C384.71 8.92 385 7.38 385.16 6.55L385.2 6.31L382.59 5.49L382.56 5.84C382.5 6.66 382.41 7.89 382.41 9.66C382.41 13.43 382.82 16.26 383.65 18.32C383.67 18.37 385.41 22.95 388.06 22.95C390.26 22.95 391.66 19.01 392.33 17.12L392.35 17.06L390.5 15.36L390.46 15.52L390.45 15.51Z" fill="#280901"/>
<path d="M416.14 16.73C413.71 16.73 411.73 18.71 411.73 21.14C411.73 23.57 413.71 25.52 416.14 25.52C418.57 25.52 420.55 23.55 420.55 21.14C420.55 18.73 418.57 16.73 416.14 16.73ZM416.14 24.18C414.47 24.18 413.1 22.82 413.1 21.14C413.1 19.46 414.46 18.1 416.14 18.1C417.82 18.1 419.18 19.46 419.18 21.14C419.18 22.82 417.82 24.18 416.14 24.18Z" fill="#280901"/>
</g>
<defs>
<clipPath id="clip0_1714_34899">
<rect width="420.55" height="25.63" fill="white"/>
</clipPath>
</defs>
</svg>
