<svg width="68" height="22" viewBox="0 0 68 22" fill="none" xmlns="http://www.w3.org/2000/svg">
<g clip-path="url(#clip0_1802_6611)">
<path d="M6.18 11.68H10.3V13.23H6.49C7.44 14.5 8.27 15.42 9.28 16.34L8.25 17.45C7.77 17.03 7.24 16.51 6.18 15.12V21.19H4.71V15.12C3.48 17.07 2.58 18.2 1.32 19.36L0 18.49C1.21 17.38 2.77 15.78 4.11 13.24H0.51V11.69H4.71V9.76H0.04V8.28H3.38C2.79 6.73 2.41 5.97 1.88 5.1L3.07 4.37H0.75V2.82H4.71V0.309998L6.23 0.499998C6.34 0.519998 6.6 0.549998 6.6 0.779998C6.6 0.969998 6.51 1.02 6.25 1.18V2.8H10.25V4.35H8.36L9.31 4.89C9.51 5.01 9.66 5.1 9.66 5.31C9.66 5.52 9.48 5.55 9.13 5.59C8.6 6.72 8.21 7.4 7.68 8.25H10.65V9.73H6.18V11.66V11.68ZM7.3 8.27L6.24 7.61C6.81 6.72 7.43 5.7 8.02 4.36H3.21C3.78 5.28 4.38 6.46 4.86 7.66L3.69 8.27H7.3ZM13.11 9.49C13.11 13.59 12.98 17.42 10.49 21.1L8.99 20.3C11.45 17.15 11.5 13.52 11.5 9.87V1.88L13 1.95C13.42 1.95 15 1.69 15.51 1.57C16.72 1.31 17.45 1.05 18 0.839998L19.12 2.23C19.25 2.4 19.34 2.51 19.34 2.63C19.34 2.84 19.16 2.84 19.1 2.84C18.79 2.84 18.35 2.75 17.98 2.65C16.18 3.07 14.7 3.22 13.12 3.36V7.83H19.48V9.48H17.19V21.06H15.65V9.48H13.12L13.11 9.49Z" fill="#280901"/>
<path d="M39.1799 4.52L40.0599 5.16C40.1699 5.25 40.3199 5.37 40.3199 5.51C40.3199 5.75 40.0599 5.75 39.5699 5.75C38.9799 6.76 38.5399 7.35 38.1599 7.85H43.5299V18.77C43.5299 20.7 43.0199 21.08 40.2099 21.15L39.5899 19.27C40.5599 19.36 40.9099 19.36 40.9799 19.36C41.8999 19.36 41.9499 18.98 41.9499 18.28V9.31H36.8499V10.51C36.8499 11.12 37.1099 11.15 37.6399 11.15H38.5599C39.1999 11.15 39.3699 11.06 39.6399 9.93L41.0899 10.54C40.6299 12.09 40.3599 12.52 39.1999 12.52H37.0199C35.9199 12.52 35.3499 12.33 35.3499 11.11V9.32H32.3099L32.8999 9.79C32.9899 9.86 33.0999 9.96 33.0999 10.05C33.0999 10.29 32.8099 10.36 32.4199 10.45C31.5199 11.91 30.5099 12.87 29.2699 13.68L27.9499 12.41C29.6399 11.59 30.5699 10.48 31.2299 9.33H27.0899V21.38H25.4799V7.84H30.8699C30.4699 6.99 29.9899 6.26 29.0399 5.32L30.1199 4.52H24.6599V2.87H33.6599V0L35.5999 0.21C35.7299 0.21 35.9999 0.26 35.9999 0.45C35.9999 0.71 35.7399 0.83 35.3399 0.99V2.87H44.2999V4.52H39.1699H39.1799ZM31.8099 19.31V20.58H30.2499V13.66H38.5699V19.31H31.8199H31.8099ZM30.5299 4.52C31.3699 5.37 31.9799 6.31 32.4199 7.11L31.4999 7.84H37.4399L36.5599 7.04C37.3499 6.22 37.8799 5.56 38.3899 4.52H30.5299ZM36.9999 15.14H31.8099V17.78H36.9999V15.14Z" fill="#280901"/>
<path d="M56.01 21V19.8H51.06V21H49.48V11.46H57.62V21H56.01ZM56.01 18.27V13.04H51.06V18.27H56.01ZM53.17 8.84999V0.98999H64.17V8.84999H53.17ZM62.56 7.19999V2.65999H54.77V7.19999H62.56ZM66.28 20.93V19.8H61.26V20.93H59.68V11.47H67.89V20.93H66.28ZM66.28 18.27V13.04H61.26V18.27H66.28Z" fill="#280901"/>
</g>
<defs>
<clipPath id="clip0_1802_6611">
<rect width="67.89" height="21.35" fill="white"/>
</clipPath>
</defs>
</svg>
