<svg width="162" height="158" viewBox="0 0 162 158" fill="none" xmlns="http://www.w3.org/2000/svg">
<path d="M137.48 22.5691C137.87 22.1391 138.13 21.7791 138.24 21.4791C138.29 21.3491 138.22 21.1391 138.04 20.8791C137.86 20.6091 137.7 20.4191 137.57 20.2991C137.54 20.2691 137.57 20.1891 137.68 20.0691C137.78 19.9491 137.86 19.8791 137.92 19.8691C138.74 20.7191 139.23 21.2091 139.38 21.3491C139.59 21.5391 139.88 21.7791 140.24 22.0491C140.6 22.3191 140.82 22.4991 140.9 22.5691C140.89 22.6191 140.84 22.6891 140.75 22.7891C140.63 22.9291 140.55 22.9791 140.51 22.9491C140.4 22.8491 140.19 22.7191 139.9 22.5591C139.61 22.4091 139.38 22.3491 139.21 22.3891C138.92 22.5291 138.57 22.8291 138.16 23.2791L133.96 27.9091C133.69 28.1991 133.19 28.7891 132.46 29.6591C132.4 29.6591 132.29 29.5991 132.15 29.4691C132.02 29.3491 131.97 29.1391 132.01 28.8291L133.01 17.9691L128.52 22.9091C128.08 23.3991 127.81 23.7591 127.71 23.9991C127.66 24.1291 127.74 24.3491 127.93 24.6591C128.13 24.9691 128.28 25.1691 128.39 25.2591C128.41 25.2791 128.38 25.3491 128.28 25.4691C128.18 25.5891 128.1 25.6591 128.05 25.6891C127.12 24.7491 126.63 24.2691 126.59 24.2291C126.37 24.0291 126.09 23.7891 125.75 23.5191C125.41 23.2491 125.18 23.0691 125.07 22.9791C125.07 22.9191 125.11 22.8291 125.21 22.7291C125.33 22.5991 125.4 22.5491 125.44 22.5791C125.58 22.7091 125.79 22.8391 126.08 22.9891C126.37 23.1391 126.6 23.1791 126.78 23.1191C127.02 23.0191 127.37 22.7191 127.83 22.1991L132.18 17.4091C132.58 16.9691 132.8 16.6291 132.86 16.3991C132.88 16.3091 132.79 16.1291 132.58 15.8591C132.37 15.5891 132.22 15.3991 132.1 15.2891C132.07 15.2591 132.1 15.1791 132.21 15.0591C132.32 14.9291 132.4 14.8691 132.46 14.8691C133.28 15.6891 133.74 16.1491 133.86 16.2491C134.13 16.4891 134.51 16.8091 135.01 17.1891C134.9 17.6191 134.79 18.3091 134.68 19.2591C134.57 20.2091 134.45 21.4791 134.31 23.0691C134.17 24.6591 134.07 25.7491 134.01 26.3491C134.12 26.2691 134.27 26.1091 134.49 25.8691L137.51 22.5491L137.48 22.5691Z" fill="#280901"/>
<path d="M143.35 31.2899C143.67 31.6999 143.87 32.1199 143.96 32.5699C144.05 33.0199 144.04 33.4299 143.94 33.7999C143.84 34.1799 143.69 34.5099 143.5 34.8199C143.31 35.1199 143.09 35.3699 142.85 35.5599C142.66 35.7099 142.52 35.7699 142.42 35.7399C142.32 35.7099 142.19 35.5999 142.04 35.3999L139.61 32.2899C139.56 32.2299 139.51 32.2199 139.46 32.2599C139.15 32.4999 138.89 32.7999 138.68 33.1399C138.47 33.4799 138.37 33.8799 138.36 34.3199C138.36 34.7599 138.5 35.1699 138.8 35.5599C138.9 35.6899 139.01 35.8099 139.11 35.9199C139.22 36.0299 139.33 36.1299 139.44 36.2099C139.55 36.2899 139.65 36.3599 139.74 36.4199C139.83 36.4799 139.93 36.5299 140.04 36.5699C140.16 36.6099 140.24 36.6399 140.29 36.6599C140.34 36.6799 140.46 36.7199 140.67 36.7799C140.67 36.7999 140.67 36.8499 140.64 36.9099C140.62 36.9699 140.58 37.0199 140.54 37.0499C140.44 37.1199 140.34 37.1599 140.23 37.1699C139.89 37.2199 139.46 37.1499 138.93 36.9499C138.4 36.7499 137.95 36.4099 137.57 35.9399C136.98 35.1899 136.75 34.3199 136.89 33.3399C137.02 32.3599 137.49 31.5499 138.28 30.9299C139.16 30.2499 140.06 29.9399 141.01 30.0299C141.95 30.1099 142.73 30.5399 143.34 31.3199L143.35 31.2899ZM142.68 31.6699C142.52 31.4599 142.31 31.3199 142.06 31.2499C141.81 31.1799 141.56 31.1699 141.32 31.2199C141.08 31.2699 140.87 31.3299 140.69 31.4099C140.51 31.4899 140.36 31.5699 140.26 31.6499C140.2 31.6999 140.19 31.7499 140.23 31.7999L141.87 33.9099C141.93 33.9899 142.03 33.9799 142.16 33.8699C142.46 33.6299 142.69 33.2899 142.84 32.8399C142.99 32.3899 142.94 31.9999 142.67 31.6599L142.68 31.6699Z" fill="#280901"/>
<path d="M151.52 46.9595C151.64 46.8995 151.72 46.8095 151.76 46.6895C151.8 46.5695 151.81 46.4395 151.78 46.2995C151.75 46.1595 151.72 46.0395 151.68 45.9295C151.64 45.8195 151.6 45.7195 151.54 45.6195L151.51 45.5595C151.51 45.5595 151.55 45.4595 151.69 45.3795C151.83 45.2995 151.93 45.2595 151.97 45.2795C152.04 45.4095 152.16 45.6695 152.33 46.0795C152.5 46.4795 152.65 46.7995 152.78 47.0395C152.89 47.2395 153.04 47.4995 153.23 47.7995C153.43 48.0995 153.56 48.3195 153.64 48.4695C153.58 48.5295 153.5 48.5795 153.41 48.6295C153.26 48.7095 153.18 48.7295 153.16 48.6895C153.1 48.5695 152.94 48.4095 152.67 48.2095C152.41 48.0095 152.17 47.9195 151.96 47.9395L145.67 48.4795C145.57 48.4795 145.47 48.4495 145.35 48.3895C145.23 48.3295 145.16 48.2495 145.11 48.1595C145.06 48.0595 145.06 47.9795 145.11 47.9195L148.21 44.0195L143.58 44.4595C143.51 44.4595 143.41 44.4395 143.29 44.3995C143.17 44.3595 143.08 44.2695 143.01 44.1495C142.96 44.0495 142.96 43.9695 143.01 43.8895C143.4 43.3995 143.88 42.8095 144.44 42.1195C145 41.4295 145.5 40.8195 145.92 40.2695C146.34 39.7195 146.79 39.1195 147.27 38.4395C147.36 38.3095 147.39 38.1295 147.36 37.9095C147.33 37.6895 147.28 37.5195 147.22 37.3895C147.2 37.3495 147.27 37.2895 147.42 37.2095C147.56 37.1395 147.65 37.1095 147.7 37.1395C147.75 37.2395 147.87 37.4895 148.04 37.8995C148.21 38.3095 148.37 38.6295 148.48 38.8495C148.6 39.0695 148.79 39.3995 149.04 39.8195C149.29 40.2395 149.45 40.4895 149.48 40.5595C149.44 40.5995 149.36 40.6595 149.23 40.7295C149.1 40.7995 149.03 40.8195 149 40.7895C148.93 40.6595 148.81 40.5095 148.63 40.3395C148.45 40.1695 148.3 40.1195 148.16 40.1895C148.14 40.1995 147.28 41.2695 145.57 43.4095C145.9 43.3695 146.27 43.3395 146.69 43.2995C147.11 43.2595 147.43 43.2295 147.65 43.2095C147.87 43.1895 148.09 43.1695 148.31 43.1395C148.53 43.1095 148.7 43.0895 148.81 43.0795C148.92 43.0595 148.99 43.0395 149.02 43.0295C149.21 42.9295 149.38 42.7595 149.5 42.5295C149.56 42.4095 149.58 42.2595 149.57 42.0895C149.57 41.9495 149.51 41.7595 149.38 41.5195C149.36 41.4795 149.42 41.4195 149.56 41.3495C149.7 41.2795 149.8 41.2495 149.85 41.2695C149.91 41.3795 150.02 41.6295 150.18 42.0195C150.35 42.4095 150.49 42.7195 150.62 42.9595C150.73 43.1695 150.91 43.4795 151.16 43.8895C151.41 44.2895 151.55 44.5295 151.59 44.6095C151.56 44.6495 151.47 44.6995 151.33 44.7695C151.19 44.8395 151.11 44.8595 151.09 44.8295C150.83 44.3295 150.53 44.1695 150.19 44.3495C150.01 44.4495 149.16 45.4695 147.67 47.4195C148.16 47.3595 148.74 47.2995 149.41 47.2395C150.08 47.1795 150.58 47.1295 150.9 47.0995C151.22 47.0695 151.42 47.0295 151.5 46.9895L151.52 46.9595Z" fill="#280901"/>
<path d="M158.24 60.2795C159.05 60.1195 159.8 60.3295 160.49 60.8995C161.18 61.4695 161.61 62.1795 161.78 63.0295C161.84 63.3295 161.88 63.5995 161.89 63.8295C161.9 64.0595 161.89 64.3895 161.87 64.8195C161.85 65.2395 161.83 65.5395 161.83 65.6895C161.12 65.9595 160.3 66.1895 159.38 66.3695C159.28 66.3695 159.22 66.3095 159.2 66.1995C159.14 65.9095 159.16 65.7395 159.25 65.6995C159.73 65.5395 160.17 65.2095 160.57 64.7195C160.97 64.2295 161.11 63.6995 161 63.1195C160.9 62.6195 160.69 62.2695 160.35 62.0595C160.02 61.8495 159.61 61.7895 159.14 61.8895C158.98 61.9195 158.83 61.9695 158.69 62.0395C158.55 62.1095 158.42 62.2095 158.31 62.3495C158.19 62.4895 158.09 62.6095 158.02 62.6895C157.94 62.7795 157.85 62.9395 157.75 63.1595C157.65 63.3895 157.58 63.5395 157.54 63.6195C157.5 63.6995 157.43 63.8795 157.32 64.1695C157.21 64.4595 157.15 64.6295 157.14 64.6795C157.1 64.7595 157.02 64.9595 156.9 65.2895C156.78 65.6195 156.69 65.8495 156.63 65.9895C156.57 66.1195 156.47 66.3195 156.32 66.5895C156.17 66.8495 156.02 67.0495 155.87 67.1895C155.72 67.3295 155.52 67.4595 155.27 67.5995C155.02 67.7395 154.75 67.8395 154.45 67.8995C153.59 68.0695 152.81 67.8595 152.11 67.2795C151.41 66.6895 150.97 65.9395 150.79 65.0295C150.66 64.3795 150.62 63.3595 150.66 61.9595C151.03 61.7895 151.5 61.5995 152.07 61.4095C152.64 61.2195 153.02 61.0995 153.2 61.0595C153.29 61.0595 153.35 61.1295 153.38 61.2895C153.43 61.5695 153.42 61.7395 153.34 61.7795C153.15 61.8595 152.96 61.9795 152.75 62.1295C152.54 62.2795 152.32 62.4795 152.09 62.7195C151.86 62.9595 151.7 63.2595 151.59 63.6095C151.48 63.9595 151.47 64.3395 151.55 64.7395C151.65 65.2495 151.88 65.6395 152.25 65.9095C152.62 66.1795 153.1 66.2595 153.71 66.1395C153.89 66.0995 154.06 66.0295 154.22 65.9295C154.38 65.8295 154.51 65.7195 154.61 65.5995C154.71 65.4795 154.81 65.3195 154.92 65.1195C155.02 64.9095 155.1 64.7395 155.16 64.6095C155.21 64.4795 155.28 64.2795 155.37 64.0195C155.46 63.7595 155.52 63.5795 155.56 63.4695C155.59 63.4295 155.62 63.3595 155.65 63.2695C155.78 62.9195 155.89 62.6495 155.96 62.4695C156.03 62.2895 156.15 62.0495 156.32 61.7495C156.48 61.4595 156.64 61.2195 156.8 61.0595C156.96 60.8895 157.16 60.7295 157.41 60.5795C157.66 60.4195 157.94 60.3195 158.25 60.2495L158.24 60.2795Z" fill="#280901"/>
<path d="M158.35 81.6696C158.48 81.6696 158.59 81.6196 158.69 81.5296C158.79 81.4396 158.85 81.3296 158.88 81.1896C158.91 81.0496 158.94 80.9296 158.96 80.8096C158.98 80.6896 158.98 80.5796 158.98 80.4696V80.3996C158.98 80.3996 159.06 80.3296 159.23 80.3196C159.4 80.3096 159.49 80.3196 159.53 80.3596C159.53 80.4996 159.53 80.7896 159.49 81.2296C159.46 81.6696 159.45 82.0196 159.46 82.2896C159.46 82.5196 159.48 82.8096 159.52 83.1696C159.56 83.5296 159.58 83.7896 159.58 83.9496C159.5 83.9696 159.41 83.9896 159.3 83.9896C159.13 83.9896 159.05 83.9696 159.05 83.9296C159.05 83.7996 158.97 83.5796 158.83 83.2796C158.69 82.9796 158.52 82.7896 158.32 82.7196L152.46 80.3696C152.37 80.3296 152.29 80.2496 152.22 80.1496C152.15 80.0496 152.11 79.9396 152.11 79.8296C152.11 79.7196 152.15 79.6496 152.22 79.6096L156.74 77.5196L152.41 75.8296C152.34 75.7996 152.27 75.7396 152.18 75.6396C152.09 75.5496 152.04 75.4296 152.04 75.2896C152.04 75.1796 152.08 75.0996 152.15 75.0596C152.72 74.7996 153.41 74.4896 154.22 74.1296C155.03 73.7696 155.75 73.4396 156.37 73.1496C156.99 72.8596 157.67 72.5096 158.4 72.1296C158.54 72.0496 158.65 71.9096 158.72 71.6996C158.79 71.4896 158.83 71.3096 158.83 71.1696C158.83 71.1296 158.92 71.0996 159.09 71.0996C159.24 71.0996 159.34 71.1196 159.37 71.1596C159.37 71.2696 159.37 71.5496 159.33 71.9896C159.3 72.4396 159.29 72.7796 159.3 73.0396C159.3 73.2896 159.33 73.6696 159.37 74.1596C159.41 74.6496 159.43 74.9396 159.43 75.0196C159.38 75.0396 159.28 75.0596 159.13 75.0596C158.99 75.0596 158.91 75.0496 158.9 75.0096C158.9 74.8696 158.86 74.6796 158.78 74.4396C158.7 74.1996 158.58 74.0896 158.43 74.0896C158.41 74.0896 157.15 74.6596 154.66 75.7996C154.97 75.9196 155.32 76.0496 155.71 76.1996C156.1 76.3496 156.4 76.4696 156.61 76.5496C156.82 76.6296 157.02 76.7096 157.23 76.7896C157.44 76.8696 157.6 76.9196 157.7 76.9596C157.81 76.9896 157.87 77.0096 157.91 77.0096C158.13 77.0096 158.35 76.9296 158.57 76.7796C158.68 76.6996 158.77 76.5796 158.83 76.4096C158.89 76.2896 158.92 76.0896 158.92 75.8096C158.92 75.7696 159 75.7396 159.16 75.7396C159.32 75.7396 159.42 75.7596 159.45 75.7996C159.45 75.9196 159.45 76.1896 159.41 76.6196C159.38 77.0396 159.37 77.3896 159.38 77.6496C159.38 77.8896 159.41 78.2496 159.45 78.7196C159.49 79.1896 159.51 79.4696 159.51 79.5596C159.47 79.5796 159.36 79.5896 159.21 79.5896C159.05 79.5896 158.97 79.5696 158.97 79.5396C158.97 78.9796 158.76 78.6996 158.38 78.7096C158.17 78.7096 156.96 79.2496 154.74 80.3196C155.2 80.4896 155.75 80.6996 156.37 80.9396C156.99 81.1796 157.46 81.3696 157.76 81.4896C158.06 81.6096 158.26 81.6596 158.35 81.6596V81.6696Z" fill="#280901"/>
<path d="M158.49 91.4793C158.41 91.9893 158.23 92.4293 157.96 92.7993C157.69 93.1693 157.39 93.4393 157.04 93.6193C156.69 93.7993 156.34 93.9193 155.99 93.9793C155.64 94.0393 155.31 94.0493 155.01 93.9993C154.77 93.9593 154.63 93.8993 154.58 93.7993C154.53 93.7093 154.53 93.5393 154.58 93.2893L155.22 89.3993C155.23 89.3193 155.21 89.2793 155.14 89.2693C154.75 89.2093 154.36 89.2093 153.97 89.2893C153.58 89.3693 153.22 89.5593 152.89 89.8593C152.56 90.1593 152.36 90.5393 152.28 91.0193C152.25 91.1793 152.24 91.3393 152.23 91.4993C152.23 91.6493 152.23 91.7993 152.24 91.9393C152.26 92.0793 152.27 92.1993 152.29 92.2993C152.31 92.3993 152.34 92.5093 152.39 92.6293C152.44 92.7393 152.47 92.8193 152.49 92.8693C152.51 92.9193 152.57 93.0393 152.66 93.2293C152.65 93.2493 152.61 93.2693 152.55 93.2993C152.49 93.3193 152.43 93.3293 152.38 93.3193C152.26 93.2993 152.16 93.2493 152.09 93.1693C151.82 92.9593 151.58 92.5893 151.37 92.0693C151.16 91.5393 151.1 90.9793 151.19 90.3893C151.35 89.4493 151.83 88.6893 152.64 88.1193C153.45 87.5493 154.36 87.3493 155.35 87.5093C156.45 87.6893 157.28 88.1493 157.86 88.8993C158.44 89.6493 158.65 90.5093 158.49 91.4893V91.4793ZM157.76 91.2393C157.8 90.9793 157.76 90.7293 157.65 90.4993C157.53 90.2693 157.37 90.0793 157.17 89.9393C156.97 89.7993 156.78 89.6793 156.6 89.5993C156.42 89.5193 156.26 89.4693 156.13 89.4493C156.05 89.4393 156.01 89.4593 156 89.5293L155.57 92.1693C155.55 92.2693 155.63 92.3293 155.79 92.3593C156.17 92.4193 156.58 92.3593 157.01 92.1693C157.44 91.9793 157.69 91.6693 157.76 91.2493V91.2393Z" fill="#280901"/>
<path d="M155.81 102.469C155.65 102.959 155.41 103.369 155.1 103.699C154.78 104.029 154.44 104.249 154.07 104.369C153.7 104.489 153.34 104.559 152.98 104.579C152.62 104.599 152.3 104.549 152.01 104.459C151.78 104.389 151.65 104.299 151.62 104.199C151.59 104.099 151.62 103.929 151.69 103.689L152.89 99.9393C152.91 99.8693 152.89 99.8193 152.83 99.7993C152.45 99.6793 152.06 99.6293 151.66 99.6493C151.26 99.6693 150.88 99.8093 150.51 100.049C150.14 100.299 149.89 100.649 149.74 101.109C149.69 101.269 149.65 101.419 149.62 101.569C149.59 101.719 149.57 101.869 149.57 101.999C149.57 102.139 149.57 102.259 149.57 102.359C149.57 102.459 149.59 102.579 149.62 102.699C149.65 102.819 149.67 102.899 149.69 102.949C149.7 102.999 149.74 103.129 149.8 103.329C149.78 103.349 149.74 103.359 149.68 103.379C149.62 103.399 149.56 103.389 149.51 103.379C149.39 103.339 149.3 103.279 149.24 103.189C149.01 102.939 148.82 102.539 148.69 101.989C148.56 101.439 148.58 100.869 148.76 100.299C149.05 99.3893 149.64 98.7093 150.53 98.2693C151.42 97.8293 152.34 97.7593 153.31 98.0693C154.37 98.4093 155.13 98.9893 155.59 99.8093C156.05 100.629 156.13 101.519 155.83 102.459L155.81 102.469ZM155.12 102.129C155.2 101.879 155.2 101.629 155.12 101.379C155.04 101.129 154.91 100.919 154.73 100.749C154.55 100.579 154.38 100.439 154.21 100.329C154.04 100.219 153.89 100.149 153.77 100.109C153.7 100.089 153.65 100.109 153.63 100.169L152.81 102.709C152.78 102.799 152.84 102.879 153 102.929C153.37 103.049 153.78 103.039 154.23 102.919C154.69 102.789 154.98 102.529 155.11 102.119L155.12 102.129Z" fill="#280901"/>
<path d="M151.63 110.099L152.06 109.189C152.09 109.119 152.24 109.149 152.5 109.269C152.57 109.299 152.61 109.329 152.63 109.349C152.62 109.829 152.7 110.339 152.87 110.869C152.94 111.059 153.02 111.269 153.11 111.499C153.2 111.729 153.32 112.009 153.48 112.349C153.43 112.449 153.38 112.539 153.31 112.609C153.24 112.679 153.19 112.719 153.16 112.699L151.7 111.999C151.58 112.259 151.4 112.619 151.18 113.079C150.95 113.539 150.84 113.779 150.82 113.809C150.78 113.889 150.72 113.909 150.63 113.859C150.39 113.749 150.2 113.589 150.05 113.399L150.9 111.609L147.31 109.899C146.91 109.709 146.57 109.649 146.28 109.719C145.99 109.789 145.78 109.969 145.63 110.269C145.58 110.369 145.55 110.479 145.52 110.599C145.49 110.719 145.48 110.819 145.47 110.909C145.47 110.989 145.47 111.069 145.47 111.149C145.47 111.229 145.47 111.269 145.47 111.279C145.47 111.319 145.39 111.349 145.27 111.349C145.15 111.349 145.07 111.349 145.05 111.319C144.94 111.189 144.88 110.909 144.87 110.459C144.87 110.009 144.94 109.609 145.1 109.259C145.35 108.739 145.72 108.379 146.23 108.179C146.74 107.979 147.34 108.039 148.03 108.369L151.63 110.089V110.099Z" fill="#280901"/>
<path d="M147.1 120.74C146.77 121.26 146.34 121.74 145.82 122.19C145.35 122.01 144.8 121.73 144.17 121.34C144.1 121.29 144.1 121.21 144.17 121.09C144.3 120.89 144.41 120.8 144.5 120.83C144.87 120.97 145.23 121.02 145.59 120.96C145.95 120.9 146.24 120.69 146.47 120.34C146.64 120.07 146.72 119.82 146.7 119.59C146.68 119.36 146.56 119.17 146.34 119.03C146.21 118.95 146.08 118.9 145.94 118.88C145.8 118.86 145.65 118.88 145.48 118.94C145.31 119 145.17 119.05 145.06 119.1C144.95 119.15 144.79 119.24 144.58 119.35C144.5 119.39 144.45 119.42 144.42 119.44C144.4 119.45 144.32 119.5 144.17 119.58C144.03 119.66 143.94 119.71 143.9 119.73C143.86 119.75 143.77 119.8 143.63 119.87C143.49 119.94 143.38 119.99 143.31 120.01C143.24 120.03 143.14 120.07 143.01 120.12C142.87 120.17 142.76 120.2 142.68 120.2C142.6 120.2 142.49 120.21 142.36 120.23C142.23 120.24 142.11 120.23 142.02 120.21C141.92 120.19 141.82 120.16 141.71 120.12C141.6 120.08 141.49 120.03 141.39 119.96C140.81 119.58 140.5 119.06 140.45 118.4C140.4 117.73 140.59 117.08 141 116.45C141.37 115.88 141.89 115.37 142.54 114.92C142.73 114.98 143.01 115.1 143.4 115.28C143.79 115.46 144.07 115.61 144.24 115.73C144.25 115.82 144.24 115.89 144.18 115.97C144.04 116.18 143.93 116.27 143.85 116.23C143.42 116.05 142.99 116.03 142.56 116.17C142.14 116.31 141.81 116.55 141.59 116.89C141.42 117.15 141.35 117.4 141.37 117.65C141.39 117.9 141.53 118.11 141.78 118.27C141.87 118.33 141.97 118.37 142.06 118.4C142.15 118.43 142.26 118.43 142.38 118.42C142.5 118.41 142.6 118.4 142.68 118.39C142.76 118.39 142.87 118.34 143.03 118.26C143.19 118.18 143.3 118.13 143.37 118.09C143.44 118.05 143.58 117.97 143.77 117.86C143.97 117.75 144.11 117.67 144.19 117.63C144.69 117.35 145.15 117.18 145.57 117.13C145.99 117.08 146.4 117.17 146.78 117.43C147.34 117.79 147.63 118.3 147.65 118.94C147.67 119.58 147.48 120.2 147.1 120.79V120.74Z" fill="#280901"/>
<path d="M130.39 145.66L126.48 132.68C126.45 132.61 126.48 132.47 126.58 132.29C126.68 132.1 126.83 131.93 127.03 131.78C127.09 131.73 127.15 131.7 127.2 131.68C127.25 131.66 127.28 131.66 127.31 131.67L127.34 131.69L131.25 144.67C131.31 144.93 131.17 145.19 130.83 145.45C130.68 145.56 130.54 145.64 130.39 145.67V145.66Z" fill="#280901"/>
<path d="M102.23 154.769C102.4 155.329 102.58 155.729 102.77 155.979C102.86 156.089 103.07 156.139 103.39 156.119C103.71 156.099 103.96 156.069 104.13 156.019C104.17 156.009 104.22 156.079 104.27 156.229C104.32 156.379 104.34 156.479 104.32 156.529C103.17 156.799 102.5 156.969 102.3 157.029C102.03 157.109 101.68 157.239 101.26 157.409C100.84 157.579 100.58 157.679 100.47 157.709C100.44 157.669 100.4 157.589 100.36 157.469C100.31 157.289 100.3 157.199 100.34 157.179C100.49 157.139 100.7 157.029 100.98 156.849C101.26 156.679 101.43 156.509 101.48 156.339C101.51 156.019 101.43 155.569 101.25 154.979L99.4197 148.999C99.2997 148.619 99.0597 147.889 98.6797 146.809C98.7097 146.759 98.8197 146.699 99.0097 146.639C99.1797 146.589 99.3797 146.659 99.6297 146.849L108.45 153.259L106.5 146.869C106.31 146.239 106.13 145.819 105.98 145.619C105.89 145.509 105.66 145.459 105.3 145.469C104.94 145.479 104.69 145.509 104.55 145.549C104.52 145.549 104.48 145.489 104.43 145.349C104.38 145.199 104.36 145.099 104.36 145.039C105.64 144.719 106.31 144.549 106.36 144.529C106.64 144.439 106.99 144.319 107.4 144.169C107.81 144.019 108.08 143.909 108.21 143.859C108.27 143.889 108.31 143.969 108.36 144.109C108.41 144.279 108.42 144.369 108.37 144.379C108.19 144.429 107.96 144.549 107.69 144.719C107.41 144.889 107.26 145.069 107.22 145.249C107.18 145.499 107.26 145.959 107.47 146.619L109.36 152.799C109.53 153.369 109.71 153.729 109.89 153.899C109.95 153.959 110.16 153.969 110.5 153.939C110.84 153.899 111.08 153.859 111.23 153.819C111.27 153.809 111.32 153.879 111.37 154.029C111.42 154.189 111.44 154.289 111.41 154.349C110.29 154.629 109.66 154.799 109.51 154.849C109.16 154.959 108.7 155.129 108.11 155.359C107.79 155.039 107.26 154.589 106.5 154.019C105.74 153.439 104.71 152.689 103.42 151.749C102.12 150.819 101.24 150.169 100.76 149.809C100.78 149.939 100.83 150.159 100.93 150.469L102.24 154.759L102.23 154.769Z" fill="#280901"/>
<path d="M91.7297 155.35C91.2197 155.41 90.7497 155.37 90.3197 155.22C89.8897 155.07 89.5397 154.85 89.2697 154.57C88.9997 154.29 88.7897 153.99 88.6297 153.67C88.4697 153.35 88.3697 153.04 88.3297 152.74C88.2997 152.5 88.3297 152.34 88.3997 152.27C88.4697 152.2 88.6397 152.15 88.8897 152.12L92.7997 151.63C92.8797 151.63 92.9097 151.58 92.8997 151.52C92.8497 151.13 92.7297 150.75 92.5397 150.4C92.3497 150.05 92.0697 149.75 91.6897 149.53C91.3097 149.3 90.8797 149.22 90.3997 149.28C90.2397 149.3 90.0797 149.33 89.9297 149.36C89.7797 149.4 89.6397 149.44 89.5097 149.49C89.3797 149.54 89.2697 149.59 89.1797 149.64C89.0897 149.68 88.9897 149.75 88.8897 149.83C88.7997 149.91 88.7297 149.96 88.6897 150C88.6497 150.04 88.5497 150.12 88.3897 150.26C88.3697 150.26 88.3397 150.22 88.2997 150.17C88.2597 150.12 88.2397 150.07 88.2297 150.01C88.2097 149.89 88.2297 149.78 88.2897 149.69C88.4197 149.37 88.6997 149.04 89.1497 148.69C89.5997 148.34 90.1097 148.12 90.7097 148.05C91.6597 147.93 92.5197 148.18 93.2997 148.8C94.0797 149.42 94.5297 150.23 94.6497 151.23C94.7897 152.33 94.5797 153.27 94.0297 154.03C93.4797 154.8 92.7097 155.24 91.7297 155.36V155.35ZM91.7497 154.58C92.0097 154.55 92.2397 154.44 92.4197 154.26C92.6097 154.08 92.7397 153.88 92.8297 153.64C92.9097 153.41 92.9597 153.19 92.9897 153C93.0197 152.8 93.0197 152.64 92.9997 152.51C92.9997 152.43 92.9497 152.4 92.8897 152.41L90.2397 152.74C90.1397 152.75 90.0997 152.84 90.1197 153C90.1697 153.38 90.3397 153.75 90.6497 154.11C90.9597 154.47 91.3197 154.62 91.7497 154.57V154.58Z" fill="#280901"/>
<path d="M74.0699 154.35C74.0699 154.48 74.0999 154.6 74.1799 154.69C74.2599 154.79 74.3699 154.86 74.5099 154.91C74.6499 154.96 74.7699 154.99 74.8799 155.01C74.9999 155.03 75.1099 155.05 75.2199 155.05H75.2899C75.2899 155.05 75.3499 155.14 75.3499 155.3C75.3499 155.46 75.3299 155.56 75.2899 155.59C75.1499 155.59 74.8599 155.55 74.4199 155.49C73.9799 155.43 73.6299 155.4 73.3699 155.38C73.1399 155.37 72.8499 155.37 72.4899 155.38C72.1299 155.39 71.8699 155.4 71.7099 155.38C71.6899 155.3 71.6899 155.21 71.6899 155.1C71.6899 154.94 71.7299 154.85 71.7699 154.86C71.8999 154.86 72.1199 154.81 72.4299 154.69C72.7399 154.57 72.9399 154.41 73.0199 154.22L75.7699 148.54C75.8199 148.45 75.8999 148.38 76.0099 148.31C76.1199 148.24 76.2299 148.21 76.3399 148.22C76.4499 148.23 76.5199 148.27 76.5499 148.35L78.3199 153L80.3099 148.8C80.3499 148.74 80.4099 148.66 80.5099 148.58C80.6099 148.5 80.7299 148.46 80.8699 148.47C80.9799 148.47 81.0499 148.52 81.0899 148.6C81.3099 149.18 81.5699 149.89 81.8799 150.73C82.1799 151.57 82.4599 152.31 82.7099 152.95C82.9599 153.59 83.2499 154.29 83.5899 155.05C83.6599 155.2 83.7999 155.31 83.9999 155.4C84.2099 155.49 84.3799 155.54 84.5199 155.54C84.5599 155.54 84.5799 155.63 84.5699 155.81C84.5699 155.96 84.5299 156.06 84.4899 156.09C84.3799 156.09 84.0999 156.05 83.6599 156C83.2199 155.94 82.8699 155.91 82.6199 155.89C82.3699 155.88 81.9899 155.87 81.4999 155.88C81.0099 155.89 80.7199 155.88 80.6399 155.88C80.6199 155.82 80.6199 155.72 80.6199 155.58C80.6199 155.44 80.6499 155.36 80.6799 155.35C80.8199 155.35 81.0099 155.33 81.2499 155.27C81.4899 155.21 81.6099 155.1 81.6199 154.94C81.6199 154.92 81.1399 153.63 80.1799 151.06C80.0399 151.36 79.8799 151.7 79.6999 152.08C79.5199 152.46 79.3799 152.75 79.2899 152.95C79.1999 153.15 79.0999 153.35 79.0099 153.55C78.9199 153.75 78.8499 153.91 78.8099 154.01C78.7699 154.11 78.7499 154.18 78.7499 154.21C78.7399 154.43 78.7999 154.65 78.9299 154.88C78.9999 154.99 79.1199 155.09 79.2799 155.16C79.3999 155.23 79.5899 155.28 79.8699 155.29C79.9099 155.29 79.9299 155.37 79.9199 155.53C79.9199 155.69 79.8799 155.78 79.8399 155.81C79.7199 155.81 79.4499 155.77 79.0299 155.72C78.6099 155.66 78.2699 155.63 77.9999 155.62C77.7599 155.61 77.3999 155.6 76.9299 155.62C76.4599 155.62 76.1799 155.62 76.0899 155.62C76.0699 155.57 76.0699 155.47 76.0899 155.31C76.0999 155.15 76.1299 155.07 76.1599 155.07C76.7199 155.1 77.0099 154.92 77.0299 154.54C77.0399 154.33 76.5899 153.08 75.6799 150.8C75.4799 151.25 75.2299 151.78 74.9399 152.39C74.6499 153 74.4399 153.45 74.2999 153.74C74.1599 154.04 74.0899 154.23 74.0899 154.32L74.0699 154.35Z" fill="#280901"/>
<path d="M59.21 153.33C58.93 154.11 58.38 154.65 57.53 154.95C56.69 155.25 55.86 155.26 55.04 154.97C54.75 154.87 54.5 154.76 54.3 154.65C54.09 154.54 53.81 154.37 53.46 154.13C53.11 153.89 52.86 153.73 52.73 153.65C52.86 152.9 53.08 152.08 53.39 151.19C53.44 151.1 53.52 151.08 53.63 151.12C53.91 151.22 54.04 151.32 54.03 151.42C53.92 151.92 53.98 152.46 54.2 153.06C54.42 153.65 54.81 154.05 55.36 154.24C55.84 154.41 56.25 154.4 56.6 154.23C56.95 154.05 57.21 153.73 57.37 153.28C57.43 153.12 57.46 152.97 57.47 152.82C57.48 152.67 57.46 152.5 57.4 152.33C57.34 152.16 57.29 152.01 57.25 151.9C57.21 151.79 57.12 151.63 56.98 151.43C56.84 151.23 56.74 151.09 56.69 151.01C56.64 150.93 56.52 150.78 56.33 150.54C56.14 150.3 56.02 150.17 55.98 150.13C55.94 150.06 55.8 149.88 55.58 149.61C55.36 149.34 55.2 149.14 55.11 149.02C55.02 148.9 54.9 148.71 54.75 148.45C54.6 148.19 54.5 147.95 54.46 147.75C54.42 147.55 54.4 147.31 54.41 147.02C54.41 146.74 54.47 146.45 54.58 146.16C54.87 145.33 55.45 144.77 56.31 144.46C57.17 144.16 58.04 144.16 58.92 144.48C59.54 144.7 60.44 145.18 61.63 145.93C61.59 146.34 61.51 146.84 61.39 147.43C61.27 148.02 61.17 148.41 61.11 148.58C61.07 148.66 60.97 148.67 60.82 148.62C60.55 148.52 60.41 148.43 60.41 148.34C60.43 148.14 60.43 147.91 60.41 147.65C60.39 147.39 60.33 147.1 60.24 146.78C60.15 146.46 59.98 146.17 59.73 145.9C59.48 145.63 59.17 145.43 58.78 145.29C58.29 145.12 57.84 145.12 57.41 145.29C56.99 145.47 56.67 145.84 56.46 146.42C56.4 146.6 56.37 146.78 56.38 146.97C56.38 147.16 56.42 147.33 56.46 147.47C56.51 147.62 56.59 147.79 56.72 147.98C56.85 148.17 56.95 148.33 57.04 148.44C57.13 148.55 57.26 148.71 57.44 148.92C57.62 149.13 57.74 149.28 57.82 149.36C57.84 149.4 57.88 149.46 57.95 149.55C58.18 149.84 58.36 150.07 58.48 150.23C58.6 150.39 58.74 150.61 58.92 150.9C59.1 151.19 59.21 151.44 59.27 151.66C59.33 151.88 59.37 152.14 59.37 152.43C59.37 152.72 59.33 153.02 59.22 153.32L59.21 153.33Z" fill="#280901"/>
<path d="M40.7697 142.499C40.6997 142.609 40.6897 142.729 40.7097 142.859C40.7397 142.979 40.7997 143.099 40.8997 143.199C40.9997 143.299 41.0997 143.389 41.1897 143.459C41.2797 143.529 41.3797 143.599 41.4697 143.649L41.5297 143.679C41.5297 143.679 41.5497 143.789 41.4697 143.929C41.3897 144.079 41.3297 144.149 41.2897 144.169C41.1697 144.099 40.9197 143.939 40.5597 143.689C40.1997 143.439 39.8997 143.249 39.6697 143.119C39.4697 142.999 39.2097 142.869 38.8797 142.719C38.5497 142.569 38.3197 142.449 38.1797 142.369C38.1997 142.289 38.2397 142.209 38.2897 142.109C38.3697 141.969 38.4297 141.909 38.4697 141.929C38.5797 141.999 38.8097 142.039 39.1397 142.079C39.4697 142.109 39.7197 142.059 39.8797 141.929L44.9097 138.109C44.9897 138.059 45.0997 138.019 45.2197 138.009C45.3397 137.999 45.4597 138.019 45.5497 138.079C45.6497 138.139 45.6897 138.199 45.6797 138.289L45.1497 143.239L48.8297 140.399C48.8897 140.359 48.9897 140.319 49.1097 140.289C49.2297 140.259 49.3597 140.289 49.4797 140.349C49.5697 140.399 49.6197 140.479 49.6197 140.569C49.5497 141.189 49.4597 141.939 49.3497 142.829C49.2397 143.709 49.1497 144.499 49.0897 145.179C49.0197 145.869 48.9697 146.619 48.9197 147.449C48.9197 147.609 48.9797 147.779 49.1297 147.949C49.2797 148.119 49.4097 148.239 49.5297 148.309C49.5697 148.329 49.5397 148.419 49.4497 148.569C49.3697 148.699 49.3097 148.769 49.2497 148.779C49.1597 148.719 48.9197 148.569 48.5497 148.319C48.1797 148.069 47.8897 147.879 47.6697 147.749C47.4497 147.619 47.1197 147.449 46.6697 147.229C46.2197 147.009 45.9697 146.879 45.8997 146.839C45.8997 146.779 45.9497 146.689 46.0197 146.569C46.0897 146.449 46.1397 146.389 46.1797 146.389C46.2997 146.459 46.4897 146.519 46.7297 146.569C46.9697 146.619 47.1297 146.579 47.2097 146.449C47.2197 146.429 47.3797 145.059 47.6797 142.339C47.4197 142.549 47.1297 142.779 46.7897 143.039C46.4597 143.299 46.1997 143.489 46.0297 143.629C45.8597 143.769 45.6797 143.899 45.5097 144.039C45.3397 144.179 45.2097 144.289 45.1297 144.359C45.0497 144.429 44.9997 144.489 44.9797 144.509C44.8697 144.699 44.8197 144.929 44.8397 145.189C44.8497 145.319 44.9097 145.459 45.0197 145.599C45.0897 145.719 45.2497 145.849 45.4797 145.979C45.5197 145.999 45.4997 146.079 45.4197 146.219C45.3397 146.359 45.2697 146.429 45.2197 146.439C45.1197 146.379 44.8897 146.229 44.5397 145.989C44.1897 145.749 43.8997 145.559 43.6697 145.429C43.4597 145.309 43.1397 145.139 42.7197 144.939C42.2897 144.729 42.0397 144.609 41.9697 144.559C41.9697 144.509 42.0197 144.419 42.0997 144.279C42.1797 144.139 42.2397 144.089 42.2697 144.099C42.7597 144.379 43.0997 144.349 43.2897 144.019C43.3897 143.839 43.5597 142.519 43.7797 140.069C43.3997 140.379 42.9397 140.739 42.3997 141.149C41.8697 141.559 41.4697 141.859 41.2097 142.069C40.9497 142.269 40.7997 142.409 40.7597 142.489L40.7697 142.499Z" fill="#280901"/>
<path d="M32.27 137.589C31.88 137.259 31.59 136.879 31.41 136.459C31.23 136.039 31.15 135.639 31.18 135.249C31.21 134.859 31.28 134.499 31.4 134.169C31.52 133.839 31.69 133.549 31.88 133.319C32.04 133.129 32.17 133.049 32.27 133.049C32.37 133.049 32.52 133.139 32.71 133.299L35.72 135.839C35.78 135.889 35.83 135.889 35.87 135.839C36.12 135.539 36.32 135.199 36.45 134.819C36.58 134.439 36.6 134.039 36.52 133.599C36.43 133.169 36.2 132.789 35.83 132.479C35.7 132.369 35.58 132.279 35.45 132.189C35.32 132.099 35.19 132.029 35.07 131.979C34.95 131.919 34.83 131.879 34.74 131.839C34.64 131.799 34.53 131.769 34.41 131.759C34.29 131.739 34.2 131.729 34.15 131.719C34.1 131.719 33.97 131.699 33.75 131.679C33.75 131.659 33.75 131.609 33.75 131.549C33.75 131.489 33.78 131.429 33.82 131.389C33.9 131.299 33.99 131.239 34.1 131.209C34.42 131.089 34.86 131.069 35.42 131.159C35.98 131.249 36.49 131.479 36.96 131.869C37.69 132.489 38.09 133.289 38.17 134.279C38.25 135.269 37.95 136.149 37.3 136.919C36.58 137.769 35.76 138.249 34.82 138.359C33.88 138.469 33.03 138.209 32.28 137.579L32.27 137.589ZM32.85 137.079C33.05 137.249 33.28 137.339 33.54 137.359C33.8 137.379 34.04 137.339 34.27 137.239C34.5 137.139 34.69 137.039 34.85 136.919C35.01 136.799 35.14 136.699 35.22 136.599C35.27 136.539 35.27 136.489 35.22 136.449L33.18 134.729C33.1 134.669 33.01 134.699 32.91 134.819C32.66 135.109 32.51 135.499 32.45 135.969C32.39 136.439 32.53 136.809 32.86 137.089L32.85 137.079Z" fill="#280901"/>
<path d="M24.2198 129.679C23.8798 129.289 23.6498 128.879 23.5298 128.439C23.4098 127.999 23.3898 127.589 23.4798 127.209C23.5598 126.829 23.6898 126.479 23.8598 126.169C24.0298 125.859 24.2298 125.599 24.4598 125.389C24.6398 125.229 24.7798 125.159 24.8798 125.179C24.9798 125.199 25.1098 125.309 25.2798 125.499L27.8898 128.449C27.9398 128.509 27.9898 128.509 28.0398 128.469C28.3398 128.209 28.5798 127.899 28.7598 127.539C28.9498 127.189 29.0298 126.789 28.9998 126.349C28.9798 125.909 28.7998 125.509 28.4798 125.139C28.3698 125.019 28.2598 124.899 28.1498 124.799C28.0398 124.699 27.9198 124.609 27.7998 124.529C27.6798 124.449 27.5798 124.389 27.4898 124.339C27.3998 124.289 27.2998 124.239 27.1798 124.209C27.0598 124.179 26.9798 124.149 26.9298 124.139C26.8798 124.129 26.7498 124.089 26.5498 124.039C26.5498 124.019 26.5498 123.969 26.5698 123.909C26.5898 123.849 26.6198 123.799 26.6598 123.759C26.7498 123.679 26.8498 123.639 26.9598 123.629C27.2898 123.559 27.7298 123.599 28.2698 123.769C28.8098 123.939 29.2898 124.239 29.6898 124.699C30.3198 125.419 30.6098 126.269 30.5298 127.259C30.4598 128.249 30.0398 129.079 29.2898 129.749C28.4598 130.489 27.5698 130.839 26.6198 130.819C25.6798 130.799 24.8698 130.419 24.2198 129.669V129.679ZM24.8598 129.259C25.0298 129.459 25.2498 129.579 25.4998 129.639C25.7498 129.699 25.9998 129.689 26.2398 129.629C26.4798 129.569 26.6898 129.489 26.8598 129.399C27.0298 129.309 27.1698 129.219 27.2698 129.129C27.3298 129.079 27.3298 129.029 27.2898 128.979L25.5198 126.979C25.4498 126.909 25.3598 126.919 25.2398 127.029C24.9498 127.289 24.7398 127.639 24.6198 128.099C24.4998 128.559 24.5698 128.939 24.8598 129.269V129.259Z" fill="#280901"/>
<path d="M19.77 122.179L20.33 123.019C20.37 123.079 20.28 123.199 20.04 123.349C19.98 123.389 19.93 123.419 19.91 123.419C19.5 123.169 19.02 122.979 18.48 122.849C18.28 122.809 18.06 122.769 17.81 122.729C17.56 122.689 17.26 122.649 16.89 122.619C16.83 122.529 16.78 122.429 16.75 122.339C16.72 122.239 16.72 122.179 16.75 122.169L18.09 121.269C17.93 121.029 17.71 120.699 17.43 120.269C17.15 119.839 17 119.609 16.98 119.589C16.93 119.519 16.95 119.449 17.03 119.399C17.25 119.249 17.48 119.159 17.72 119.129L18.82 120.769L22.12 118.559C22.49 118.319 22.71 118.049 22.8 117.769C22.89 117.489 22.84 117.209 22.66 116.929C22.6 116.839 22.52 116.749 22.43 116.659C22.34 116.579 22.26 116.509 22.19 116.459C22.12 116.409 22.05 116.369 21.99 116.339C21.93 116.299 21.89 116.279 21.88 116.269C21.85 116.239 21.86 116.169 21.92 116.059C21.98 115.949 22.03 115.889 22.06 115.889C22.22 115.859 22.5 115.949 22.89 116.169C23.28 116.389 23.59 116.659 23.8 116.979C24.12 117.459 24.24 117.959 24.15 118.499C24.07 119.039 23.71 119.519 23.07 119.949L19.75 122.169L19.77 122.179Z" fill="#280901"/>
<path d="M12.9198 112.86C12.6498 112.31 12.4498 111.7 12.3198 111.02C12.7098 110.7 13.2398 110.37 13.8898 110.04C13.9698 110 14.0398 110.04 14.0998 110.17C14.2098 110.39 14.2298 110.52 14.1598 110.58C13.8498 110.82 13.6298 111.11 13.4998 111.45C13.3698 111.79 13.3998 112.15 13.5798 112.52C13.7198 112.81 13.8998 113 14.1098 113.1C14.3198 113.2 14.5398 113.19 14.7798 113.07C14.9198 113 15.0298 112.91 15.1198 112.8C15.2098 112.69 15.2698 112.55 15.3098 112.38C15.3498 112.21 15.3698 112.06 15.3798 111.94C15.3898 111.82 15.3998 111.64 15.4098 111.4C15.4098 111.31 15.4098 111.25 15.4098 111.22C15.4098 111.2 15.4098 111.1 15.4098 110.94C15.4098 110.78 15.4098 110.67 15.4198 110.63C15.4198 110.59 15.4198 110.48 15.4398 110.32C15.4498 110.16 15.4698 110.05 15.4798 109.98C15.4898 109.91 15.5198 109.81 15.5398 109.66C15.5698 109.52 15.5998 109.41 15.6398 109.34C15.6798 109.27 15.7198 109.17 15.7798 109.05C15.8398 108.93 15.8998 108.83 15.9698 108.76C16.0398 108.69 16.1198 108.62 16.2098 108.54C16.2998 108.46 16.3998 108.4 16.5098 108.35C17.1298 108.04 17.7398 108.04 18.3398 108.34C18.9398 108.64 19.3998 109.13 19.7398 109.81C20.0398 110.42 20.2198 111.12 20.2698 111.92C20.1298 112.05 19.8798 112.24 19.5198 112.47C19.1698 112.71 18.8898 112.87 18.7098 112.97C18.6298 112.94 18.5698 112.88 18.5298 112.8C18.4198 112.57 18.3998 112.44 18.4698 112.39C18.8398 112.11 19.0798 111.75 19.1798 111.31C19.2798 110.87 19.2398 110.48 19.0598 110.11C18.9198 109.83 18.7398 109.64 18.5198 109.53C18.2898 109.42 18.0498 109.43 17.7798 109.56C17.6798 109.61 17.5998 109.67 17.5298 109.73C17.4598 109.8 17.3998 109.88 17.3498 109.99C17.2998 110.1 17.2598 110.19 17.2298 110.26C17.1998 110.33 17.1798 110.45 17.1598 110.62C17.1498 110.79 17.1398 110.92 17.1398 111C17.1398 111.08 17.1398 111.24 17.1398 111.46C17.1398 111.69 17.1398 111.85 17.1298 111.94C17.1198 112.51 17.0298 112.99 16.8598 113.38C16.6898 113.77 16.3998 114.07 15.9898 114.27C15.3898 114.57 14.8098 114.56 14.2498 114.25C13.6898 113.94 13.2498 113.47 12.9398 112.84L12.9198 112.86Z" fill="#280901"/>
<path d="M0.0497992 85.75L13.1998 89.05C13.2798 89.06 13.3698 89.16 13.4898 89.34C13.5998 89.52 13.6698 89.74 13.6998 89.99C13.6998 90.07 13.6998 90.13 13.6998 90.18C13.6998 90.23 13.6698 90.26 13.6498 90.28L13.6198 90.3L0.469799 87C0.219799 86.92 0.0597992 86.67 0.00979922 86.24C-0.0102008 86.05 0.00979922 85.89 0.0497992 85.75Z" fill="#280901"/>
<path d="M6.51975 57.1991C5.94975 57.0591 5.50975 57.0191 5.19975 57.0491C5.05975 57.0691 4.90975 57.2291 4.76975 57.5091C4.62975 57.7891 4.52975 58.0291 4.48975 58.1991C4.48975 58.2391 4.39975 58.2491 4.23975 58.2191C4.07975 58.1891 3.98975 58.1491 3.94975 58.1091C4.29975 56.9791 4.49975 56.3191 4.53975 56.1191C4.60975 55.8391 4.66975 55.4791 4.73975 55.0291C4.80975 54.5791 4.84975 54.3091 4.87975 54.1991C4.92975 54.1891 5.01975 54.1991 5.13975 54.2291C5.31975 54.2691 5.40975 54.3191 5.39975 54.3591C5.35975 54.5091 5.34975 54.7491 5.35975 55.0791C5.35975 55.4091 5.42975 55.6391 5.53975 55.7691C5.79975 55.9591 6.22975 56.1191 6.82975 56.2591L12.9097 57.7091C13.2897 57.7991 14.0497 57.9591 15.1697 58.1791C15.1997 58.2291 15.1997 58.3591 15.1497 58.5491C15.1097 58.7191 14.9397 58.8591 14.6597 58.9791L4.66975 63.3391L11.1697 64.8891C11.8097 65.0391 12.2597 65.1091 12.5197 65.0791C12.6597 65.0591 12.8197 64.8891 12.9897 64.5591C13.1597 64.2391 13.2697 64.0091 13.2997 63.8691C13.2997 63.8391 13.3897 63.8391 13.5397 63.8691C13.6897 63.8991 13.7897 63.9291 13.8397 63.9691C13.4697 65.2391 13.2797 65.8991 13.2597 65.9491C13.1897 66.2391 13.1197 66.5991 13.0497 67.0291C12.9797 67.4591 12.9297 67.7391 12.9097 67.8891C12.8597 67.9191 12.7597 67.9191 12.6197 67.8891C12.4497 67.8491 12.3697 67.8091 12.3797 67.7691C12.4197 67.5891 12.4397 67.3291 12.4297 67.0091C12.4297 66.6891 12.3497 66.4591 12.2097 66.3391C12.0097 66.1791 11.5697 66.0191 10.8997 65.8591L4.60975 64.3591C4.02975 64.2191 3.62975 64.1891 3.39975 64.2591C3.31975 64.2791 3.19975 64.4491 3.05975 64.7591C2.91975 65.0691 2.82975 65.2991 2.78975 65.4491C2.78975 65.4891 2.68975 65.4991 2.52975 65.4591C2.36975 65.4191 2.26975 65.3791 2.23975 65.3291C2.55975 64.2191 2.73975 63.5891 2.77975 63.4391C2.85975 63.0891 2.94975 62.5991 3.03975 61.9791C3.46975 61.8691 4.12975 61.6291 5.00975 61.2691C5.88975 60.9091 7.05975 60.4091 8.51975 59.7591C9.97975 59.1091 10.9897 58.6791 11.5397 58.4491C11.4197 58.3991 11.1997 58.3391 10.8897 58.2591L6.52975 57.2191L6.51975 57.1991Z" fill="#280901"/>
<path d="M11.3399 47.8591C11.5399 47.3891 11.8199 46.9991 12.1699 46.7091C12.5199 46.4191 12.8799 46.2291 13.2599 46.1391C13.6399 46.0491 14.0099 46.0191 14.3599 46.0391C14.7199 46.0591 15.0399 46.1291 15.3199 46.2591C15.5399 46.3591 15.6599 46.4491 15.6899 46.5491C15.7099 46.6491 15.6699 46.8191 15.5699 47.0491L14.0099 50.6691C13.9799 50.7391 13.9899 50.7891 14.0499 50.8191C14.4099 50.9791 14.7999 51.0591 15.1999 51.0791C15.5999 51.0991 15.9899 50.9991 16.3799 50.7891C16.7699 50.5791 17.0599 50.2491 17.2499 49.8091C17.3199 49.6591 17.3699 49.5091 17.4199 49.3591C17.4699 49.2091 17.4999 49.0691 17.5099 48.9291C17.5299 48.7891 17.5399 48.6691 17.5499 48.5691C17.5599 48.4691 17.5499 48.3491 17.5299 48.2291C17.5099 48.1091 17.4999 48.0191 17.4899 47.9691C17.4799 47.9191 17.4599 47.7891 17.4199 47.5791C17.4399 47.5591 17.4799 47.5491 17.5399 47.5391C17.5999 47.5291 17.6599 47.5391 17.7099 47.5591C17.8199 47.6091 17.8999 47.6791 17.9599 47.7691C18.1699 48.0391 18.3099 48.4491 18.3899 49.0191C18.4699 49.5891 18.3899 50.1391 18.1499 50.6991C17.7699 51.5791 17.1199 52.1991 16.1899 52.5491C15.2599 52.8991 14.3399 52.8791 13.4099 52.4791C12.3899 52.0391 11.6899 51.3891 11.3099 50.5191C10.9299 49.6491 10.9299 48.7691 11.3299 47.8591H11.3399ZM11.9899 48.2691C11.8899 48.5091 11.8599 48.7591 11.9199 49.0091C11.9799 49.2591 12.0899 49.4791 12.2499 49.6691C12.4099 49.8591 12.5699 50.0091 12.7199 50.1291C12.8799 50.2491 13.0199 50.3391 13.1399 50.3891C13.2099 50.4191 13.2599 50.4091 13.2799 50.3391L14.3399 47.8891C14.3799 47.7991 14.3199 47.7191 14.1699 47.6591C13.8199 47.5091 13.4099 47.4691 12.9399 47.5491C12.4699 47.6291 12.1599 47.8691 11.9899 48.2591V48.2691Z" fill="#280901"/>
<path d="M21.1696 33.1691C21.0596 33.0991 20.9396 33.0691 20.8196 33.0891C20.6896 33.1091 20.5796 33.1691 20.4696 33.2591C20.3596 33.3491 20.2696 33.4391 20.1896 33.5291C20.1096 33.6191 20.0396 33.7091 19.9796 33.7991L19.9396 33.8491C19.9396 33.8491 19.8296 33.8591 19.6896 33.7691C19.5496 33.6791 19.4796 33.6191 19.4696 33.5691C19.5496 33.4491 19.7196 33.2191 19.9996 32.8691C20.2696 32.5191 20.4796 32.2391 20.6296 32.0191C20.7596 31.8291 20.9096 31.5691 21.0796 31.2591C21.2496 30.9391 21.3796 30.7191 21.4696 30.5791C21.5496 30.5991 21.6296 30.6491 21.7196 30.7091C21.8596 30.7991 21.9096 30.8691 21.8896 30.8991C21.8196 31.0091 21.7496 31.2291 21.6996 31.5591C21.6496 31.8891 21.6796 32.1391 21.7996 32.3091L25.2896 37.5691C25.3396 37.6591 25.3596 37.7591 25.3696 37.8891C25.3696 38.0191 25.3396 38.1291 25.2796 38.2191C25.2196 38.3091 25.1496 38.3491 25.0596 38.3291L20.1596 37.4791L22.7596 41.3291C22.7996 41.3891 22.8296 41.4891 22.8496 41.6191C22.8696 41.7491 22.8496 41.8691 22.7596 41.9891C22.6996 42.0791 22.6196 42.1191 22.5396 42.1191C21.9196 42.0091 21.1796 41.8791 20.3096 41.7091C19.4396 41.5391 18.6596 41.4091 17.9796 41.2991C17.2996 41.1891 16.5496 41.0891 15.7296 40.9891C15.5696 40.9691 15.3996 41.0291 15.2196 41.1591C15.0396 41.2891 14.9096 41.4191 14.8296 41.5391C14.8096 41.5791 14.7196 41.5391 14.5696 41.4491C14.4396 41.3691 14.3796 41.2891 14.3696 41.2391C14.4296 41.1491 14.5996 40.9291 14.8696 40.5691C15.1396 40.2191 15.3496 39.9391 15.4896 39.7291C15.6296 39.5191 15.8196 39.1991 16.0696 38.7691C16.3196 38.3391 16.4596 38.0891 16.4996 38.0291C16.5596 38.0391 16.6496 38.0891 16.7696 38.1691C16.8896 38.2491 16.9396 38.3091 16.9296 38.3391C16.8496 38.4591 16.7796 38.6391 16.7096 38.8791C16.6396 39.1191 16.6696 39.2791 16.7996 39.3691C16.8196 39.3791 18.1796 39.6291 20.8696 40.0991C20.6796 39.8291 20.4696 39.5191 20.2296 39.1691C19.9896 38.8191 19.8096 38.5591 19.6896 38.3691C19.5696 38.1891 19.4396 38.0091 19.3096 37.8191C19.1796 37.6391 19.0796 37.4991 19.0196 37.4191C18.9496 37.3391 18.8996 37.2791 18.8796 37.2591C18.6996 37.1391 18.4696 37.0791 18.2096 37.0691C18.0796 37.0691 17.9396 37.1291 17.7896 37.2291C17.6696 37.2891 17.5296 37.4391 17.3796 37.6691C17.3596 37.7091 17.2796 37.6791 17.1396 37.5891C16.9996 37.4991 16.9396 37.4291 16.9396 37.3791C17.0096 37.2791 17.1696 37.0591 17.4296 36.7291C17.6896 36.3991 17.8996 36.1191 18.0396 35.8991C18.1696 35.6991 18.3596 35.3891 18.5896 34.9791C18.8196 34.5691 18.9696 34.3291 19.0096 34.2491C19.0596 34.2491 19.1496 34.3091 19.2796 34.3991C19.4096 34.4891 19.4696 34.5491 19.4496 34.5791C19.1396 35.0491 19.1396 35.3891 19.4596 35.5991C19.6296 35.7191 20.9396 35.9591 23.3696 36.3391C23.0796 35.9391 22.7496 35.4591 22.3796 34.8991C22.0096 34.3391 21.7296 33.9291 21.5396 33.6591C21.3596 33.3891 21.2296 33.2291 21.1496 33.1791L21.1696 33.1691Z" fill="#280901"/>
<path d="M29.6298 20.8694C29.0998 20.2394 28.9198 19.4794 29.0898 18.5994C29.2598 17.7194 29.6698 16.9994 30.3398 16.4394C30.5798 16.2394 30.7898 16.0794 30.9898 15.9594C31.1898 15.8394 31.4798 15.6794 31.8598 15.4994C32.2398 15.3194 32.4998 15.1894 32.6398 15.1094C33.2198 15.5994 33.8198 16.1994 34.4198 16.9294C34.4698 17.0194 34.4498 17.0994 34.3598 17.1694C34.1298 17.3594 33.9798 17.4294 33.8998 17.3594C33.5198 17.0094 33.0198 16.7894 32.3998 16.6794C31.7798 16.5694 31.2398 16.6994 30.7998 17.0794C30.4098 17.3994 30.2098 17.7594 30.1798 18.1594C30.1498 18.5594 30.2998 18.9294 30.6098 19.2994C30.7198 19.4294 30.8298 19.5294 30.9598 19.6194C31.0798 19.7094 31.2398 19.7694 31.4198 19.8094C31.5998 19.8494 31.7498 19.8794 31.8598 19.8994C31.9698 19.9294 32.1598 19.9294 32.3998 19.8994C32.6498 19.8794 32.8198 19.8694 32.9098 19.8594C32.9998 19.8594 33.1998 19.8294 33.4998 19.7894C33.7998 19.7494 33.9798 19.7194 34.0398 19.6994C34.1298 19.6994 34.3398 19.6694 34.6898 19.6194C35.0398 19.5594 35.2798 19.5294 35.4298 19.5194C35.5798 19.5094 35.7998 19.4994 36.0998 19.4994C36.3998 19.4994 36.6498 19.5394 36.8498 19.6094C37.0398 19.6794 37.2598 19.7894 37.4998 19.9394C37.7398 20.0894 37.9598 20.2794 38.1598 20.5194C38.7298 21.1894 38.9198 21.9794 38.7398 22.8694C38.5598 23.7594 38.1198 24.5094 37.3998 25.1094C36.8998 25.5294 36.0198 26.0694 34.7798 26.7094C34.4498 26.4694 34.0598 26.1494 33.6098 25.7394C33.1598 25.3294 32.8798 25.0594 32.7598 24.9194C32.7098 24.8494 32.7598 24.7594 32.8798 24.6494C33.0998 24.4694 33.2498 24.3994 33.3298 24.4394C33.4898 24.5594 33.6898 24.6794 33.9298 24.7894C34.1698 24.8994 34.4398 24.9994 34.7598 25.0794C35.0798 25.1594 35.4198 25.1694 35.7798 25.0794C36.1398 24.9994 36.4698 24.8294 36.7798 24.5694C37.1798 24.2394 37.4098 23.8394 37.4698 23.3894C37.5298 22.9394 37.3698 22.4694 36.9698 21.9994C36.8498 21.8594 36.7098 21.7394 36.5398 21.6494C36.3698 21.5594 36.2098 21.4994 36.0598 21.4694C35.9098 21.4394 35.7198 21.4194 35.4898 21.4294C35.2598 21.4294 35.0698 21.4494 34.9298 21.4694C34.7898 21.4894 34.5798 21.5194 34.3098 21.5694C34.0398 21.6194 33.8498 21.6494 33.7398 21.6694C33.6898 21.6694 33.6198 21.6694 33.5198 21.6894C33.1498 21.7394 32.8598 21.7794 32.6698 21.7994C32.4698 21.8194 32.2098 21.8294 31.8698 21.8394C31.5298 21.8494 31.2598 21.8094 31.0298 21.7494C30.8098 21.6894 30.5698 21.5894 30.3098 21.4494C30.0498 21.3094 29.8198 21.1094 29.6198 20.8694H29.6298Z" fill="#280901"/>
<path d="M48.2997 10.4698C48.2297 10.3598 48.1397 10.2798 48.0197 10.2398C47.8997 10.1998 47.7697 10.1998 47.6297 10.2398C47.4897 10.2698 47.3697 10.3098 47.2597 10.3598C47.1497 10.3998 47.0497 10.4498 46.9497 10.5098L46.8897 10.5398C46.8897 10.5398 46.7897 10.4998 46.6997 10.3598C46.6097 10.2198 46.5797 10.1298 46.5897 10.0798C46.7097 10.0098 46.9797 9.8798 47.3697 9.6898C47.7597 9.4998 48.0797 9.3398 48.3097 9.2098C48.5097 9.0998 48.7597 8.9398 49.0497 8.7298C49.3397 8.5198 49.5597 8.3798 49.7097 8.2998C49.7697 8.3598 49.8197 8.4298 49.8797 8.5298C49.9597 8.6698 49.9797 8.7598 49.9497 8.7798C49.8297 8.8498 49.6797 9.0098 49.4897 9.2798C49.2897 9.5498 49.2097 9.7898 49.2397 9.9998L49.9897 16.2698C49.9897 16.3698 49.9697 16.4698 49.9097 16.5898C49.8497 16.7098 49.7797 16.7898 49.6797 16.8398C49.5797 16.8898 49.4997 16.8998 49.4397 16.8398L45.4397 13.8798L46.0297 18.4898C46.0297 18.5598 46.0197 18.6598 45.9797 18.7798C45.9397 18.8998 45.8597 18.9998 45.7397 19.0698C45.6397 19.1198 45.5597 19.1298 45.4797 19.0798C44.9797 18.7098 44.3697 18.2498 43.6697 17.7098C42.9597 17.1698 42.3297 16.6998 41.7697 16.2898C41.2097 15.8898 40.5897 15.4598 39.8997 14.9998C39.7597 14.9098 39.5797 14.8898 39.3597 14.9298C39.1397 14.9698 38.9697 15.0198 38.8397 15.0898C38.7997 15.1098 38.7397 15.0498 38.6497 14.8898C38.5697 14.7598 38.5497 14.6598 38.5697 14.6098C38.6697 14.5598 38.9197 14.4298 39.3197 14.2398C39.7197 14.0498 40.0297 13.8898 40.2497 13.7698C40.4697 13.6498 40.7897 13.4498 41.1997 13.1698C41.6097 12.8998 41.8497 12.7398 41.9197 12.6998C41.9697 12.7398 42.0197 12.8198 42.0897 12.9398C42.1597 13.0598 42.1797 13.1398 42.1597 13.1698C42.0397 13.2398 41.8897 13.3698 41.7197 13.5498C41.5497 13.7298 41.5097 13.8898 41.5797 14.0298C41.5897 14.0498 42.6897 14.8798 44.8897 16.5098C44.8397 16.1798 44.7897 15.8098 44.7397 15.3898C44.6897 14.9698 44.6397 14.6498 44.6197 14.4398C44.5897 14.2198 44.5597 13.9998 44.5297 13.7798C44.4997 13.5598 44.4697 13.3898 44.4497 13.2898C44.4297 13.1798 44.4097 13.1098 44.3897 13.0898C44.2797 12.8998 44.1097 12.7398 43.8797 12.6198C43.7597 12.5598 43.6097 12.5498 43.4297 12.5698C43.2897 12.5698 43.0997 12.6398 42.8597 12.7798C42.8197 12.7998 42.7597 12.7398 42.6897 12.5998C42.6097 12.4598 42.5797 12.3698 42.5997 12.3198C42.7097 12.2598 42.9497 12.1398 43.3297 11.9598C43.7097 11.7798 44.0197 11.6198 44.2497 11.4898C44.4597 11.3698 44.7597 11.1798 45.1597 10.9198C45.5497 10.6598 45.7897 10.4998 45.8697 10.4598C45.9097 10.4898 45.9697 10.5698 46.0397 10.7098C46.1097 10.8498 46.1397 10.9298 46.1097 10.9498C45.6197 11.2298 45.4697 11.5298 45.6597 11.8698C45.7597 12.0498 46.8197 12.8598 48.8197 14.2898C48.7397 13.7998 48.6697 13.2198 48.5797 12.5598C48.4997 11.8898 48.4297 11.3998 48.3897 11.0698C48.3497 10.7498 48.2997 10.5498 48.2597 10.4698H48.2997Z" fill="#280901"/>
<path d="M56.82 5.62918C57.31 5.45918 57.78 5.39918 58.23 5.45918C58.68 5.51918 59.07 5.64918 59.39 5.86918C59.71 6.08918 59.98 6.33918 60.21 6.60918C60.44 6.88918 60.6 7.16918 60.7 7.45918C60.78 7.68918 60.79 7.83918 60.73 7.92918C60.67 8.00918 60.52 8.09918 60.29 8.17918L56.57 9.48918C56.5 9.51918 56.47 9.55918 56.49 9.61918C56.62 9.98918 56.82 10.3292 57.08 10.6392C57.34 10.9492 57.68 11.1692 58.09 11.3092C58.5 11.4492 58.95 11.4492 59.4 11.2892C59.56 11.2392 59.7 11.1692 59.84 11.1092C59.98 11.0392 60.11 10.9692 60.22 10.8892C60.33 10.8092 60.43 10.7392 60.51 10.6692C60.59 10.6092 60.67 10.5292 60.75 10.4292C60.83 10.3292 60.88 10.2592 60.91 10.2192C60.94 10.1792 61.02 10.0692 61.15 9.89918C61.17 9.89918 61.21 9.92918 61.26 9.96918C61.31 10.0092 61.34 10.0592 61.36 10.1092C61.4 10.2192 61.4 10.3292 61.37 10.4392C61.31 10.7692 61.11 11.1592 60.75 11.5992C60.39 12.0392 59.93 12.3592 59.36 12.5592C58.46 12.8792 57.56 12.8192 56.67 12.3792C55.78 11.9392 55.17 11.2392 54.83 10.2892C54.46 9.23918 54.46 8.28918 54.84 7.41918C55.22 6.54918 55.87 5.95918 56.81 5.62918H56.82ZM56.96 6.37918C56.71 6.46918 56.51 6.61918 56.37 6.82918C56.22 7.03918 56.14 7.26918 56.1 7.51918C56.07 7.75918 56.06 7.98918 56.08 8.17918C56.1 8.37918 56.13 8.53918 56.17 8.65918C56.2 8.72918 56.24 8.75918 56.3 8.73918L58.82 7.84918C58.91 7.81918 58.93 7.71918 58.88 7.56918C58.75 7.20918 58.5 6.87918 58.13 6.58918C57.76 6.29918 57.37 6.22918 56.96 6.36918V6.37918Z" fill="#280901"/>
<path d="M67.7296 2.70985C68.2396 2.60985 68.7096 2.61985 69.1496 2.74985C69.5896 2.86985 69.9496 3.06985 70.2396 3.32985C70.5296 3.58985 70.7596 3.87985 70.9396 4.18985C71.1196 4.49985 71.2396 4.79985 71.2996 5.09985C71.3496 5.33985 71.3296 5.48985 71.2596 5.56985C71.1896 5.64985 71.0296 5.70985 70.7796 5.74985L66.9096 6.49985C66.8296 6.50985 66.7996 6.54985 66.8196 6.61985C66.8996 7.00985 67.0396 7.36985 67.2496 7.70985C67.4596 8.04985 67.7596 8.31985 68.1596 8.52985C68.5496 8.72985 68.9896 8.78985 69.4596 8.69985C69.6196 8.66985 69.7796 8.62985 69.9196 8.57985C70.0696 8.52985 70.1996 8.47985 70.3296 8.41985C70.4596 8.35985 70.5596 8.29985 70.6496 8.24985C70.7396 8.19985 70.8296 8.12985 70.9196 8.04985C71.0096 7.96985 71.0696 7.90985 71.1096 7.86985C71.1496 7.82985 71.2396 7.73985 71.3896 7.58985C71.4096 7.58985 71.4496 7.61985 71.4896 7.66985C71.5296 7.71985 71.5596 7.76985 71.5696 7.81985C71.5896 7.93985 71.5796 8.04985 71.5296 8.14985C71.4196 8.46985 71.1596 8.82985 70.7396 9.20985C70.3196 9.58985 69.8196 9.83985 69.2196 9.95985C68.2796 10.1398 67.3996 9.94985 66.5896 9.37985C65.7796 8.80985 65.2696 8.03985 65.0796 7.03985C64.8696 5.94985 65.0096 4.99985 65.5096 4.19985C66.0096 3.39985 66.7496 2.89985 67.7196 2.71985L67.7296 2.70985ZM67.7596 3.47985C67.4996 3.52985 67.2796 3.64985 67.1096 3.83985C66.9296 4.02985 66.8096 4.23985 66.7496 4.47985C66.6896 4.71985 66.6396 4.92985 66.6296 5.12985C66.6196 5.32985 66.6296 5.48985 66.6496 5.61985C66.6596 5.69985 66.6996 5.72985 66.7696 5.70985L69.3896 5.19985C69.4896 5.17985 69.5196 5.08985 69.4896 4.92985C69.4196 4.54985 69.2196 4.18985 68.8896 3.84985C68.5596 3.50985 68.1896 3.37985 67.7696 3.45985L67.7596 3.47985Z" fill="#280901"/>
<path d="M76.4598 2.70953L75.4598 2.76953C75.3798 2.76953 75.3398 2.62953 75.3198 2.34953C75.3198 2.26953 75.3198 2.21953 75.3198 2.19953C75.7498 1.97953 76.1498 1.65953 76.5398 1.25953C76.6698 1.10953 76.8198 0.939531 76.9798 0.749531C77.1398 0.559531 77.3298 0.309531 77.5398 0.0195312C77.6498 0.0195312 77.7498 0.0195312 77.8598 0.0395312C77.9598 0.0595312 78.0098 0.0895312 78.0098 0.119531L78.0998 1.72953C78.3898 1.70953 78.7798 1.68953 79.2898 1.66953C79.7998 1.64953 80.0698 1.62953 80.1098 1.62953C80.1998 1.62953 80.2398 1.66953 80.2498 1.76953C80.2598 2.02953 80.2198 2.27953 80.1298 2.49953L78.1498 2.60953L78.3698 6.57953C78.3898 7.01953 78.5098 7.34953 78.7098 7.56953C78.9098 7.78953 79.1698 7.88953 79.4998 7.86953C79.6098 7.86953 79.7198 7.83953 79.8398 7.80953C79.9598 7.77953 80.0598 7.73953 80.1298 7.69953C80.2098 7.65953 80.2698 7.62953 80.3398 7.58953C80.3998 7.54953 80.4398 7.52953 80.4498 7.52953C80.4898 7.51953 80.5398 7.55953 80.6098 7.66953C80.6798 7.77953 80.6998 7.84953 80.6898 7.87953C80.6298 8.03953 80.4098 8.22953 80.0198 8.44953C79.6298 8.67953 79.2398 8.79953 78.8598 8.81953C78.2898 8.84953 77.7898 8.69953 77.3698 8.34953C76.9498 7.99953 76.7198 7.44953 76.6698 6.67953L76.4498 2.69953L76.4598 2.70953Z" fill="#280901"/>
<path d="M87.9597 1.53906C88.5697 1.57906 89.1997 1.71906 89.8497 1.95906C89.9297 2.45906 89.9397 3.07906 89.8997 3.81906C89.8997 3.90906 89.8197 3.94906 89.6797 3.93906C89.4397 3.91906 89.3097 3.86906 89.2897 3.77906C89.2397 3.38906 89.0997 3.04906 88.8697 2.76906C88.6397 2.47906 88.3197 2.32906 87.8997 2.29906C87.5797 2.27906 87.3297 2.32906 87.1397 2.45906C86.9497 2.58906 86.8397 2.78906 86.8197 3.04906C86.8097 3.19906 86.8197 3.34906 86.8797 3.47906C86.9297 3.60906 87.0197 3.73906 87.1497 3.85906C87.2797 3.97906 87.3897 4.07906 87.4897 4.14906C87.5897 4.21906 87.7397 4.31906 87.9397 4.44906C88.0097 4.49906 88.0697 4.52906 88.0997 4.53906C88.1197 4.54906 88.1997 4.59906 88.3397 4.68906C88.4797 4.77906 88.5597 4.82906 88.5997 4.85906C88.6397 4.87906 88.7197 4.93906 88.8497 5.03906C88.9797 5.12906 89.0697 5.19906 89.1197 5.24906C89.1697 5.29906 89.2497 5.36906 89.3597 5.46906C89.4697 5.56906 89.5497 5.64906 89.5897 5.71906C89.6297 5.78906 89.6897 5.87906 89.7697 5.98906C89.8397 6.09906 89.8897 6.19906 89.9197 6.29906C89.9497 6.39906 89.9697 6.49906 89.9897 6.61906C90.0097 6.73906 90.0097 6.85906 90.0097 6.97906C89.9597 7.66906 89.6597 8.19906 89.0997 8.55906C88.5397 8.91906 87.8797 9.07906 87.1197 9.01906C86.4397 8.96906 85.7397 8.76906 85.0297 8.40906C84.9897 8.21906 84.9497 7.90906 84.9297 7.48906C84.8997 7.05906 84.8997 6.74906 84.9197 6.53906C84.9897 6.48906 85.0697 6.46906 85.1597 6.46906C85.4097 6.48906 85.5397 6.53906 85.5397 6.62906C85.5897 7.09906 85.7897 7.47906 86.1097 7.78906C86.4397 8.08906 86.7997 8.25906 87.2097 8.28906C87.5197 8.30906 87.7697 8.24906 87.9797 8.10906C88.1897 7.96906 88.2997 7.74906 88.3197 7.45906C88.3197 7.34906 88.3197 7.24906 88.2997 7.14906C88.2797 7.04906 88.2297 6.95906 88.1597 6.85906C88.0897 6.75906 88.0297 6.67906 87.9897 6.61906C87.9497 6.55906 87.8497 6.46906 87.7097 6.37906C87.5697 6.27906 87.4597 6.20906 87.3897 6.16906C87.3197 6.12906 87.1897 6.04906 86.9897 5.92906C86.7897 5.80906 86.6597 5.72906 86.5897 5.67906C86.0997 5.37906 85.7397 5.05906 85.4797 4.71906C85.2297 4.37906 85.1197 3.96906 85.1497 3.50906C85.1997 2.83906 85.4997 2.33906 86.0497 2.01906C86.5997 1.69906 87.2297 1.55906 87.9297 1.60906L87.9597 1.53906Z" fill="#280901"/>
<path d="M117.85 4.17971L108.34 13.8497C108.29 13.9097 108.16 13.9397 107.95 13.9497C107.74 13.9497 107.52 13.9097 107.28 13.8097C107.21 13.7797 107.16 13.7497 107.12 13.7097C107.08 13.6797 107.06 13.6497 107.06 13.6197V13.5797L116.57 3.90971C116.77 3.72971 117.06 3.72971 117.46 3.89971C117.63 3.96971 117.76 4.06971 117.86 4.17971H117.85Z" fill="#280901"/>
</svg>
