<svg width="12" height="6" viewBox="0 0 12 6" fill="none" xmlns="http://www.w3.org/2000/svg">
<path d="M11.96 2.69C12.01 2.57 12.01 2.43 11.96 2.31C11.93 2.25 11.9 2.19 11.85 2.15L9.85 0.15C9.65 -0.05 9.34 -0.05 9.14 0.15C8.94 0.35 8.94 0.66 9.14 0.86L10.29 2.01H0.5C0.22 2.01 0 2.23 0 2.51C0 2.79 0.22 3.01 0.5 3.01H10.29L9.14 4.16C8.94 4.36 8.94 4.67 9.14 4.87C9.24 4.97 9.37 5.02 9.49 5.02C9.61 5.02 9.75 4.97 9.84 4.87L11.84 2.87C11.84 2.87 11.92 2.77 11.95 2.71L11.96 2.69Z" fill="#E50012"/>
</svg>
