<svg width="16" height="16" viewBox="0 0 16 16" fill="none" xmlns="http://www.w3.org/2000/svg">
<path d="M12.3636 8.72736C11.9564 8.72736 11.6364 9.04736 11.6364 9.45463V10.9092C11.6364 12.9165 10.0073 14.5455 8 14.5455H5.09091C3.08364 14.5455 1.45455 12.9165 1.45455 10.9092V8.00009C1.45455 5.99282 3.08364 4.36373 5.09091 4.36373H6.54545C6.95273 4.36373 7.27273 4.04373 7.27273 3.63645C7.27273 3.22918 6.95273 2.90918 6.54545 2.90918H5.09091C2.28364 2.90918 0 5.19282 0 8.00009V10.9092C0 13.7165 2.28364 16.0001 5.09091 16.0001H8C10.8073 16.0001 13.0909 13.7165 13.0909 10.9092V9.45463C13.0909 9.04736 12.7709 8.72736 12.3636 8.72736Z" fill="#E50012"/>
<path d="M15.9418 0.450909C15.8691 0.276364 15.7236 0.130909 15.5491 0.0581818C15.4618 0.0145455 15.36 0 15.2727 0H10.9091C10.5018 0 10.1818 0.32 10.1818 0.727273C10.1818 1.13455 10.5018 1.45455 10.9091 1.45455H13.5127L7.49089 7.49091C7.19998 7.78182 7.19998 8.23273 7.49089 8.52364C7.63634 8.66909 7.82543 8.74182 7.99998 8.74182C8.17452 8.74182 8.37816 8.66909 8.50907 8.52364L14.5454 2.48727V5.09091C14.5454 5.49818 14.8654 5.81818 15.2727 5.81818C15.68 5.81818 16 5.49818 16 5.09091V0.727273C16 0.64 15.9854 0.538182 15.9418 0.450909Z" fill="#E50012"/>
</svg>
