<?xml version="1.0" encoding="utf-8"?>
<!-- Generator: Adobe Illustrator 27.8.1, SVG Export Plug-In . SVG Version: 6.00 Build 0)  -->
<!DOCTYPE svg PUBLIC "-//W3C//DTD SVG 1.1//EN" "http://www.w3.org/Graphics/SVG/1.1/DTD/svg11.dtd" [
	<!ENTITY ns_extend "http://ns.adobe.com/Extensibility/1.0/">
	<!ENTITY ns_ai "http://ns.adobe.com/AdobeIllustrator/10.0/">
	<!ENTITY ns_graphs "http://ns.adobe.com/Graphs/1.0/">
	<!ENTITY ns_vars "http://ns.adobe.com/Variables/1.0/">
	<!ENTITY ns_imrep "http://ns.adobe.com/ImageReplacement/1.0/">
	<!ENTITY ns_sfw "http://ns.adobe.com/SaveForWeb/1.0/">
	<!ENTITY ns_custom "http://ns.adobe.com/GenericCustomNamespace/1.0/">
	<!ENTITY ns_adobe_xpath "http://ns.adobe.com/XPath/1.0/">
]>
<svg version="1.1" id="レイヤー_1" xmlns:x="&ns_extend;" xmlns:i="&ns_ai;" xmlns:graph="&ns_graphs;"
	 xmlns="http://www.w3.org/2000/svg" xmlns:xlink="http://www.w3.org/1999/xlink" x="0px" y="0px" width="1360px" height="628px"
	 viewBox="0 0 1360 628" style="enable-background:new 0 0 1360 628;" xml:space="preserve">
<style type="text/css">
	.st0{fill:none;}
	.st1{fill:#E50012;}
</style>
<metadata>
	<sfw  xmlns="&ns_sfw;">
		<slices></slices>
		<sliceSourceBounds  bottomLeftOrigin="true" height="628" width="1360" x="0" y="0"></sliceSourceBounds>
	</sfw>
</metadata>
<path class="st0" d="M376.8,101c40.6,36.4,79,86.9,119.7,140.3c113.3,148.8,241.6,317,476.4,303.8c2,0,3.8-0.3,5.7-0.4
	c2.9-0.1,5.9-0.4,8.9-0.7c142-10.4,266.7-48,372.4-100.8V0H0v40C94.4-19.3,238.6-23.1,376.8,101z"/>
<path class="st0" d="M0,628h262c-99-32.4-191.7-76.7-262-137V628z"/>
<path class="st0" d="M263.7,227.7C214,183,173,169.9,142.1,169.9c-38.6,0-61.3,20.6-65.4,24.6c-13.7,13.6-28.3,37.6-28.2,64.8
	c0,28.7,16,58.9,47.4,89.8c85.8,84.2,245.6,135.1,406.8,164.1c-55.7-56.8-101.6-116.9-140.9-168.7
	C326.1,297.6,292.5,253.4,263.7,227.7z"/>
<path class="st1" d="M142.1,169.9C142.1,169.9,142.1,169.9,142.1,169.9c0.1,0,0.1,0,0.1,0H142.1z"/>
<path class="st1" d="M1360,443.2C1254.3,496,1129.6,533.6,987.6,544c-3.1,0.3-6,0.6-8.9,0.7c-2,0.1-3.8,0.4-5.7,0.4
	c-234.9,13.1-363.1-155-476.4-303.8c-40.7-53.4-79.1-103.9-119.7-140.3C238.6-23.1,94.4-19.3,0,40v451
	c70.4,60.4,163.1,104.6,262,137h1098V443.2z M96,349.1c-31.4-30.9-47.4-61.1-47.4-89.8c-0.1-27.1,14.5-51.2,28.2-64.8
	c4-4.1,26.8-24.6,65.4-24.6c0,0-0.1,0-0.1,0h0.1c0,0,0,0-0.1,0c30.8,0,71.8,13,121.6,57.8c28.7,25.7,62.4,69.9,98.1,116.8
	c39.4,51.8,85.3,111.9,140.9,168.7C341.6,484.2,181.8,433.3,96,349.1z"/>
</svg>
