<?xml version="1.0" encoding="utf-8"?>
<!-- Generator: Adobe Illustrator 27.8.1, SVG Export Plug-In . SVG Version: 6.00 Build 0)  -->
<!DOCTYPE svg PUBLIC "-//W3C//DTD SVG 1.1//EN" "http://www.w3.org/Graphics/SVG/1.1/DTD/svg11.dtd" [
	<!ENTITY ns_extend "http://ns.adobe.com/Extensibility/1.0/">
	<!ENTITY ns_ai "http://ns.adobe.com/AdobeIllustrator/10.0/">
	<!ENTITY ns_graphs "http://ns.adobe.com/Graphs/1.0/">
	<!ENTITY ns_vars "http://ns.adobe.com/Variables/1.0/">
	<!ENTITY ns_imrep "http://ns.adobe.com/ImageReplacement/1.0/">
	<!ENTITY ns_sfw "http://ns.adobe.com/SaveForWeb/1.0/">
	<!ENTITY ns_custom "http://ns.adobe.com/GenericCustomNamespace/1.0/">
	<!ENTITY ns_adobe_xpath "http://ns.adobe.com/XPath/1.0/">
]>
<svg version="1.1" id="レイヤー_1" xmlns:x="&ns_extend;" xmlns:i="&ns_ai;" xmlns:graph="&ns_graphs;"
	 xmlns="http://www.w3.org/2000/svg" xmlns:xlink="http://www.w3.org/1999/xlink" x="0px" y="0px" width="375px" height="179px"
	 viewBox="0 0 375 179" style="enable-background:new 0 0 375 179;" xml:space="preserve">
<style type="text/css">
	.st0{fill:none;}
	.st1{fill:#E50012;}
</style>
<metadata>
	<sfw  xmlns="&ns_sfw;">
		<slices></slices>
		<sliceSourceBounds  bottomLeftOrigin="true" height="179" width="375" x="0" y="0"></sliceSourceBounds>
	</sfw>
</metadata>
<path class="st0" d="M0,132.9V179h82.4c-31.5-10.3-60.9-24.8-81.6-45.2C0.6,133.5,0.3,133.2,0,132.9z"/>
<path class="st0" d="M113.9,28.7c11.5,10.3,22.4,24.7,33.9,39.9c32.1,42.3,68.4,90.2,134.9,86.4c0.6,0,1.1-0.1,1.6-0.1
	c0.8,0,1.7-0.1,2.5-0.2c32.7-2.4,62.2-9.9,88.1-20.8V0H0v16.6C26.2-4.9,71.1-10,113.9,28.7z"/>
<path class="st0" d="M81.9,64.8C67.8,52.1,56.2,48.4,47.5,48.3c-10.9,0-17.4,5.9-18.5,7c-3.9,3.9-8,10.7-8,18.4
	c0,8.2,4.5,16.8,13.4,25.6c24.3,24,69.5,38.4,115.2,46.7c-15.8-16.2-28.8-33.3-39.9-48C99.6,84.7,90.1,72.1,81.9,64.8z"/>
<path class="st1" d="M375,134c-26,10.8-55.4,18.3-88.1,20.8c-0.9,0.1-1.7,0.2-2.5,0.2c-0.6,0-1.1,0.1-1.6,0.1
	c-66.5,3.7-102.8-44.1-134.9-86.4c-11.5-15.2-22.4-29.6-33.9-39.9C71.1-10,26.2-4.9,0,16.6v116.3c0.3,0.3,0.6,0.6,0.9,0.9
	c20.7,20.4,50.1,34.9,81.6,45.2H375V134z M34.4,99.3C25.5,90.5,21,81.9,21,73.8c0-7.7,4.1-14.6,8-18.4c1.1-1.2,7.6-7,18.5-7
	c0,0,0,0,0,0h0c0,0,0,0,0,0c8.7,0,20.3,3.7,34.4,16.4c8.1,7.3,17.7,19.9,27.8,33.2c11.1,14.7,24.1,31.8,39.9,48
	C104,137.8,58.7,123.3,34.4,99.3z"/>
<path class="st1" d="M47.5,48.3C47.5,48.3,47.5,48.3,47.5,48.3C47.5,48.3,47.5,48.3,47.5,48.3L47.5,48.3z"/>
</svg>
