<svg width="262" height="59" viewBox="0 0 262 59" fill="none" xmlns="http://www.w3.org/2000/svg">
<g clip-path="url(#clip0_1501_1543)">
<path d="M45.9466 0C20.5655 0 0 13.2115 0 29.5C0 45.7885 20.5655 59 45.9466 59C71.3277 59 91.8839 45.7885 91.8839 29.5C91.8839 13.2115 71.3184 0 45.9466 0ZM45.9466 55.64C22.6544 55.64 3.78036 43.935 3.78036 29.5C3.78036 15.065 22.6637 3.35995 45.9466 3.35995C69.2295 3.35995 88.1036 15.065 88.1036 29.5C88.1036 43.935 69.2295 55.64 45.9466 55.64Z" fill="#A37E39"/>
<path d="M70.3202 27.3639C70.4034 27.5648 74.156 28.35 77.2801 27.1265C78.8144 26.5239 79.6648 25.0631 79.1749 23.867C78.6943 22.6709 77.0583 22.1962 75.5239 22.7988C72.3998 24.0314 70.237 27.1631 70.3109 27.3639H70.3202Z" fill="#EB5C01"/>
<path d="M70.348 29.1443C70.2741 29.3452 72.4646 32.4586 75.598 33.6638C77.1323 34.2573 78.7591 33.7642 79.2305 32.5682C79.7019 31.3721 78.8423 29.9204 77.3079 29.3269C74.1746 28.1217 70.4312 28.9434 70.348 29.1443Z" fill="#E50083"/>
<path d="M69.1278 30.4497C68.9337 30.541 68.3792 34.3027 69.8303 37.2974C70.542 38.7674 72.0763 39.507 73.2502 38.95C74.424 38.3931 74.7938 36.7587 74.0821 35.2888C72.6309 32.294 69.3219 30.3675 69.1278 30.4588V30.4497Z" fill="#EB5C01"/>
<path d="M67.3347 30.5867C67.1221 30.5228 64.1274 32.8967 63.1199 36.0558C62.6208 37.6079 63.2308 39.1783 64.4694 39.5709C65.7079 39.9544 67.1221 39.014 67.612 37.4618C68.6195 34.2936 67.538 30.6506 67.3347 30.5867Z" fill="#E50083"/>
<path d="M65.9298 29.4636C65.8281 29.281 61.9923 28.9888 59.0623 30.614C57.6204 31.4175 56.9826 32.9696 57.6204 34.0927C58.2581 35.2157 59.9404 35.4713 61.373 34.6679C64.303 33.0427 66.0314 29.6462 65.9205 29.4636H65.9298Z" fill="#EB5C01"/>
<path d="M65.9114 27.1078C66.0131 26.9252 64.2754 23.5379 61.3362 21.9218C59.8943 21.1275 58.212 21.3923 57.5835 22.5244C56.955 23.6475 57.602 25.1996 59.0439 25.9939C61.9832 27.61 65.8097 27.2996 65.9114 27.1078Z" fill="#E50083"/>
<path d="M67.2979 25.9759C67.5013 25.912 68.5642 22.2598 67.5382 19.1008C67.0299 17.5486 65.6157 16.6082 64.3772 17.0008C63.1386 17.3934 62.5471 18.9729 63.0462 20.5251C64.0721 23.6842 67.0761 26.0398 67.2887 25.9759H67.2979Z" fill="#EB5C01"/>
<path d="M69.091 26.0855C69.2851 26.1768 72.5848 24.2229 74.0267 21.2282C74.7384 19.7582 74.3502 18.1147 73.1764 17.5669C72.0025 17.01 70.4774 17.7678 69.775 19.2378C68.3331 22.2416 68.9061 25.9942 69.1002 26.0855H69.091Z" fill="#E50083"/>
<path d="M68.1019 26.5055C67.3625 26.5055 66.7339 26.9163 66.4104 27.5189C66.2256 27.8476 66.1054 27.8841 65.8004 27.8933C64.5434 27.8933 61.9276 27.7928 57.491 27.6376C53.4149 27.4915 53.6737 27.4824 51.5016 27.3454C51.2705 27.3363 51.2428 27.1628 51.3075 27.0259C52.1394 25.0811 52.9435 23.3098 53.7476 22.0773C55.6794 19.0825 58.3136 15.4304 60.9848 13.3122C62.2511 12.3078 63.2494 12.0978 64.3493 11.8239C65.4492 11.5409 65.8466 11.1209 65.6802 10.7283C65.5139 10.3174 64.9223 10.3996 64.0997 10.7557C63.5082 11.0113 62.8981 11.3765 62.3066 11.6687C61.0958 12.2622 58.3044 12.107 56.5482 11.5409C54.7828 10.9839 52.2688 9.95222 49.2186 9.95222C46.1684 9.95222 44.172 10.6279 42.8317 11.2579C42.1755 11.5683 42.0831 11.477 42.2679 11.2852C42.6007 10.9565 44.135 9.41353 44.5971 8.96614C44.9761 8.5918 44.6896 8.30876 44.2921 8.64658C43.9224 8.94788 36.4264 15.8595 36.4264 15.8595C35.9827 16.2978 36.4264 16.6995 36.7406 16.4165C37.0549 16.1334 38.0901 15.2295 38.848 14.7365C39.6059 14.2435 41.4268 13.1478 43.793 13.1478C47.1852 13.1478 49.4866 14.4169 53.0082 14.4169C55.3374 14.4169 58.4523 13.5769 58.9606 13.4217C59.4598 13.2665 59.3026 13.6409 58.8035 13.9787C58.3044 14.3165 53.646 18.6351 50.8731 22.1229C49.8379 23.4194 48.5993 25.0446 47.2406 26.8159C47.1112 26.9802 46.9356 27.0807 46.7138 27.0715C44.2182 26.9528 41.5285 26.8433 38.9497 26.7702C38.7094 26.7702 38.58 26.6881 38.5615 26.5237C38.2195 23.5564 36.0012 18.699 27.4977 19.0551C20.242 19.3564 11.8032 24.7616 11.8032 33.7823C11.8032 40.2922 17.1641 47.706 27.2112 47.706C35.3912 47.706 42.1385 43.8256 46.1869 37.7266C47.8691 35.1884 49.2371 32.0202 50.6882 28.5324C50.7437 28.3863 50.9193 28.3406 51.0949 28.3498C52.3704 28.4137 53.5443 28.4593 54.5518 28.4959C57.6851 28.6145 63.1754 28.7332 65.7819 28.7789C66.0777 28.7789 66.2163 28.8337 66.318 29.0802C66.6045 29.7924 67.2885 30.3037 68.1204 30.3037C69.1833 30.3037 70.0522 29.4545 70.0522 28.4046C70.0522 27.3546 69.1926 26.5055 68.1204 26.5055H68.1019ZM45.9281 28.5232C43.9594 31.0889 41.8797 33.7732 39.7816 36.3114C34.587 42.593 29.3371 45.6973 24.3274 45.6973C18.5413 45.6973 13.8829 41.2783 13.8829 36.3479C13.8829 27.7472 22.5897 20.5251 30.1135 20.5251C33.5703 20.5251 37.0179 22.5703 37.4061 26.5146C37.4154 26.6698 37.2675 26.7428 37.1566 26.7428C35.4928 26.7063 34.929 26.7063 33.5149 26.7063C31.2781 26.7063 29.7715 26.8889 28.459 27.1994C23.3476 28.3954 19.7337 31.2623 19.7337 35.444C19.7337 37.2609 21.1293 39.9544 25.3626 39.9544C30.779 39.9544 37.9699 34.9784 38.543 28.1124C38.5523 27.948 38.6909 27.8659 38.848 27.8659C39.7076 27.875 40.5395 27.8933 41.3159 27.9206C42.7116 27.9754 45.5122 28.0941 45.734 28.1033C46.0298 28.1215 46.0575 28.3498 45.9189 28.5232H45.9281ZM37.3599 28.1489C37.0272 30.121 35.6592 32.8784 33.6443 34.6862C30.2151 37.754 27.3498 38.6944 24.6139 38.6944C21.878 38.6944 20.7411 37.2062 20.7411 35.6814C20.7411 33.0427 23.9115 30.5045 27.5717 29.0619C30.2336 28.0028 32.646 27.8476 37.1104 27.8476C37.2582 27.8476 37.3876 27.9846 37.3599 28.1489Z" fill="#1E0E07"/>
<path d="M203.086 3.54248H160.929V12.901H203.086V3.54248Z" fill="#1E0E07"/>
<path d="M207.642 44.4189H156.372V53.4853H207.642V44.4189Z" fill="#1E0E07"/>
<path d="M151.797 53.4852L136.768 12.1615H149.948V3.54248H98.5112V12.1615H111.692L96.6719 53.4852H107.144L118.994 20.8992V53.4852H129.466V20.8992L141.324 53.4852H151.797Z" fill="#1E0E07"/>
<path d="M220.204 10.9016H254.439V19.7306H262V3.04039H241.62V0H232.256V3.04039H213.013V19.7306H220.204V10.9016Z" fill="#1E0E07"/>
<path d="M262 21.6573L241.767 28.3498V19.7308H252.083V13.4126H222.551V19.7308H232.21V20.3425L213.013 26.6515V34.111L232.21 27.802V30.0297L213.013 36.3388V43.7982L232.21 37.4892V39.717L213.013 46.026V53.4855L232.21 47.1764V53.4855H241.767V44.7478L262 53.4855V44.8847L241.767 36.4027L262 29.7102V21.6573Z" fill="#1E0E07"/>
</g>
<defs>
<clipPath id="clip0_1501_1543">
<rect width="262" height="59" fill="white"/>
</clipPath>
</defs>
</svg>
