<?xml version="1.0" encoding="utf-8"?>
<!-- Generator: Adobe Illustrator 27.7.0, SVG Export Plug-In . SVG Version: 6.00 Build 0)  -->
<!DOCTYPE svg PUBLIC "-//W3C//DTD SVG 1.1//EN" "http://www.w3.org/Graphics/SVG/1.1/DTD/svg11.dtd" [
	<!ENTITY ns_extend "http://ns.adobe.com/Extensibility/1.0/">
	<!ENTITY ns_ai "http://ns.adobe.com/AdobeIllustrator/10.0/">
	<!ENTITY ns_graphs "http://ns.adobe.com/Graphs/1.0/">
	<!ENTITY ns_vars "http://ns.adobe.com/Variables/1.0/">
	<!ENTITY ns_imrep "http://ns.adobe.com/ImageReplacement/1.0/">
	<!ENTITY ns_sfw "http://ns.adobe.com/SaveForWeb/1.0/">
	<!ENTITY ns_custom "http://ns.adobe.com/GenericCustomNamespace/1.0/">
	<!ENTITY ns_adobe_xpath "http://ns.adobe.com/XPath/1.0/">
]>
<svg version="1.1" id="レイヤー_1" xmlns:x="&ns_extend;" xmlns:i="&ns_ai;" xmlns:graph="&ns_graphs;"
	 xmlns="http://www.w3.org/2000/svg" xmlns:xlink="http://www.w3.org/1999/xlink" x="0px" y="0px" width="220px" height="331.4px"
	 viewBox="0 0 220 331.4" style="enable-background:new 0 0 220 331.4;" xml:space="preserve">
<style type="text/css">
	.st0{fill:#4F1705;}
	.st1{fill:#A99552;}
	.st2{fill:#EA6000;}
	.st3{fill:#E40683;}
	.st4{fill:#231815;}
</style>
<metadata>
	<sfw  xmlns="&ns_sfw;">
		<slices></slices>
		<sliceSourceBounds  bottomLeftOrigin="true" height="331.4" width="220" x="0" y="63.6"></sliceSourceBounds>
	</sfw>
</metadata>
<path class="st0" d="M67.4,322.4c-2.6-0.9-3.5-1.5-3.5-2.9c0-0.1,0-2.3,2.4-2.3c2.2,0,3.2,1.5,3.7,2.4c0.3,0.5,0.4,0.7,0.7,0.7
	s0.6-0.2,0.6-0.5c0-0.2-1-2.8-1.1-2.8l0-0.1c-0.2-0.5-0.3-0.8-0.7-0.8c-0.2,0-0.3,0.1-0.5,0.3l0,0c-0.1,0.1-0.2,0.1-0.3,0.1
	c-0.1,0-0.6-0.1-0.8-0.1c-0.1,0-0.2,0-0.3-0.1c-0.5-0.1-1-0.2-1.4-0.2c-2.4,0-4.1,1.6-4.1,4s1.8,3.5,4.6,4.4c2.5,0.9,3.5,1.5,3.5,3
	c0,1.8-1.4,2.7-2.6,2.7c-1.9,0-3.5-1.3-4.3-2.5l-0.1-0.2c-0.4-0.6-0.5-0.7-0.8-0.7c-0.3,0-0.6,0.2-0.6,0.6c0,0.2,1,2.6,1,2.7l0,0.1
	c0.4,1,0.4,1.2,0.8,1.2c0.3,0,0.4-0.1,0.7-0.4c0.1-0.1,0.3-0.2,0.6-0.2c0.1,0,0.2,0,0.7,0.2c0.8,0.3,1.5,0.4,2.2,0.4
	c2.1,0,4.4-1.5,4.4-4.4C72,325.4,71.4,323.8,67.4,322.4L67.4,322.4z"/>
<path class="st0" d="M75.6,318.9c0.7,0,1.3-0.6,1.3-1.3s-0.6-1.3-1.3-1.3c-0.4,0-0.7,0.1-0.9,0.4c-0.3,0.3-0.4,0.6-0.4,1
	C74.3,318.3,74.9,318.9,75.6,318.9z"/>
<path class="st0" d="M77.2,329.9c-0.6,0-0.7-0.6-0.7-2.1c0-0.5,0-1.9,0-3.3c0-1.3,0-2.5,0-2.9c0-0.2,0-0.6-0.4-0.6
	c-0.1,0-0.4,0.1-1.2,0.4c-0.2,0.1-0.4,0.1-0.4,0.1c-0.9,0.3-1.1,0.3-1.1,0.7c0,0.2,0.2,0.4,0.4,0.4c0,0,0.1,0,0.1,0
	c0.1,0,0.4,0,0.4,0c0.2,0,0.3,0.1,0.3,0.2c0.1,0.2,0.1,1.9,0.1,3c0,3.2-0.1,3.7-0.1,3.7c-0.1,0.4-0.4,0.4-0.6,0.4
	c-0.3,0-0.8,0-0.8,0.5c0,0.4,0.2,0.5,0.7,0.5h3.4c0.6,0,0.7-0.3,0.7-0.5C78,330,77.5,330,77.2,329.9L77.2,329.9z"/>
<path class="st0" d="M89.1,330c-0.5,0-0.6-0.4-0.7-0.4c0-0.1-0.1-0.6-0.1-2.8c0-3,0-3.4-0.3-4.1c-0.1-0.3-0.6-1.4-2.4-1.4
	c-0.8,0-1.5,0.2-2.3,0.7c0,0-0.1,0.1-0.2,0.2c-0.1,0.1-0.3,0.2-0.4,0.3c0,0,0-0.1,0-0.1c0-0.8,0-1.1-0.4-1.1c0,0-0.1,0-1.1,0.3
	c-0.4,0.1-0.8,0.2-1,0.3c-0.7,0.2-0.9,0.2-0.9,0.5c0,0.2,0.2,0.4,0.4,0.4c0,0,0.2,0,0.3,0c0.1,0,0.2,0,0.2,0c0.6,0,0.6,0.3,0.6,3.4
	c0,2.8-0.1,3.5-0.1,3.6c-0.1,0.2-0.3,0.4-0.7,0.4c-0.3,0-0.7,0-0.7,0.5c0,0.2,0.2,0.5,0.6,0.5h3.6c0.4,0,0.6-0.3,0.6-0.5
	c0-0.5-0.5-0.5-0.7-0.5h-0.1c-0.4,0-0.6-0.1-0.7-0.7c0-0.1-0.1-0.6-0.1-3.2c0-2.2,0-2.4,0.5-2.9c0.5-0.5,1.2-0.8,1.8-0.8
	c0.3,0,0.7,0.1,1.1,0.6c0.4,0.6,0.4,1.2,0.4,3c0,2.9,0,3.4-0.2,3.6c-0.2,0.2-0.3,0.3-0.7,0.3c-0.3,0-0.6,0.2-0.6,0.5
	c0,0.3,0.2,0.5,0.6,0.5h3.6c0.4,0,0.6-0.2,0.6-0.5C89.9,330,89.4,330,89.1,330L89.1,330z"/>
<path class="st0" d="M99,328.5c-0.3,0-0.4,0.2-0.6,0.4c-0.6,0.7-1.6,1.2-2.4,1.2c-1.6,0-2.7-1.6-2.7-4c0-2.3,1-4.1,2.3-4.1
	c0.2,0,1,0.1,1.1,1c0,0.4,0.1,1.4,1.1,1.4c0.6,0,1.3-0.4,1.3-1.2c0-1.3-1.7-2-3.2-2c-2.8,0-4.7,2.1-4.7,5.3c0,3.6,2.3,4.9,4.2,4.9
	c2.6,0,3.9-2.1,3.9-2.5C99.4,328.6,99.2,328.5,99,328.5z"/>
<path class="st0" d="M109.4,328.3c-0.2,0-0.4,0.2-0.7,0.6c-0.1,0.1-0.1,0.2-0.2,0.2c-0.7,0.6-1.5,1-2.2,1c-1.4,0-3-1.5-3-3.7
	c0-0.4,0.1-0.4,0.4-0.4h5.1c0.2,0,0.8,0,0.8-0.7c0-1.1-1-4.2-4-4.2c-2.1,0-4.3,1.6-4.3,5.1c0,3.1,1.8,5.2,4.4,5.2s4.1-2.1,4.1-2.6
	C109.8,328.5,109.6,328.3,109.4,328.3z M103.5,324.7c0-0.3,0.5-2.6,2.1-2.6c1.4,0,2.1,1.8,2.1,2.5c0,0.3,0,0.3-0.4,0.3h-3.5
	C103.5,324.9,103.5,324.9,103.5,324.7z"/>
<path class="st0" d="M126.7,330c-1.5,0-1.5-0.3-1.6-0.6c0-0.3-0.1-6.9-0.1-8.4c0-0.3,0-1.1,0-1.9c0-0.7,0-1.5,0-1.7
	c0-0.9,0-1.1-0.4-1.1c-0.1,0-0.3,0.1-0.7,0.3c-0.1,0.1-0.2,0.1-0.3,0.1c-0.7,0.3-1.7,0.5-2.1,0.5c-0.6,0-1,0.1-1,0.5
	s0.4,0.5,0.9,0.5c1.7,0,1.7,0,1.7,0.7c0,0.5,0,2,0,3.4c0,1.3,0,2.6,0,3.1c0,3.8-0.1,4.2-0.1,4.3c-0.2,0.4-0.5,0.5-1.6,0.5
	c-0.7,0-1.2,0-1.2,0.5c0,0.2,0.2,0.5,0.7,0.5h5.8c0.5,0,0.7-0.2,0.7-0.5C127.4,330.2,127.2,330,126.7,330L126.7,330z"/>
<path class="st0" d="M133.9,316.2c-2.7,0-4.3,2.7-4.3,5.2c0,3.1,2.3,4.5,3.9,4.5c0.9,0,1.7-0.2,2.7-1.2c0,0,0.1-0.1,0.1-0.1
	c0,0,0,0.1,0,0.1c0,1.1-0.3,2.5-0.7,3.5c-0.9,2.1-2.1,2.2-2.3,2.2c-0.6,0-0.6-0.3-0.7-0.7c0-0.6-0.1-1.7-1.2-1.7
	c-0.7,0-1.3,0.6-1.3,1.3c0,1.2,1.5,2.1,2.8,2.1c3,0,5.7-4,5.7-8.4C138.6,319.7,137,316.2,133.9,316.2L133.9,316.2z M136.4,322.3
	c0,1.9-1.9,2.3-2.3,2.3c-1.4,0-2.3-1.4-2.3-3.5c0-1.9,0.7-3.9,2.1-3.9C135.8,317.2,136.4,320.7,136.4,322.3z"/>
<path class="st0" d="M146.8,330c-1.5,0-1.5-0.3-1.6-0.6c0-0.3-0.1-6.9-0.1-8.4c0-0.3,0-1.1,0-1.9c0-0.7,0-1.5,0-1.7
	c0-0.9,0-1.1-0.4-1.1c-0.1,0-0.3,0.1-0.7,0.3c-0.1,0.1-0.2,0.1-0.3,0.1c-0.7,0.3-1.7,0.5-2.1,0.5c-0.6,0-1,0.1-1,0.5
	s0.4,0.5,0.9,0.5c1.7,0,1.7,0,1.7,0.7c0,0.5,0,2,0,3.4c0,1.3,0,2.6,0,3.1c0,3.8-0.1,4.2-0.1,4.3c-0.2,0.4-0.5,0.5-1.6,0.5
	c-0.7,0-1.2,0-1.2,0.5c0,0.2,0.2,0.5,0.7,0.5h5.8c0.5,0,0.7-0.2,0.7-0.5C147.5,330.2,147.3,330,146.8,330L146.8,330z"/>
<path class="st0" d="M153.8,316.2c-3.1,0-4.6,3.8-4.6,7.6s1.4,7.6,4.6,7.6c3.1,0,4.6-3.8,4.6-7.6C158.4,320,157,316.2,153.8,316.2z
	 M156.2,323.8c0,1.5-0.2,6.5-2.4,6.5c-0.4,0-0.7-0.1-1-0.4c-0.9-0.9-1.4-3.1-1.4-6.1c0-1.5,0.2-6.5,2.4-6.5
	C156,317.3,156.2,322.3,156.2,323.8L156.2,323.8z"/>
<path class="st1" d="M110,0C49.2,0,0,32,0,71.5C0,111,49.2,143,110,143c60.7,0,110-32,110-71.5C220,32,170.8,0,110,0z M110,134.9
	c-55.7,0-100.9-28.4-100.9-63.4c0-35,45.2-63.4,100.9-63.4c55.7,0,100.9,28.4,100.9,63.4C210.9,106.5,165.7,134.9,110,134.9
	L110,134.9z"/>
<path class="st2" d="M168.4,66.3c0.2,0.5,9.2,2.4,16.7-0.6c3.7-1.5,5.7-5,4.5-7.9c-1.1-2.9-5.1-4.1-8.7-2.6
	C173.4,58.3,168.2,65.8,168.4,66.3z"/>
<path class="st3" d="M168.4,70.6c-0.2,0.5,5.1,8,12.6,11c3.7,1.4,7.6,0.3,8.7-2.7c1.1-2.9-0.9-6.4-4.6-7.9
	C177.6,68.2,168.6,70.1,168.4,70.6z"/>
<path class="st2" d="M165.5,73.8c-0.5,0.2-1.8,9.3,1.7,16.6c1.7,3.6,5.4,5.4,8.2,4c2.8-1.3,3.7-5.3,2-8.9
	C173.9,78.3,166,73.6,165.5,73.8L165.5,73.8z"/>
<path class="st3" d="M161.2,74.1c-0.5-0.2-7.7,5.6-10.1,13.3c-1.2,3.8,0.3,7.6,3.2,8.5c3,0.9,6.4-1.4,7.5-5.1
	C164.3,83.1,161.7,74.3,161.2,74.1z"/>
<path class="st2" d="M157.9,71.4c-0.3-0.5-9.4-1.2-16.4,2.8c-3.4,1.9-5,5.7-3.5,8.4c1.5,2.7,5.6,3.3,9,1.4
	C154,80.1,158.1,71.9,157.9,71.4L157.9,71.4z"/>
<path class="st3" d="M157.8,65.7c0.2-0.5-3.9-8.6-11-12.6c-3.4-1.9-7.5-1.3-9,1.5c-1.5,2.7,0,6.5,3.5,8.4
	C148.4,66.9,157.6,66.2,157.8,65.7L157.8,65.7z"/>
<path class="st2" d="M161.1,63c0.5-0.2,3-9,0.6-16.7c-1.2-3.8-4.6-6-7.6-5.1c-3,0.9-4.4,4.8-3.2,8.5C153.4,57.4,160.6,63.1,161.1,63
	L161.1,63z"/>
<path class="st3" d="M165.4,63.2c0.5,0.2,8.4-4.5,11.8-11.8c1.7-3.6,0.8-7.5-2-8.9c-2.8-1.3-6.5,0.5-8.1,4
	C163.6,53.9,165,63,165.4,63.2z"/>
<path class="st4" d="M163.1,64.2c-1.8,0-3.3,1-4.1,2.5c-0.4,0.8-0.7,0.9-1.4,0.9c-3,0-9.3-0.2-19.9-0.6c-9.8-0.4-9.2-0.4-14.3-0.7
	c-0.6,0-0.6-0.4-0.5-0.8c2-4.7,3.9-9,5.8-12c4.6-7.2,10.9-16.1,17.3-21.2c3-2.4,5.4-2.9,8.1-3.6c2.6-0.7,3.6-1.7,3.2-2.6
	c-0.4-1-1.8-0.8-3.8,0.1c-1.4,0.6-2.9,1.5-4.3,2.2c-2.9,1.5-9.6,1.1-13.8-0.3c-4.2-1.4-10.2-3.8-17.6-3.8c-7.3,0-12.1,1.6-15.3,3.2
	c-1.6,0.7-1.8,0.5-1.3,0.1c0.8-0.8,4.5-4.5,5.6-5.6c0.9-0.9,0.2-1.6-0.7-0.8c-0.9,0.7-18.8,17.5-18.8,17.5c-1.1,1.1,0,2,0.7,1.3
	c0.8-0.7,3.2-2.9,5.1-4.1c1.8-1.2,6.2-3.8,11.8-3.8c8.1,0,13.6,3.1,22.1,3.1c5.6,0,13-2,14.2-2.4c1.2-0.4,0.8,0.5-0.4,1.4
	c-1.2,0.8-12.4,11.3-19,19.7c-2.5,3.2-5.5,7.1-8.7,11.4c-0.3,0.4-0.7,0.6-1.2,0.6c-6-0.3-12.4-0.6-18.6-0.7c-0.6,0-0.9-0.2-0.9-0.6
	c-0.8-7.2-6.1-19-26.5-18.1C48.5,46.9,28.2,60,28.2,81.9c0,15.8,12.8,33.8,36.9,33.8c19.6,0,35.7-9.4,45.4-24.2
	c4-6.1,7.3-13.8,10.8-22.3c0.1-0.3,0.5-0.5,1-0.5c3.1,0.1,5.9,0.3,8.3,0.4c7.5,0.3,20.6,0.6,26.9,0.7c0.7,0,1.1,0.1,1.3,0.7
	c0.7,1.7,2.3,3,4.3,3c2.5,0,4.6-2.1,4.6-4.6S165.6,64.2,163.1,64.2L163.1,64.2z M110,69.1c-4.7,6.2-9.7,12.7-14.7,18.9
	c-12.4,15.2-25,22.8-37,22.8c-13.9,0-25-10.7-25-22.7c0-20.9,20.8-38.4,38.9-38.4c8.3,0,16.5,5,17.5,14.5c0,0.4-0.3,0.6-0.6,0.6
	c-4-0.1-5.3-0.1-8.7-0.1c-5.4,0-9,0.5-12.1,1.2c-12.2,2.9-20.9,9.9-20.9,20c0,4.4,3.4,10.9,13.5,10.9c13,0,30.2-12.1,31.6-28.7
	c0-0.4,0.4-0.6,0.7-0.6c2.1,0,4,0.1,5.9,0.1c3.3,0.1,10.1,0.4,10.6,0.5C110.2,68.2,110.3,68.7,110,69.1L110,69.1z M89.5,68.2
	c-0.8,4.8-4.1,11.5-8.9,15.9c-8.2,7.4-15.1,9.7-21.6,9.7s-9.3-3.6-9.3-7.3c0-6.4,7.6-12.5,16.3-16.1c6.4-2.6,12.2-2.9,22.8-2.9
	C89.2,67.5,89.5,67.8,89.5,68.2L89.5,68.2z"/>
<path class="st0" d="M72.4,278.1L72.4,278.1c-0.4-0.9-4.6-8.2-11.6-16.3c-8-9.2-15.8-14-16.3-14.1c-0.4-0.1-0.9,0-1.1,0.4
	c-0.2,0.4-0.1,0.8,0.2,1.1c0.4,0.5,6.2,7.8,10.6,14.9c4.8,7.9,9.1,17.7,10.6,21.7c0.1,0.4,0.3,0.6,0.6,0.6c0,0,0.1,0,0.2,0
	c0.2,0,0.4-0.1,0.7-0.3l6-6.5c0.6-0.6,0.7-1,0.3-1.6L72.4,278.1L72.4,278.1z"/>
<path class="st0" d="M10.7,208.3C10.7,208.3,10.7,208.3,10.7,208.3c2.1-0.1,3.7-0.1,5.8-0.1c1.8,0,3.2,0,6.1,0.1
	c0.4,0,0.7-0.3,0.7-0.7l0.1-1.1c0-0.4-0.3-0.7-0.7-0.8l-1.6-0.1c-2.1-0.2-2.1-0.2-2.1-5v-5.7c0-0.6,0.5-1.2,1.2-1.2h2.8
	c1.4,0,2.7,0,3.3,0.2c0.5,0.2,0.8,0.5,1,1.2l0.5,1.8c0.1,0.3,0.4,0.5,0.7,0.5h1.2c0.4,0,0.7-0.3,0.7-0.7c0-0.5,0-1.1-0.1-1.8
	c0-0.8-0.1-1.8-0.1-2.7c0-0.9,0.1-1.9,0.1-2.8c0-0.7,0.1-1.4,0.1-1.9c0-0.4-0.3-0.7-0.7-0.7h-1.2c-0.3,0-0.6,0.2-0.7,0.6l-0.4,1.8
	c-0.2,0.9-0.4,1-0.7,1.1c-0.3,0.1-1.5,0.2-3.7,0.2h-2.8c-0.6,0-1.2-0.5-1.2-1.2v-9.1c0-0.6,0.6-1.1,1.2-1.1h2.3c1.9,0,3.4,0,4.3,0.2
	c2,0.6,2.4,1.9,2.7,3.8c0.1,0.4,0.4,0.6,0.8,0.6l1.1-0.1c0.4,0,0.7-0.4,0.6-0.8c-0.1-1.7-0.1-3.9-0.1-6c0-0.2-0.1-0.4-0.3-0.6
	c-0.2-0.1-0.4-0.2-0.6-0.1c-0.5,0.1-3.5,0.1-6,0.1h-8.5c-1.7,0-3.3,0-5.3-0.1c-0.2,0-0.3,0-0.5,0.1c-0.2,0.1-0.3,0.3-0.3,0.5
	l-0.1,1.2c0,0.4,0.2,0.7,0.6,0.8l0.7,0.1c2,0.2,2.1,0.3,2.1,5.1v16.6c0,4.8,0,4.8-2.1,5l-1.1,0.1c-0.4,0.1-0.7,0.4-0.6,0.8l0.1,1.2
	C10,208,10.3,208.3,10.7,208.3L10.7,208.3z"/>
<path class="st0" d="M78.8,176.3c-0.1-0.1-0.3-0.2-0.5-0.1c-1.6,0.1-2.8,0.1-4.8,0.1c-1.8,0-3.5,0-5.2-0.1c-0.2,0-0.4,0-0.5,0.1
	c-0.2,0.1-0.3,0.3-0.3,0.5l-0.1,1.1c0,0.2,0,0.4,0.2,0.5c0.1,0.1,0.3,0.2,0.5,0.3l1.2,0.1c1.1,0.1,1.6,0.4,1.7,0.6
	c0.2,0.3,0.8,1.9,0.8,9.2v5.3c0,7.6-2.9,11.5-8.5,11.5c-6,0-8.6-3.6-8.6-11.6v-9.9c0-4.9,0.2-4.9,2.1-5.1l1.1-0.1
	c0.4,0,0.7-0.4,0.7-0.8l-0.1-1.1c0-0.2-0.1-0.4-0.3-0.5c-0.1-0.1-0.3-0.2-0.5-0.1c-2.2,0.1-3.7,0.1-5.6,0.1c-1.9,0-3.5-0.1-5.7-0.1
	c-0.4,0-0.7,0.3-0.7,0.7l-0.1,1.1c0,0.2,0,0.4,0.2,0.5c0.1,0.1,0.3,0.2,0.5,0.3l1.1,0.1c1.9,0.2,2.1,0.2,2.1,5.1v10.9
	c0,5.7,1.2,9.2,3.8,11.4c2.1,1.8,5.2,2.7,9.1,2.7c3.7,0,7.3-1.4,9.3-3.6c2.3-2.5,3.4-6.2,3.4-11.5v-5.7c0-2.4,0-7.3,0.6-8.7
	c0.1-0.2,0.7-0.6,1.7-0.6l1.1-0.1c0.4,0,0.7-0.4,0.7-0.8l-0.1-1.1C79.1,176.6,79,176.4,78.8,176.3L78.8,176.3z"/>
<path class="st0" d="M91.9,209.4c4.2,0,7.9-2.7,9.7-7.1c1-2.4,1.1-6,1.1-9.2V184c0-4.9,0.1-4.9,2.2-5.2l0.7-0.1
	c0.4-0.1,0.7-0.4,0.6-0.8l-0.1-1.1c0-0.2-0.1-0.4-0.3-0.5c-0.1-0.1-0.3-0.2-0.5-0.2c-1.9,0.1-3.5,0.1-5.2,0.1c-1.9,0-3.4,0-6.1-0.1
	c0,0-0.1,0-0.1,0c-0.4,0-0.6,0.3-0.7,0.7l-0.1,1.2c0,0.2,0,0.4,0.2,0.5c0.1,0.1,0.3,0.2,0.5,0.3l1.2,0.1c2.1,0.2,2.5,0.2,2.5,5.2
	v9.4c0,4.1-0.3,9.5-1.1,11.2c-0.3,0.5-0.6,0.8-1.2,0.8c-0.5,0-1-0.1-1.7-0.3c-0.4-0.1-1.2-0.4-1.6-0.6c-0.3-0.1-0.6,0-0.8,0.2
	l-2.3,2.7c-0.2,0.3-0.2,0.7,0,1C88.9,208.7,89.7,209.4,91.9,209.4L91.9,209.4z"/>
<path class="st0" d="M124.1,205.6l-1.2,0.1c-0.4,0.1-0.7,0.4-0.6,0.8l0.1,1.1c0,0.4,0.4,0.7,0.7,0.7c0,0,0,0,0,0
	c2.2-0.1,3.8-0.1,5.8-0.1c2,0,3.5,0.1,5.7,0.1c0.4,0,0.7-0.3,0.7-0.7l0.1-1.1c0-0.4-0.2-0.7-0.6-0.8l-1.1-0.1
	c-2.1-0.2-2.2-0.3-2.2-5.1V184c0-5,0.2-5,2.1-5.2l1.1-0.1c0.2,0,0.4-0.1,0.5-0.2c0.1-0.1,0.2-0.3,0.2-0.5l-0.1-1.1
	c0-0.4-0.3-0.6-0.8-0.7c-2.2,0.1-3.8,0.1-5.7,0.1c-2,0-3.6-0.1-5.8-0.1c-0.4,0-0.7,0.3-0.7,0.7l-0.1,1.1c0,0.2,0,0.4,0.2,0.5
	c0.1,0.1,0.3,0.2,0.5,0.3l1.2,0.1c2,0.2,2.1,0.2,2.1,5.2v16.4C126.3,205.3,126.2,205.3,124.1,205.6L124.1,205.6z"/>
<path class="st0" d="M161.7,198.1v2.4c0,4.9-0.1,4.9-2.1,5.1l-1.4,0.1c-0.4,0-0.7,0.4-0.7,0.8l0.1,1.1c0,0.4,0.3,0.6,0.7,0.7
	c2.3-0.1,4-0.1,6-0.1c1.8,0,3.4,0,6.2,0.1c0,0,0,0,0,0c0.4,0,0.7-0.3,0.7-0.7l0.1-1.1c0-0.2-0.1-0.4-0.2-0.5
	c-0.1-0.1-0.3-0.2-0.5-0.3l-1.8-0.1c-1.8-0.1-2.1-0.2-2.1-5.1V198c0-3.4,0.1-3.7,2.1-7.1l2.9-5c0.3-0.5,0.5-0.9,0.8-1.4
	c1.7-3,3-5.2,4.8-5.5l1.3-0.2c0.4-0.1,0.6-0.4,0.6-0.8l-0.1-1.1c0-0.2-0.1-0.4-0.3-0.5c-0.2-0.1-0.4-0.2-0.5-0.1
	c-3.3,0.2-5.2,0.2-8.6,0c-0.2,0-0.4,0-0.5,0.1c-0.2,0.1-0.3,0.3-0.3,0.5L169,178c0,0.4,0.3,0.7,0.6,0.8l0.8,0.1c0,0,0.1,0,0.1,0
	c0.6,0.1,0.9,0.7,0.6,1.3c-0.6,1.2-1.6,3-2.2,4.1l-0.2,0.4c-0.9,1.7-1.9,3.6-3.1,5.7c-0.2,0.4-0.8,0.4-1.1,0
	c-0.9-1.8-1.8-3.6-2.7-5.4l-0.1-0.2c-0.4-0.8-0.8-1.7-1.2-2.5c-0.2-0.4-0.6-1.3-0.9-2c-0.2-0.6,0.1-1.2,0.7-1.3c0,0,0.1,0,0.1,0
	l0.6-0.1c0.4-0.1,0.7-0.4,0.6-0.8l-0.1-1.1c0-0.4-0.4-0.6-0.8-0.6h0c-1.1,0.1-2.8,0.1-4.9,0.1c-2.1,0-3.8,0-5.3-0.1
	c-0.2,0-0.4,0-0.5,0.1c-0.2,0.1-0.3,0.3-0.3,0.5l-0.1,1.1c0,0.4,0.2,0.7,0.6,0.8l1.3,0.2c1.1,0.2,1.7,0.3,3.1,3.1l5.4,10.6
	C161.5,195.1,161.6,195.6,161.7,198.1L161.7,198.1z"/>
<path class="st0" d="M184.6,208.3C184.6,208.3,184.7,208.3,184.6,208.3l1.1,0c1,0,2.2-0.1,3.3-0.1l1.6,0c1.4,0,2.3,0,3.2,0.1
	c0.4,0,0.7-0.3,0.7-0.7l0.1-1.1c0-0.4-0.3-0.7-0.7-0.8l-1.1-0.1c-0.6-0.1-1.1-0.7-0.9-1.3c0.1-0.6,0.4-1.4,0.8-2.5l1.6-4.8
	c0.1-0.4,0.5-0.6,1.1-0.6h6.9c0.7,0,1.1,0.2,1.2,0.6l2,6.3c0.1,0.2,0.2,0.6,0.3,1c0.2,0.6-0.2,1.3-0.9,1.3l-1.2,0.1
	c-0.4,0-0.7,0.4-0.6,0.8l0.1,1.1c0,0.4,0.3,0.7,0.7,0.7l1,0c1.2,0,2.6-0.1,4.3-0.1c1.9,0,3.5,0,5.5,0.1c0,0,0.1,0,0.1,0
	c0.2,0,0.3-0.1,0.5-0.2c0.1-0.1,0.2-0.3,0.2-0.5v-1.2c0-0.4-0.3-0.7-0.6-0.7l-1.2-0.1c-1.6-0.2-2-0.6-3.3-4.4l-6.6-19.2
	c-0.6-1.8-1.2-3.6-1.8-5.4c-0.1-0.2-0.2-0.4-0.4-0.5c-0.2-0.1-0.4-0.1-0.6,0l-3.1,1.3c-0.3,0.1-0.5,0.5-0.4,0.8
	c0.1,0.5-0.2,1.4-0.7,2.9l-4.7,12.4c-1.3,3.6-2.4,6.1-3.1,8l0,0.1c-0.3,0.8-0.6,1.5-0.9,2.2c-0.5,1.2-1.1,1.7-2.2,1.8l-1.5,0.1
	c-0.4,0-0.7,0.4-0.7,0.8l0.1,1.2C184,208,184.3,208.3,184.6,208.3L184.6,208.3z M196.2,192l2.6-7.1c0-0.1,0-0.1,0.1-0.2
	c0.1-0.4,0.6-0.2,0.8,0.2c0,0.1,0,0.1,0.1,0.2l2.3,6.9c0.2,0.5-0.2,1.1-0.8,1.1H197C196.4,193,196,192.5,196.2,192z"/>
<path class="st0" d="M42.7,240.6l-1.6-1c-0.1-0.1-0.1-0.2-0.1-0.2c0-0.1,0.1-0.2,0.2-0.2h26.4c0.4,0,0.7-0.2,0.8-0.6
	c0.1-0.3,0-0.7-0.2-0.9l-4.9-5.6c0,0,0,0-0.1-0.1c-0.3-0.3-0.7-0.3-1-0.1c-1.8,0.9-3.8,1.9-4.1,2c-1,0.3-1.6,0.4-4.7,0.4H18.3
	c-3.1,0-5.8-0.1-9.3-0.2c-0.2,0-1-0.1-1.4-0.1c-0.7-0.1-1.3-0.1-1.6-0.1c-0.3,0-0.6,0.2-0.8,0.5c-0.2,0.3-0.2,0.6,0,0.9
	c1.1,1.9,1.6,3,1.9,3.6c0.2,0.5,0.4,0.9,0.9,0.9c0.1,0,0.4,0,0.8-0.1h0.1c0.2,0,0.5-0.1,0.6-0.1c1.1-0.1,3.2-0.2,8.5-0.2h16.3
	c0.2,0,0.4,0.1,0.5,0.3c0.1,0.2,0.1,0.4,0,0.6c-3.7,7.9-7.8,14-10.6,17.8C9.1,278.5,0.7,284.6,0.4,284.8c-0.4,0.3-0.5,0.8-0.3,1.2
	c0.2,0.4,0.7,0.6,1.1,0.4c1.7-0.5,11-3.9,27.1-22.6c0.8-0.9,2.5-3.3,3.9-5.1c0.1-0.1,0.2-0.1,0.3-0.1c0.1,0,0.2,0.1,0.2,0.3
	c0.1,1.9,0.1,3.2,0.1,3.6c0,4.7-0.1,14.2-0.3,19.4c0,0.4,0,1.5-0.1,2.7v0.1c-0.1,2-0.2,4.4-0.2,5.7c0,0.5,0.4,0.9,0.9,0.9H39
	c0.5,0,0.9-0.4,0.9-0.9c0-2.1-0.3-9.2-0.3-10.2c-0.2-6.5-0.2-16.5-0.2-23c0-2.8,0.6-5.3,0.7-5.4c0.1-0.2,0-0.5-0.1-0.7
	c-0.1-0.2-0.3-0.4-0.6-0.4c0,0-0.1,0-0.1,0l-0.6,0c-0.2,0-0.4-0.1-0.5-0.3c-0.1-0.2-0.1-0.4,0-0.6c2.4-3.9,4-6.6,4.6-7.5l0.2-0.4
	c0.1-0.2,0.2-0.5,0.1-0.7C43,241,42.8,240.7,42.7,240.6L42.7,240.6z"/>
<path class="st0" d="M141.5,277.4C141.5,277.4,141.4,277.3,141.5,277.4c-0.3-0.3-0.7-0.4-1.1-0.2c-1.8,0.9-3.8,1.9-4.1,2
	c-1,0.3-1.6,0.4-4.7,0.4H93.3c-3.1,0-5.9-0.1-9.3-0.2c-0.2,0-0.9-0.1-1.3-0.1c-0.8-0.1-1.4-0.1-1.7-0.1c-0.3,0-0.6,0.2-0.8,0.5
	c-0.2,0.3-0.2,0.6,0,0.9c1.1,1.9,1.6,3,1.9,3.6c0.2,0.5,0.4,0.9,0.9,0.9c0.1,0,0.4,0,0.9-0.1h0.1c0.2,0,0.4-0.1,0.6-0.1
	c1.1-0.1,3.2-0.2,8.5-0.2h52.7c0.4,0,0.7-0.2,0.8-0.6c0.1-0.3,0.1-0.7-0.2-0.9L141.5,277.4L141.5,277.4z"/>
<path class="st0" d="M89.7,241.6c0.2,0.5,0.4,0.9,0.9,0.9c0.1,0,0.3,0,0.8-0.1h0.1c0.2,0,0.4-0.1,0.6-0.1c1.1-0.1,3.2-0.2,8.5-0.2
	h36.5c0.4,0,0.7-0.2,0.8-0.6c0.1-0.3,0.1-0.7-0.2-0.9l-5-5.7c-0.3-0.3-0.7-0.3-1-0.1c-1.8,0.9-3.8,1.9-4.1,2c-1,0.3-1.6,0.4-4.7,0.4
	h-22.1c-3.1,0-5.9-0.1-9.3-0.2c-0.2,0-1-0.1-1.4-0.1c-0.7-0.1-1.3-0.1-1.6-0.1c-0.3,0-0.6,0.2-0.8,0.5c-0.2,0.3-0.2,0.6,0,0.9
	C88.9,240,89.4,241.1,89.7,241.6L89.7,241.6z"/>
<path class="st0" d="M160.8,249.9c0,0,0.1-0.1,0.1-0.1c1.4-1.4,2.4-3.8,3.6-7.1c0.4-1,0.4-1,0.9-1l42.4,0c0.8,0,1.3,0.2,1.4,0.6
	c0.3,0.9,0.1,1.7-0.4,3.6c-0.1,0.3-0.2,0.6-0.3,0.9c0,0.1-0.1,0.2-0.1,0.3c-0.2,0.5-0.4,1.1,0.2,1.4c0.3,0.2,0.7,0.1,1.2-0.3
	c3.4-2.8,8.3-7.3,8.4-7.5c0,0,0.1-0.1,0.1-0.2c0.1-0.2,0.1-0.4,0.1-0.6c0,0,0-0.1,0-0.1c0-0.2-0.1-0.3-0.3-0.4l-4.9-4.3
	c-0.3-0.3-0.8-0.3-1.1-0.1c-1.5,1-2.7,1.8-2.9,1.9c-1,0.3-1.6,0.4-4.7,0.4l-12.4,0h0c-0.6,0-1.1-0.1-1.3-0.3
	c-0.1-0.1-0.3-0.4-0.1-0.9l1.9-4.8c0.1-0.3,0.1-0.5-0.1-0.8c-0.1-0.2-0.4-0.4-0.6-0.5l-7.5-1.2c-0.3,0-0.6,0.1-0.8,0.3
	c-0.2,0.2-0.3,0.5-0.2,0.8c0,0.1,0.8,3.3,0.8,6c0,1.2-0.8,1.3-1.9,1.3l-16.9,0.1c-1,0-1.2-0.4-1.3-0.8c-0.2-0.8-0.4-2-0.4-2
	c0-0.4-0.3-0.8-0.7-0.9c-0.4-0.1-0.8,0.1-1,0.5l0,0c-0.5,1.2-3,7.1-6.5,11c0,0-0.1,0.1-0.1,0.1c-0.1,0.2-0.2,0.4-0.2,0.6
	c0.1,0.4,0.4,0.8,1.1,1.2l2.4,1.5c0.1,0.1,0.3,0.2,0.4,0.3c0.4,0.3,0.8,0.6,1.3,0.6C160.5,250.1,160.7,250,160.8,249.9L160.8,249.9z
	"/>
<path class="st0" d="M218.6,278.9c-0.1,0-0.2-0.1-0.3-0.1l-1.3-0.5c-9.1-3.6-15.6-10.4-16.3-11.2c-0.2-0.2-0.2-0.4-0.2-0.6
	c0-0.3,0.2-0.5,0.4-0.6l11.9-7.2c0.3-0.2,0.4-0.4,0.4-0.7c0-0.3-0.1-0.6-0.3-0.8c-3-2.5-4.7-3.8-4.9-3.8c-0.3,0-0.5,0.1-0.7,0.3
	l-8.4,8.8c-0.2,0.2-0.5,0.3-0.7,0.3c-0.3,0-0.5-0.1-0.6-0.3c-2.1-2.9-4.4-7.8-5.3-10.3c-0.1-0.2-0.1-0.5,0.1-0.7
	c0.1-0.2,0.3-0.3,0.6-0.3h13.1c0.4,0,0.7-0.2,0.8-0.6c0.1-0.3,0.1-0.7-0.2-1l-5-4.8c-0.3-0.2-0.7-0.3-1-0.1c-1.8,0.9-3.8,1.9-4.1,2
	c-1,0.3-1.6,0.4-4.7,0.4h-13.2c-3.1,0-5.9-0.1-9.3-0.2c-0.1,0-0.8-0.1-1.3-0.1c-0.8-0.1-1.4-0.1-1.7-0.1c-0.3,0-0.6,0.2-0.8,0.5
	c-0.2,0.3-0.2,0.6,0,0.9l0.2,0.3c1.9,3.2,2,3.2,2.5,3.2h0.1c0.1,0,0.3,0,0.9-0.1l0.1,0c0.2,0,0.4,0,0.5,0c0,0,0.1,0,0.1,0
	c1.1-0.1,2.6-0.2,7.8-0.2h1.3c0.2,0,0.3,0.1,0.4,0.3c0.1,0.2,0,0.3-0.1,0.5c-5.6,6.6-16.8,11.7-19,12.6c-0.5,0.2-1,0.4-0.9,1.2
	c0.1,0.4,0.5,0.7,0.9,0.7c0.4,0,10.1-2.2,16.8-6.6c0.7-0.4,1.2-0.8,1.7-1.1c0.4-0.2,1-0.3,1.3,0.1c0.4,0.4,0.4,1,0,1.4
	c-1.2,1.4-3.7,4.2-7.2,7.1c-3.5,3.1-11.8,7.7-11.9,7.8c-0.4,0.2-0.5,0.6-0.4,1c0.1,0.4,0.5,0.7,0.9,0.7c1.4,0,12.8-3.7,21.3-10.9
	c0.2-0.2,0.4-0.4,0.7-0.6c0.2-0.2,0.5-0.2,0.7-0.2c0.2,0,0.4,0.2,0.6,0.4c0,0.1,0.1,0.1,0.1,0.2c0.3,0.6,0.2,1.4-0.3,1.9
	c-1,1.2-3.5,3.9-8.6,7.8c-7.3,5.6-16.1,9.3-16.5,9.4c-0.4,0.2-0.7,0.6-0.5,1.1c0.1,0.4,0.6,0.7,1,0.7c0.3-0.1,8.4-1.4,18.5-7.2
	c3.2-1.8,6.1-4,7.9-5.6c0.2-0.1,0.4-0.2,0.6-0.1c0.1,0,0.2,0.1,0.3,0.3c0.3,2.3,0.4,5.4-0.9,7.6c-1.5,2.4-4.6,3.2-7,2.9l-4.6-0.5
	c-0.4,0-0.8,0.2-1,0.6c-0.1,0.4,0,0.8,0.3,1.1l7.1,4.9c0.2,0.1,0.3,0.2,0.5,0.2c3.2,0,6.4-1.4,8.7-3.7c2.3-2.4,3.4-5.5,3.3-9
	c-0.4-11.4-8.2-19.9-9.8-21.5c-0.4-0.4-0.4-1.1,0-1.5l3.1-3.3c0.1-0.1,0.3-0.2,0.5-0.1c0.2,0,0.4,0.2,0.5,0.4
	c1,3.3,4.9,14.8,12.1,23.1c5.4,6.2,11.6,10.6,12.3,10.8c0,0,0,0,0,0c0.5,0,4.6-3.2,7.1-5.2c0.2-0.2,0.3-0.4,0.4-0.6
	C220.2,279.5,219.3,279.2,218.6,278.9L218.6,278.9z"/>
</svg>
