<svg width="342" height="124" viewBox="0 0 342 124" fill="none" xmlns="http://www.w3.org/2000/svg">
<path d="M178.021 124C176.55 124 175.102 124 173.606 123.952C173.413 123.952 173.172 123.952 172.93 123.952C157.922 123.952 58.8016 122.355 17.0107 81.3262C2.99196 67.5612 0.0241287 53.8929 0 44.8695C0 32.9914 4.94638 21.2827 13.6086 12.6947C29.0027 -2.5218 58.2466 -7.52953 86.067 17.4604C93.0885 23.7502 99.7239 32.4834 106.769 41.7246C126.362 67.4644 148.536 96.5426 189.145 94.2686C189.483 94.2686 189.796 94.2203 190.134 94.1961C190.641 94.1719 191.147 94.1234 191.678 94.075C254.823 89.4544 298.134 53.6994 316.882 22.3229L342 37.3942C316.834 79.5359 260.71 123.952 178.021 123.952V124ZM45.5067 29.3868C38.8231 29.3868 34.8901 32.943 34.1903 33.6445C31.8257 35.9911 29.2922 40.1521 29.3164 44.8452C29.3164 49.8045 32.0912 55.0299 37.5201 60.3762C52.3593 74.9395 79.9866 83.7454 107.855 88.753C98.2279 78.9312 90.2895 68.5289 83.4852 59.578C77.3083 51.4738 71.4933 43.8292 66.5228 39.3779C57.9088 31.6366 50.815 29.3868 45.4826 29.3868H45.5067Z" fill="#E50012"/>
</svg>
