<svg width="13" height="6" viewBox="0 0 13 6" fill="none" xmlns="http://www.w3.org/2000/svg">
<path d="M12.9561 2.69C13.0061 2.57 13.0061 2.43 12.9561 2.31C12.9261 2.25 12.8961 2.19 12.8461 2.15L10.8461 0.15C10.6461 -0.05 10.3361 -0.05 10.1361 0.15C9.93609 0.35 9.93609 0.66 10.1361 0.86L11.2861 2.01H1.49609C1.21609 2.01 0.996094 2.23 0.996094 2.51C0.996094 2.79 1.21609 3.01 1.49609 3.01H11.2861L10.1361 4.16C9.93609 4.36 9.93609 4.67 10.1361 4.87C10.2361 4.97 10.3661 5.02 10.4861 5.02C10.6061 5.02 10.7461 4.97 10.8361 4.87L12.8361 2.87C12.8361 2.87 12.9161 2.77 12.9461 2.71L12.9561 2.69Z" fill="#280901"/>
</svg>
