<?xml version="1.0" encoding="utf-8"?>
<!-- Generator: Adobe Illustrator 27.8.1, SVG Export Plug-In . SVG Version: 6.00 Build 0)  -->
<!DOCTYPE svg PUBLIC "-//W3C//DTD SVG 1.1//EN" "http://www.w3.org/Graphics/SVG/1.1/DTD/svg11.dtd" [
	<!ENTITY ns_extend "http://ns.adobe.com/Extensibility/1.0/">
	<!ENTITY ns_ai "http://ns.adobe.com/AdobeIllustrator/10.0/">
	<!ENTITY ns_graphs "http://ns.adobe.com/Graphs/1.0/">
	<!ENTITY ns_vars "http://ns.adobe.com/Variables/1.0/">
	<!ENTITY ns_imrep "http://ns.adobe.com/ImageReplacement/1.0/">
	<!ENTITY ns_sfw "http://ns.adobe.com/SaveForWeb/1.0/">
	<!ENTITY ns_custom "http://ns.adobe.com/GenericCustomNamespace/1.0/">
	<!ENTITY ns_adobe_xpath "http://ns.adobe.com/XPath/1.0/">
]>
<svg version="1.1" id="レイヤー_1" xmlns:x="&ns_extend;" xmlns:i="&ns_ai;" xmlns:graph="&ns_graphs;"
	 xmlns="http://www.w3.org/2000/svg" xmlns:xlink="http://www.w3.org/1999/xlink" x="0px" y="0px" width="288px" height="19px"
	 viewBox="0 0 288 19" style="enable-background:new 0 0 288 19;" xml:space="preserve">
<style type="text/css">
	.st0{fill:#280901;}
	.st1{fill:#BFB5B3;}
</style>
<metadata>
	<sfw  xmlns="&ns_sfw;">
		<slices></slices>
		<sliceSourceBounds  bottomLeftOrigin="true" height="11.2" width="288" x="0" y="4"></sliceSourceBounds>
	</sfw>
</metadata>
<path class="st0" d="M26,13.9c0,0.6-0.1,0.8-0.8,0.8h-0.6l-0.4-0.9c0.7,0.1,0.7,0.1,0.8,0.1c0.2,0,0.2-0.1,0.2-0.3v-1.2h-2.3v2.4H22
	V7.6H26V13.9z M25.2,9.6V8.4h-2.3v1.2H25.2z M25.2,11.6v-1.2h-2.3v1.2H25.2z M31.6,6.7H21.2V5.9h3.1C24,5.3,23.8,5,23.4,4.6l0.7-0.5
	c0.5,0.5,0.7,0.8,1.1,1.4l-0.7,0.4h3.6l-0.4-0.3c0.5-0.5,0.8-0.9,1.1-1.5l0.7,0.4c0.1,0,0.1,0.1,0.1,0.2c0,0.1,0,0.1-0.3,0.1
	c-0.3,0.5-0.5,0.8-0.8,1.1h3.1V6.7z M31,7.6c0,0.1-0.1,0.1-0.3,0.2v6c0,0.8-0.2,0.9-0.9,0.9h-1l-0.3-1c0.2,0,0.9,0.1,1,0.1
	c0.2,0,0.2,0,0.2-0.4v-6l0.9,0.1C30.8,7.5,31,7.5,31,7.6z M28.6,8.1c0,0.1-0.1,0.1-0.3,0.2v4.6h-0.8v-5l0.8,0.1
	C28.3,7.9,28.6,8,28.6,8.1z M40,14.1l-0.5-0.8c0.5-0.2,1.2-0.4,1.8-0.9c0.8-0.6,1.4-1.8,1.4-3c0-1.8-1.3-2.8-1.9-3.1
	c-0.4-0.2-1-0.3-1.6-0.3c-0.2,1.8-0.6,3.6-1.4,5.3c-0.5,1.1-1.2,2.1-1.9,2.1c-1,0-2.1-1.5-2.1-3.3c0-2.3,1.8-4.9,5.1-4.9
	c2.5,0,4.7,1.6,4.7,4.2C43.6,12.6,40.7,13.8,40,14.1z M38.2,5.9c-0.9,0.2-1.8,0.4-2.7,1.7c-0.4,0.5-0.8,1.3-0.8,2.4
	c0,1.3,0.7,2.3,1.2,2.3c0.3,0,0.5,0,1.3-1.9C38,8.3,38.2,6.7,38.2,5.9z M56.3,6.2h-2.8L54,6.6c0.1,0,0.1,0.1,0.1,0.2
	c0,0.1-0.1,0.1-0.4,0.1c-0.3,0.5-0.6,0.8-0.8,1.1h2.9v5.6c0,1-0.3,1.2-1.8,1.2l-0.3-1c0.5,0,0.7,0,0.8,0c0.5,0,0.5-0.2,0.5-0.6V8.7
	h-2.8v0.6c0,0.3,0.1,0.3,0.4,0.3h0.5c0.3,0,0.4,0,0.6-0.6l0.8,0.3c-0.3,0.8-0.4,1-1,1h-1.2c-0.6,0-0.9-0.1-0.9-0.7V8.7h-1.7l0.3,0.2
	c0,0,0.1,0.1,0.1,0.1c0,0.1-0.2,0.2-0.4,0.2c-0.5,0.7-1,1.2-1.7,1.6l-0.7-0.6c0.9-0.4,1.4-1,1.8-1.6h-2.3v6.1h-0.9V7.9H49
	c-0.2-0.4-0.5-0.8-1-1.3l0.6-0.4h-3V5.4h4.9V3.9l1.1,0.1c0.1,0,0.2,0,0.2,0.1c0,0.1-0.1,0.2-0.4,0.3v1h4.9V6.2z M53.1,6.2h-4.3
	c0.5,0.4,0.8,0.9,1,1.3l-0.5,0.4h3.2l-0.5-0.4C52.5,7.1,52.8,6.8,53.1,6.2z M53.2,13.8h-3.7v0.6h-0.9v-3.5h4.5V13.8z M52.3,13v-1.3
	h-2.8V13H52.3z M66.6,8.5h-6v-4h6V8.5z M61.4,7.6h4.2V5.3h-4.2V7.6z M63,14.6h-0.9V14h-2.7v0.6h-0.9V9.8H63V14.6z M59.4,13.3h2.7
	v-2.7h-2.7V13.3z M68.6,14.6h-0.9V14H65v0.6h-0.9V9.8h4.5V14.6z M65,13.3h2.7v-2.7H65V13.3z"/>
<path class="st0" d="M0,9.3c0,0.1,0,0.3,0,0.4c0,0.1,0.1,0.1,0.1,0.2l2,2c0.2,0.2,0.5,0.2,0.7,0c0.2-0.2,0.2-0.5,0-0.7L1.7,10h9.8
	c0.3,0,0.5-0.2,0.5-0.5C12,9.2,11.8,9,11.5,9H1.7l1.2-1.2c0.2-0.2,0.2-0.5,0-0.7C2.8,7.1,2.6,7,2.5,7C2.4,7,2.2,7.1,2.2,7.2l-2,2
	C0.2,9.2,0.1,9.3,0,9.3L0,9.3z"/>
<path class="st1" d="M194,6.5v7c0,0.3-0.2,0.5-0.5,0.5l0,0c-0.3,0-0.5-0.2-0.5-0.5v-7c0-0.3,0.2-0.5,0.5-0.5l0,0
	C193.8,6,194,6.2,194,6.5z"/>
<path class="st0" d="M130.5,6.2h-2.8l0.5,0.3c0.1,0,0.1,0.1,0.1,0.2c0,0.1-0.1,0.1-0.4,0.1c-0.3,0.5-0.6,0.8-0.8,1.1h2.9v5.6
	c0,1-0.3,1.2-1.8,1.2l-0.3-1c0.5,0,0.7,0,0.8,0c0.5,0,0.5-0.2,0.5-0.6V8.7h-2.8v0.6c0,0.3,0.1,0.3,0.4,0.3h0.5c0.3,0,0.4,0,0.6-0.6
	l0.8,0.3c-0.3,0.8-0.4,1-1,1h-1.2c-0.6,0-0.9-0.1-0.9-0.7V8.7h-1.7l0.3,0.2c0,0,0.1,0.1,0.1,0.1c0,0.1-0.2,0.2-0.4,0.2
	c-0.5,0.7-1,1.2-1.7,1.6l-0.7-0.6c0.9-0.4,1.4-1,1.8-1.6h-2.3v6.1h-0.9V7.9h2.9c-0.2-0.4-0.5-0.8-1-1.3l0.6-0.4h-3V5.4h4.9V3.9
	l1.1,0.1c0.1,0,0.2,0,0.2,0.1c0,0.1-0.1,0.2-0.4,0.3v1h4.9V6.2z M127.2,6.2h-4.3c0.5,0.4,0.8,0.9,1,1.3l-0.5,0.4h3.2l-0.5-0.4
	C126.7,7.1,126.9,6.8,127.2,6.2z M127.3,13.8h-3.7v0.6h-0.9v-3.5h4.5V13.8z M126.5,13v-1.3h-2.8V13H126.5z M140.7,8.5h-6v-4h6V8.5z
	 M135.6,7.6h4.2V5.3h-4.2V7.6z M137.1,14.6h-0.9V14h-2.7v0.6h-0.9V9.8h4.4V14.6z M133.5,13.3h2.7v-2.7h-2.7V13.3z M142.7,14.6h-0.9
	V14h-2.7v0.6h-0.9V9.8h4.5V14.6z M139.1,13.3h2.7v-2.7h-2.7V13.3z M155.4,9.8h-10.2V8.9h10.2V9.8z M162.3,8.5h-4.3V4.3h4.3v0.6h-1.7
	v0.5h1.3v1.9h-1.3v0.5h1.7V8.5z M161.1,6.7V6.1h-2.5v0.6H161.1z M159.9,5.4V4.9h-1.2v0.5H159.9z M159.9,7.8V7.3h-1.2v0.5H159.9z
	 M168.4,13.4c-0.2,0.8-0.5,1.4-1.4,1.4h-2.4c-0.8,0-1-0.2-1-0.8v-0.7h-1.2c-0.2,0.3-0.5,0.9-1.5,1.3c-1,0.4-1.9,0.5-3,0.5l-0.3-0.8
	c0.2,0,0.5,0,0.8,0c0.6,0,1.4-0.1,2.2-0.4c0.5-0.2,0.7-0.5,0.9-0.6h-2.1V9h7.3v4.2h-2.3v0.5c0,0.3,0.2,0.3,0.5,0.3h1.7
	c0.7,0,0.8-0.3,1-1.1L168.4,13.4z M165.8,11.4v-0.6h-5.6v0.6H165.8z M165.8,10.2V9.7h-5.6v0.5H165.8z M165.8,12.6V12h-5.6v0.6H165.8
	z M168.2,5.9h-4.6c-0.2,0.4-0.5,0.8-0.8,1.2l-0.7-0.4c1-1,1.4-2.1,1.6-2.6l0.7,0.3c0.1,0,0.2,0.1,0.2,0.1c0,0.1-0.2,0.2-0.3,0.2
	c-0.1,0.2-0.2,0.4-0.2,0.5h4.2V5.9z M167.3,8h-3.9V7.2h3.9V8z"/>
<path class="st1" d="M95,6.5v7c0,0.3-0.2,0.5-0.5,0.5l0,0c-0.3,0-0.5-0.2-0.5-0.5v-7C94,6.2,94.2,6,94.5,6l0,0C94.8,6,95,6.2,95,6.5
	z"/>
<path class="st0" d="M229.8,14l-0.7,0.8c-2.5-1.4-3-3.2-3.4-4.3c-0.3,1-1,3.1-3.3,4.4l-0.7-0.7c3.1-1.7,3.5-4.5,3.5-7.2h-1.1
	c-0.6,1.3-0.8,1.5-1,1.8l-0.8-0.4c0.6-0.9,1.5-2.4,2.1-4.7l0.9,0.2c0.1,0,0.2,0.1,0.2,0.2s-0.2,0.2-0.4,0.2
	c-0.1,0.5-0.3,0.9-0.6,1.8h5l0.3,0.4c-0.8,1.1-1.4,1.8-2.2,2.7l-0.8-0.4c0.9-1,1.2-1.4,1.5-1.8h-2.2c0,0.3,0,0.6,0,1.1
	c0,0,0,0.4,0,0.5c0,0.1,0.2,0.8,0.2,0.9c0.3,1.3,1,2.5,2,3.4C228.9,13.7,229.5,13.9,229.8,14z M219.4,5.9l0.6-0.7
	c0.7,0.4,1.2,0.9,1.8,1.6l-0.7,0.6C220.6,6.9,220,6.3,219.4,5.9z M222.6,9.2l0.5,0.8c-0.9,1.2-2.1,2.5-2.8,3.3
	c0,0.3-0.1,0.4-0.2,0.4c-0.1,0-0.2-0.1-0.3-0.2l-0.6-0.7C220.3,12,222,10.1,222.6,9.2z M238,14.1l-0.5-0.8c0.5-0.2,1.2-0.4,1.8-0.9
	c0.8-0.6,1.4-1.8,1.4-3c0-1.8-1.3-2.8-1.9-3.1c-0.4-0.2-1-0.3-1.6-0.3c-0.2,1.8-0.6,3.6-1.4,5.3c-0.5,1.1-1.2,2.1-1.9,2.1
	c-1,0-2.1-1.5-2.1-3.3c0-2.3,1.8-4.9,5.1-4.9c2.5,0,4.7,1.6,4.7,4.2C241.6,12.6,238.7,13.8,238,14.1z M236.2,5.9
	c-0.9,0.2-1.8,0.4-2.7,1.7c-0.4,0.5-0.8,1.3-0.8,2.4c0,1.3,0.7,2.3,1.2,2.3c0.3,0,0.5,0,1.3-1.9C236,8.3,236.2,6.7,236.2,5.9z
	 M254.3,6.2h-2.8l0.5,0.3c0.1,0,0.1,0.1,0.1,0.2c0,0.1-0.1,0.1-0.4,0.1c-0.3,0.5-0.6,0.8-0.8,1.1h2.9v5.6c0,1-0.3,1.2-1.8,1.2
	l-0.3-1c0.5,0,0.7,0,0.8,0c0.5,0,0.5-0.2,0.5-0.6V8.7h-2.8v0.6c0,0.3,0.1,0.3,0.4,0.3h0.5c0.3,0,0.4,0,0.6-0.6l0.8,0.3
	c-0.3,0.8-0.4,1-1,1h-1.2c-0.6,0-0.9-0.1-0.9-0.7V8.7h-1.7l0.3,0.2c0,0,0.1,0.1,0.1,0.1c0,0.1-0.2,0.2-0.4,0.2
	c-0.5,0.7-1,1.2-1.7,1.6l-0.7-0.6c0.9-0.4,1.4-1,1.8-1.6h-2.3v6.1h-0.9V7.9h2.9c-0.2-0.4-0.5-0.8-1-1.3l0.6-0.4h-3V5.4h4.9V3.9
	l1.1,0.1c0.1,0,0.2,0,0.2,0.1c0,0.1-0.1,0.2-0.4,0.3v1h4.9V6.2z M251.1,6.2h-4.3c0.5,0.4,0.8,0.9,1,1.3l-0.5,0.4h3.2l-0.5-0.4
	C250.5,7.1,250.8,6.8,251.1,6.2z M251.2,13.8h-3.7v0.6h-0.9v-3.5h4.5V13.8z M250.3,13v-1.3h-2.8V13H250.3z M264.6,8.5h-6v-4h6V8.5z
	 M259.4,7.6h4.2V5.3h-4.2V7.6z M261,14.6h-0.9V14h-2.7v0.6h-0.9V9.8h4.4V14.6z M257.4,13.3h2.7v-2.7h-2.7V13.3z M266.6,14.6h-0.9V14
	H263v0.6h-0.9V9.8h4.5V14.6z M263,13.3h2.7v-2.7H263V13.3z"/>
<path class="st0" d="M288,9.7c0.1-0.1,0.1-0.3,0-0.4c0-0.1-0.1-0.1-0.1-0.2l-2-2c-0.2-0.2-0.5-0.2-0.7,0c-0.2,0.2-0.2,0.5,0,0.7
	l1.1,1.2h-9.8c-0.3,0-0.5,0.2-0.5,0.5c0,0.3,0.2,0.5,0.5,0.5h9.8l-1.1,1.1c-0.2,0.2-0.2,0.5,0,0.7c0.1,0.1,0.2,0.2,0.3,0.2
	s0.3-0.1,0.4-0.2l2-2C287.8,9.9,287.9,9.8,288,9.7L288,9.7z"/>
</svg>
